<?xml version="1.0" standalone="no"?>
<!DOCTYPE svg PUBLIC "-//W3C//DTD SVG 20010904//EN"
 "http://www.w3.org/TR/2001/REC-SVG-20010904/DTD/svg10.dtd">
<svg version="1.0" xmlns="http://www.w3.org/2000/svg"
 width="128.000000pt" height="128.000000pt" viewBox="0 0 128.000000 128.000000"
 preserveAspectRatio="xMidYMid meet">
<metadata>
Created by potrace 1.11, written by Peter Selinger 2001-2013
</metadata>
<g transform="translate(0.000000,128.000000) scale(0.100000,-0.100000)"
fill="#000000" stroke="none">
<path d="M180 645 l0 -395 85 0 85 0 0 306 0 306 33 -7 c135 -27 208 -90 249
-215 3 -9 15 7 31 42 44 98 113 149 235 173 l32 7 0 -306 0 -306 85 0 85 0 0
396 0 396 -97 -4 c-116 -6 -168 -26 -232 -89 -51 -52 -84 -114 -107 -201 -9
-34 -19 -70 -21 -78 -3 -8 -11 14 -19 50 -20 96 -66 181 -128 237 -66 61 -129
83 -237 83 l-79 0 0 -395z"/>
<path d="M626 465 c-8 -49 -56 -128 -97 -158 -15 -11 -51 -28 -80 -38 l-54
-18 245 0 c235 0 243 1 195 16 -27 8 -65 26 -84 40 -43 33 -90 107 -98 156 -8
53 -20 54 -27 2z"/>
</g>
</svg>
