<svg xmlns="http://www.w3.org/2000/svg" width="48" height="41" viewBox="0 0 48 41">
  <path fill="#000000" fill-rule="evenodd" d="M709.748396,12681 L701,12681 L701,12640 L706.540514,12640 C717.563658,12640 724.970852,12649.4301 724.970852,12664.8926 C724.970852,12649.4301 732.436342,12640 743.40078,12640 L749,12640 L749,12681 L740.251193,12681 L740.251193,12649.4886 C731.153025,12649.4886 724.970852,12655.7557 724.970852,12664.8926 C724.970852,12675.4944 731.619387,12681 740.251193,12681 L709.748396,12681 C718.321907,12681 724.970852,12675.4944 724.970852,12664.8926 C724.970852,12655.7557 718.846975,12649.4886 709.748396,12649.4886 L709.748396,12681 Z" transform="translate(-701 -12640)"/>
</svg>
