<svg xmlns="http://www.w3.org/2000/svg" width="4385" height="147" viewBox="0 0 4385 147">
  <g fill="none" fill-rule="evenodd">
    <path fill="#000000" d="M633.312976,238.106294 L647.945661,238.106294 L647.945661,221.132341 L633.312976,221.132341 L633.312976,238.106294 Z M649.701534,558.977189 C649.701534,564.244805 645.370487,568.459212 639.985603,568.459212 C634.60072,568.459212 630.269359,564.244805 630.269359,558.977189 C630.269359,553.826526 634.60072,549.612119 639.985603,549.612119 C645.370487,549.612119 649.701534,553.826526 649.701534,558.977189 Z M649.701534,523.039503 C649.701534,528.307433 645.370487,532.521526 639.985603,532.521526 C634.60072,532.521526 630.269359,528.307433 630.269359,523.039503 C630.269359,517.88884 634.60072,513.674433 639.985603,513.674433 C645.370487,513.674433 649.701534,517.88884 649.701534,523.039503 Z M649.701534,-281.889593 C649.701534,-276.621663 645.370487,-272.40757 639.985603,-272.40757 C634.60072,-272.40757 630.269359,-276.621663 630.269359,-281.889593 C630.269359,-287.040255 634.60072,-291.254348 639.985603,-291.254348 C645.370487,-291.254348 649.701534,-287.040255 649.701534,-281.889593 Z M591.990093,604.749639 L599.950465,630.152092 C603.930337,630.152092 607.09122,626.523081 607.09122,619.265372 C607.09122,610.251477 601.82329,604.749639 592.107047,604.749639 L591.990093,604.749639 Z M591.990093,376.825836 L599.950465,402.228289 C603.930337,402.228289 607.09122,398.599277 607.09122,391.341568 C607.09122,382.327673 601.82329,376.825836 592.107047,376.825836 L591.990093,376.825836 Z M591.990093,-463.57219 L599.950465,-438.169737 C603.930337,-438.169737 607.09122,-441.798749 607.09122,-449.056458 C607.09122,-458.070353 601.82329,-463.57219 592.107047,-463.57219 L591.990093,-463.57219 Z M589.063744,-358.097892 C600.067418,-358.332113 610.486011,-363.365508 610.369057,-379.520159 C610.369057,-385.607391 608.378651,-390.523833 603.813383,-390.523833 C594.565581,-390.523833 598.194279,-368.399218 589.063744,-358.097892 Z M574.430745,463.219134 C574.430745,472.584204 581.220639,478.905343 590.585395,478.905343 C599.950465,478.905343 606.154651,472.584204 606.154651,463.219134 C606.154651,453.971332 599.950465,447.532612 590.585395,447.532612 C581.220639,447.532612 574.430745,453.971332 574.430745,463.219134 Z M592.926663,-403.283693 C580.635244,-403.16674 570.216651,-396.025671 570.216651,-379.168985 C570.216651,-373.784101 571.972524,-369.335787 576.18693,-369.335787 C587.424825,-369.335787 581.922675,-393.80167 592.926663,-403.283693 Z M575.133407,-175.479666 C572.674872,-175.479666 569.397349,-173.958014 569.397349,-168.573131 C569.397349,-158.271492 578.293977,-154.408573 587.541779,-154.291619 L587.892953,-154.291619 C581.922675,-160.612759 584.146988,-175.479666 575.133407,-175.479666 Z M560.149233,531.584956 L620.436162,531.584956 L620.436162,514.611003 L560.149233,514.611003 L560.149233,531.584956 Z M560.149233,495.879297 L647.945661,495.879297 L647.945661,478.905343 L560.149233,478.905343 L560.149233,495.879297 Z M622.192348,295.232653 C622.192348,303.661153 617.041371,309.865339 606.505825,311.153083 C614.817371,314.313653 622.192348,320.283932 622.192348,331.52214 C622.192348,342.17464 615.636674,347.559524 602.75986,347.559524 L560.149233,347.559524 L560.149233,330.585257 L597.609197,330.585257 C607.325441,330.585257 610.369057,326.605385 610.369057,320.400885 C610.369057,316.772187 609.081313,314.196699 606.388871,311.153083 C605.335348,311.27035 604.047604,311.27035 602.75986,311.27035 L560.149233,311.27035 L560.149233,294.296397 L597.609197,294.296397 C607.325441,294.296397 610.369057,290.667386 610.369057,284.463199 C610.369057,280.483014 609.081313,278.141746 606.388871,274.981176 C614.700418,278.2587 622.192348,283.877804 622.192348,295.232653 Z M560.149233,274.981176 L620.436162,274.981176 L620.436162,258.007223 L560.149233,258.007223 L560.149233,274.981176 Z M563.661291,221.132341 L616.924418,221.132341 L616.924418,211.767585 L620.436162,211.767585 L620.436162,238.106294 L563.661291,238.106294 L563.661291,247.471363 L560.149233,247.471363 L560.149233,211.767585 L563.661291,211.767585 L563.661291,221.132341 Z M620.436162,174.892389 L642.09265,174.892389 L642.09265,191.866342 L620.436162,191.866342 L620.436162,204.157761 L606.388871,204.157761 L606.388871,191.866342 L560.149233,191.866342 L560.149233,174.892389 L606.388871,174.892389 L606.388871,162.600657 L620.436162,162.600657 L620.436162,174.892389 Z M560.149233,150.309552 L647.945661,150.309552 L647.945661,133.335599 L560.149233,133.335599 L560.149233,150.309552 Z M560.149233,-102.782797 L647.945661,-102.782797 L647.945661,-119.75675 L560.149233,-119.75675 L560.149233,-102.782797 Z M560.149233,-229.563035 L620.436162,-216.569268 L620.436162,-200.18071 L560.149233,-213.174478 L560.149233,-229.563035 Z M560.149233,-247.473558 L620.436162,-262.223511 L620.436162,-244.429942 L560.149233,-229.563035 L560.149233,-247.473558 Z M560.149233,-273.344139 L620.436162,-273.344139 L620.436162,-290.318092 L560.149233,-290.318092 L560.149233,-273.344139 Z M620.436162,-331.875823 L642.09265,-331.875823 L642.09265,-314.901556 L620.436162,-314.901556 L620.436162,-302.610138 L606.388871,-302.610138 L606.388871,-314.901556 L560.149233,-314.901556 L560.149233,-331.875823 L606.388871,-331.875823 L606.388871,-344.166928 L620.436162,-344.166928 L620.436162,-331.875823 Z M620.436162,-518.007048 L647.945661,-518.007048 L647.945661,-476.450258 L633.898371,-476.450258 L633.898371,-501.033095 L620.436162,-501.033095 L620.436162,-487.570886 L606.388871,-487.570886 L606.388871,-501.033095 L560.149233,-501.033095 L560.149233,-518.007048 L606.388871,-518.007048 L606.388871,-530.298466 L620.436162,-530.298466 L620.436162,-518.007048 Z M642.678045,32.0728857 C642.678045,36.8726876 639.165987,40.8525599 633.898371,40.8525599 L568.343512,40.8525599 C562.958942,40.8525599 559.563838,36.8726876 559.563838,32.0728857 C559.563838,27.390351 562.958942,23.2932115 568.343512,23.2932115 L633.898371,23.2932115 C639.165987,23.2932115 642.678045,27.390351 642.678045,32.0728857 Z M633.196022,6.55347917 C638.580906,7.49004882 642.09265,10.4163978 642.09265,15.9185486 L642.09265,23.2932115 L568.460779,10.8845259 C564.129419,10.1824906 559.563838,6.55347917 559.563838,-1.52384617 L559.563838,-5.85520645 L633.196022,6.55347917 Z M632.961801,-19.2001482 L559.563838,-5.85520645 L559.563838,-10.1862532 C559.563838,-18.3808457 564.36364,-24.2338573 569.514303,-25.1704269 L642.09265,-38.398415 L642.09265,-30.0871825 C642.09265,-23.4145548 638.93208,-20.2536714 632.961801,-19.2001482 Z M642.678045,-47.1780892 C642.678045,-42.3786009 639.165987,-38.398415 633.898371,-38.398415 L568.343512,-38.398415 C562.958942,-38.398415 559.563838,-42.3786009 559.563838,-47.1780892 C559.563838,-51.8606239 562.958942,-55.9577634 568.343512,-55.9577634 L633.898371,-55.9577634 C639.165987,-55.9577634 642.678045,-51.8606239 642.678045,-47.1780892 Z M558.393361,618.914197 C558.393361,603.696116 569.514303,588.712256 590.585395,588.712256 C611.071093,588.712256 622.192348,603.696116 622.192348,618.914197 C622.192348,635.88815 610.602965,649.701534 591.990093,649.701534 L591.990093,604.749639 C579.464454,604.866593 574.07957,615.285499 574.07957,626.991522 C574.07957,639.049034 579.230546,649.701534 591.990093,649.701534 C569.514303,649.701534 558.393361,635.420022 558.393361,618.914197 Z M558.393361,456.429553 C558.393361,441.328426 571.85557,431.495228 590.585395,431.495228 C608.730139,431.495228 622.192348,440.743344 622.192348,456.429553 C622.192348,470.945285 609.315534,478.905343 590.585395,478.905343 C571.85557,478.905343 558.393361,470.945285 558.393361,456.429553 Z M558.393361,390.990394 C558.393361,375.772313 569.514303,360.788452 590.585395,360.788452 C611.071093,360.788452 622.192348,375.772313 622.192348,390.990394 C622.192348,407.964347 610.602965,421.77773 591.990093,421.77773 L591.990093,376.825836 C579.464454,376.94279 574.07957,387.361382 574.07957,399.067719 C574.07957,411.124917 579.230546,421.77773 591.990093,421.77773 C569.514303,421.77773 558.393361,407.495905 558.393361,390.990394 Z M560.149233,97.6302529 L588.829523,97.6302529 C570.68478,97.3957185 558.393361,90.4891836 558.393361,77.0272883 C558.393361,62.8627306 571.387128,58.4144166 583.561907,58.4144166 L620.436162,58.4144166 L620.436162,75.3883698 L590.351174,75.3883698 C580.986419,75.3883698 574.313791,78.431986 574.313791,86.626265 C574.313791,94.4693695 580.283756,97.3957185 589.180698,97.6302529 L620.436162,97.6302529 L620.436162,114.603892 L560.149233,114.603892 L560.149233,97.6302529 Z M622.192348,-163.422468 C622.192348,-142.117155 610.602965,-137.317666 597.140756,-137.317666 L560.149233,-137.317666 L560.149233,-154.291619 L587.892953,-154.291619 L587.541779,-154.291619 C564.36364,-154.52584 558.393361,-165.412561 558.393361,-175.713886 C558.393361,-188.473746 566.236466,-192.570886 573.962617,-192.570886 C598.077325,-192.570886 592.107047,-154.291619 602.174465,-154.291619 C606.388871,-154.291619 609.315534,-157.803364 609.315534,-164.24177 C609.315534,-172.553317 604.398779,-175.362712 600.769767,-175.362712 L600.769767,-191.166188 C613.529627,-189.878444 622.192348,-181.918072 622.192348,-163.422468 Z M589.063744,-358.097892 C586.370989,-355.054276 582.50807,-352.946916 576.772012,-352.946916 C563.544024,-352.829962 558.393361,-363.365508 558.393361,-379.168985 C558.393361,-388.651008 560.03228,-398.367251 563.310117,-403.283693 L592.926663,-403.283693 C595.619104,-405.508007 599.130849,-406.912705 604.164558,-406.912705 C614.700418,-406.912705 622.192348,-398.601159 622.192348,-380.105554 C622.192348,-369.101566 620.670383,-361.72659 618.914511,-358.097892 L589.063744,-358.097892 Z M558.393361,-449.407632 C558.393361,-464.625713 569.514303,-479.609887 590.585395,-479.609887 C611.071093,-479.609887 622.192348,-464.625713 622.192348,-449.407632 C622.192348,-432.433679 610.602965,-418.620296 591.990093,-418.620296 L591.990093,-463.57219 C579.464454,-463.455236 574.07957,-453.036644 574.07957,-441.330621 C574.07957,-429.273109 579.230546,-418.620296 591.990093,-418.620296 C569.514303,-418.620296 558.393361,-432.901807 558.393361,-449.407632 Z M561.671198,583.677293 C543.409501,583.677293 530.298466,570.215084 530.298466,552.538782 C530.298466,547.153898 531.703164,540.832445 534.161699,536.501398 L561.671198,536.501398 C552.540349,536.501398 545.984675,543.759108 545.984675,552.538782 C545.984675,560.850328 551.838001,566.586386 560.149233,567.171468 L560.149233,550.314782 L622.192348,550.314782 L622.192348,567.288421 L587.073651,567.288421 C582.859244,577.355839 572.791826,583.677293 561.671198,583.677293 Z" transform="rotate(-90 1198 -521.298)"/>
    <path fill="#000000" d="M86.0810231,310.212529 C85.3537954,309.971326 84.7488449,309.48892 84.3863036,308.88698 C84.2640264,310.332063 84.3863036,311.779281 84.3863036,313.102695 L84.3863036,321.536258 C84.8711221,317.802949 85.9587459,314.067506 86.0810231,310.332063 L86.0810231,310.212529 Z M72.5211221,1004.2557 C72.5211221,998.833968 77.00033,994.49872 82.5693069,994.49872 C88.1382838,994.49872 92.6174917,998.833968 92.6174917,1004.2557 C92.6174917,1009.55576 88.1382838,1013.89314 82.5693069,1013.89314 C77.00033,1013.89314 72.5211221,1009.55576 72.5211221,1004.2557 Z M72.5211221,871.98046 C72.5211221,866.558731 77.00033,862.221348 82.5693069,862.221348 C88.1382838,862.221348 92.6174917,866.558731 92.6174917,871.98046 C92.6174917,877.28052 88.1382838,881.617903 82.5693069,881.617903 C77.00033,881.617903 72.5211221,877.28052 72.5211221,871.98046 Z M72.5211221,539.346735 C72.5211221,533.925006 77.00033,529.589758 82.5693069,529.589758 C88.1382838,529.589758 92.6174917,533.925006 92.6174917,539.346735 C92.6174917,544.646795 88.1382838,548.984178 82.5693069,548.984178 C77.00033,548.984178 72.5211221,544.646795 72.5211221,539.346735 Z M72.5211221,409.118521 C72.5211221,403.696792 77.00033,399.361544 82.5693069,399.361544 C88.1382838,399.361544 92.6174917,403.696792 92.6174917,409.118521 C92.6174917,414.41858 88.1382838,418.755963 82.5693069,418.755963 C77.00033,418.755963 72.5211221,414.41858 72.5211221,409.118521 Z M72.5211221,9.75697702 C72.5211221,4.33524838 77.00033,0 82.5693069,0 C88.1382838,0 92.6174917,4.33524838 92.6174917,9.75697702 C92.6174917,15.0570369 88.1382838,19.3944199 82.5693069,19.3944199 C77.00033,19.3944199 72.5211221,15.0570369 72.5211221,9.75697702 Z M77.3650165,72.7642944 C77.3650165,63.1268515 71.9140264,58.1875287 65.9825083,58.1875287 C60.0509901,58.1875287 54.7222772,63.1268515 54.7222772,72.7642944 C54.7222772,82.1605343 60.0509901,87.2193914 65.9825083,87.2193914 C71.9140264,87.2193914 77.3650165,82.1605343 77.3650165,72.7642944 Z M46.9759076,836.293105 L61.5033003,836.293105 L61.5033003,747.748165 L46.9759076,747.748165 L46.9759076,836.293105 Z M42.0118812,325.391235 C40.6775578,324.908829 39.2252475,324.548092 37.8952145,324.187355 C50.0006601,331.054166 63.9252475,343.46224 72.2787129,351.413398 C69.7366337,348.401563 66.829868,345.630932 64.0453795,342.860301 C58.4764026,337.679775 50.4854785,330.330558 42.0118812,325.391235 Z M30.8717822,219.859635 L73.8533003,251.060189 C75.0632013,247.92882 75.6681518,244.43458 75.6681518,240.820806 C75.6681518,225.883303 64.1676568,213.594763 48.4282178,213.594763 C41.5249175,213.594763 35.4732673,216.004658 30.8717822,219.859635 Z M26.6349835,662.829807 L25.3028053,662.829807 C30.3891089,664.033687 35.8358086,665.600438 40.9221122,667.045521 C46.4889439,667.286724 51.5752475,667.525792 55.0869637,667.647461 C46.4889439,666.202378 36.3206271,664.153221 26.6349835,662.829807 Z M66.4673267,261.42124 L23.2433993,229.979483 C21.9133663,233.352055 21.0660066,236.965829 21.0660066,240.820806 C21.0660066,255.758309 32.6887789,267.92518 48.4282178,267.92518 C55.569637,267.92518 61.7457096,265.51742 66.4673267,261.42124 Z M20.8235974,593.679286 C20.8235974,603.197195 27.8448845,609.822804 37.5305281,609.822804 C47.2161716,609.822804 53.6346535,603.197195 53.6346535,593.679286 C53.6346535,584.041844 47.2161716,577.535769 37.5305281,577.535769 C27.8448845,577.535769 20.8235974,584.041844 20.8235974,593.679286 Z M39.4676568,72.7642944 C39.4676568,64.5719343 34.6259076,59.6326115 28.9346535,59.6326115 C23.2433993,59.6326115 18.7663366,64.5719343 18.7663366,72.7642944 C18.7663366,80.9566544 23.2433993,85.7743086 28.9346535,85.7743086 C34.6259076,85.7743086 39.4676568,80.9566544 39.4676568,72.7642944 Z M21.5486799,366.833306 C17.3118812,364.784149 13.8023102,360.448901 11.2580858,355.629112 C9.68564356,353.701623 8.23118812,351.654601 7.14141914,349.485909 C8.23118812,356.352721 12.2277228,363.941006 18.8864686,366.231366 C19.7338284,366.592103 20.5811881,366.711637 21.5486799,366.833306 Z M6.05165017,1123.03851 L30.5092409,1135.92899 L30.5092409,1154 L6.05165017,1141.10952 L6.05165017,1123.03851 Z M6.05165017,1123.04065 L90.8026403,1123.04065 L90.8026403,1104.96964 L6.05165017,1104.96964 L6.05165017,1123.04065 Z M90.8026403,1066.78061 L23.3656766,1039.79577 L23.3656766,1078.46507 L6.05165017,1078.46507 L6.05165017,1015.09915 L90.8026403,1047.86646 L90.8026403,1066.78061 Z M6.05165017,908.36154 L23.3656766,908.36154 L23.3656766,946.670108 L42.3744224,946.670108 C42.3744224,912.094848 53.9971947,903.302683 67.799505,903.302683 C85.1113861,903.302683 92.6174917,916.914637 92.6174917,937.273868 C92.6174917,947.63492 90.560231,958.597911 85.8386139,965.584257 L42.3744224,965.584257 C65.1351485,965.584257 73.2483498,954.380063 73.2483498,938.358214 C73.2483498,926.55208 66.9521452,920.891283 59.4438944,920.891283 C52.7851485,920.891283 42.3744224,922.816637 42.3744224,950.283883 L42.3744224,965.584257 L6.05165017,965.584257 L6.05165017,908.36154 Z M6.05165017,447.188021 L23.3656766,447.188021 L23.3656766,484.051506 L36.9255776,484.531778 C36.3206271,481.882815 35.4732673,477.545432 35.4732673,472.606109 C35.4732673,452.970486 44.7942244,441.644623 64.65033,441.644623 C81.2371287,441.644623 92.6174917,453.331223 92.6174917,473.208049 C92.6174917,494.049686 81.2371287,505.373415 62.1082508,505.495084 L62.1082508,487.424078 C72.6412541,487.302409 76.8780528,480.798469 76.8780528,472.847312 C76.8780528,464.896155 72.2787129,460.198035 63.5605611,460.198035 C56.2968647,460.198035 49.2755776,463.0882 49.2755776,474.172861 C49.2755776,479.353386 50.4854785,483.327898 52.3024752,486.339732 L52.3024752,502.000843 L6.05165017,500.434092 L6.05165017,447.188021 Z M6.05165017,150.226709 L30.5092409,163.117189 L30.5092409,181.18606 L6.05165017,168.297715 L6.05165017,150.226709 Z M6.05165017,150.226709 L90.8026403,150.226709 L90.8026403,132.155703 L6.05165017,132.155703 L6.05165017,150.226709 Z M57.1442244,567.055184 L90.8026403,589.461438 L90.8026403,608.979661 L70.0991749,595.967512 C69.0094059,613.556112 55.449505,626.324923 37.5305281,626.324923 C18.1592409,626.324923 4.23679868,611.750292 4.23679868,593.679286 C4.23679868,575.608281 18.1592409,561.031515 37.5305281,561.031515 C45.1589109,561.031515 51.8176568,563.321875 57.1442244,567.055184 Z M4.23679868,240.820806 C4.23679868,216.606597 23.4858086,196.849306 48.4282178,196.849306 C73.3684818,196.849306 92.6174917,216.606597 92.6174917,240.820806 C92.6174917,265.035015 73.3684818,284.792306 48.4282178,284.792306 C23.4858086,284.792306 4.23679868,265.035015 4.23679868,240.820806 Z M46.7334983,91.4372401 C42.9793729,97.94118 37.0478548,102.400232 28.449835,102.400232 C12.8326733,102.400232 4.23679868,88.54494 4.23679868,72.7642944 C4.23679868,55.1756944 13.3174917,43.008823 28.449835,43.008823 C37.0478548,43.008823 42.9793729,47.2245372 46.7334983,53.6089429 C50.6056106,45.8989886 57.1442244,41.0813344 66.4673267,41.0813344 C82.5693069,41.0813344 92.6174917,54.0913486 92.6174917,72.7642944 C92.6174917,90.2333602 82.5693069,104.447254 66.4673267,104.447254 C57.0240924,104.447254 50.4854785,99.1471944 46.7334983,91.4372401 Z M2.78234323,692.585278 C2.78234323,690.416587 4.59933993,688.730301 6.65874587,688.730301 C7.98877888,688.730301 9.56336634,689.692978 10.5330033,690.536121 L10.4107261,690.416587 C15.859571,692.585278 22.1557756,692.704812 27.9671617,692.704812 C31.9615512,692.704812 36.0782178,692.585278 40.1948845,692.463609 C31.7191419,690.416587 23.0031353,687.524286 13.3174917,683.549775 C9.92590759,682.224226 1.81485149,679.936001 1.81485149,675.237881 C1.81485149,673.188724 3.62970297,671.382904 5.68910891,671.382904 C9.56336634,671.382904 13.9224422,672.345581 17.7966997,672.827987 C26.6349835,673.912332 35.3531353,675.116212 44.1892739,675.959355 C42.8592409,675.598618 41.4047855,675.116212 39.710066,674.633806 C23.850495,673.671129 7.02128713,671.502438 3.99438944,667.286724 C3.62970297,666.804318 3.38943894,665.839506 3.38943894,665.237566 C3.38943894,663.672949 4.11666667,662.588604 5.20429043,661.864995 C3.87425743,661.141386 3.02689769,659.937506 3.02689769,658.370755 C3.02689769,653.913838 9.07854785,654.033372 12.2277228,654.033372 C17.3118812,654.033372 22.5183168,654.637447 27.7247525,655.358921 C37.8952145,655.358921 48.0635314,655.721792 58.2339934,657.047341 C67.799505,658.251221 77.120462,661.743326 86.8061056,661.743326 C88.0181518,661.743326 89.1079208,661.141386 90.1976898,661.141386 C92.3772277,661.141386 94.0719472,662.949341 94.0719472,664.516092 C97.3412541,664.996364 100.245875,665.478769 101.455776,666.080709 C102.667822,666.804318 103.392904,668.129867 103.392904,669.455415 C103.392904,670.778829 102.667822,672.104378 101.455776,672.827987 C99.1561056,674.153535 90.560231,674.755475 82.3268977,675.116212 C87.4132013,675.598618 94.4344884,676.200558 95.4041254,676.802498 C96.6140264,677.404438 97.3412541,678.729986 97.3412541,680.055535 C97.3412541,684.753655 92.1348185,684.875324 88.8655116,685.114392 C86.2011551,685.357729 83.6590759,685.477264 81.1169967,685.477264 C65.0150165,685.477264 48.6706271,684.512452 32.6887789,682.465429 C48.3059406,687.404752 64.4079208,689.091038 80.6321782,689.573444 C83.5367987,689.451775 86.4435644,689.332241 89.35033,689.332241 C91.8924092,689.332241 100.125743,689.332241 102.062871,690.416587 C103.272772,691.138061 104,692.463609 104,693.789158 C104,695.836181 102.183003,697.644135 100.125743,697.644135 C93.1023102,697.644135 86.5658416,697.524601 80.269637,697.402932 C76.8780528,697.524601 73.4886139,697.885338 70.0991749,698.126541 C56.0544554,699.089218 42.0118812,700.414766 27.9671617,700.414766 C22.8808581,700.414766 2.78234323,700.054029 2.78234323,692.585278 Z M91.1651815,368.278389 C92.4973597,370.688283 93.7094059,373.098178 93.7094059,374.060855 C93.7094059,375.868809 92.1348185,377.313892 90.440099,377.313892 C89.35033,377.313892 88.3806931,376.953155 87.6534653,376.229546 C86.6859736,376.110012 85.7184818,375.74714 85.1113861,375.025666 C84.1438944,374.060855 83.9014851,373.098178 83.1764026,372.013832 C81.7219472,370.086343 79.9070957,368.158855 78.2123762,366.470435 C66.9521452,354.425232 40.3171617,329.367881 24.6978548,325.87364 C24.2130363,325.754106 23.6080858,325.754106 23.1232673,325.754106 C15.1323432,325.754106 13.0750825,331.897309 13.0750825,338.642452 C13.0750825,342.619098 14.1648515,347.076015 16.1019802,351.172195 C18.5217822,354.06236 21.3084158,356.593923 24.0929043,357.917337 C27.119802,359.484089 30.3891089,359.001683 33.5361386,359.844826 C34.6259076,360.086029 35.7135314,360.568435 36.4407591,361.411578 C37.1679868,362.013518 37.5305281,362.85666 37.5305281,363.821472 C37.5305281,364.905818 36.9255776,366.109698 35.9580858,366.592103 C35.2308581,366.95284 33.4138614,367.313577 31.5990099,367.676449 C31.9615512,368.278389 32.2039604,368.880329 32.2039604,369.603938 C32.2039604,373.458915 27.239934,373.458915 24.5777228,373.458915 C21.9133663,373.458915 19.2490099,373.217712 16.7069307,372.374569 C6.05165017,368.760795 2.84217094e-14,354.785969 2.84217094e-14,344.305383 C2.84217094e-14,332.258046 0.725082508,323.946152 10.8955446,316.477401 C14.64967,313.706769 20.5811881,313.102695 25.060396,313.102695 C31.2364686,313.102695 37.8952145,315.634258 44.1892739,319.126363 C56.9018152,323.103009 69.6143564,331.054166 78.6950495,340.691609 C78.6950495,339.607263 78.5727723,338.522918 78.4526403,337.316903 C77.3650165,329.246212 75.790429,321.536258 75.790429,313.224363 C75.790429,311.779281 76.1529703,310.212529 76.3953795,308.767446 C75.9105611,308.406709 75.6681518,307.081161 75.6681518,306.598755 C75.6681518,304.912469 77.00033,303.467386 78.5727723,302.984981 C79.179868,300.696755 80.389769,298.888801 82.5693069,298.888801 C84.2640264,298.888801 85.8386139,300.453417 85.8386139,302.141838 C85.8386139,302.863312 85.4760726,303.947658 84.8711221,304.430063 C84.8711221,304.671266 84.7488449,304.7908 84.7488449,305.032003 C85.5962046,304.069326 87.0485149,303.467386 88.2605611,303.467386 C91.65,303.467386 92.6174917,307.081161 92.6174917,309.730123 C92.6174917,314.428243 91.1651815,318.88516 90.8026403,323.463746 C90.560231,326.957986 90.8026403,330.691295 90.6825083,334.307203 C90.560231,342.017158 90.1976898,349.846646 90.1976898,357.5566 C90.1976898,361.292043 90.560231,364.784149 91.1651815,368.278389 Z" transform="rotate(90 1789 1814)"/>
    <g fill="#000000" transform="rotate(-90 1899 -1784)">
      <polygon points="87 0 2 37.294 2 78.706 87 116 87 96.627 17.786 66.235 17.786 49.766 87 19.374"/>
      <path d="M71.9923793,234.590758 L48.0353678,234.590758 L48.0353678,243.830032 C48.0353678,255.256611 52.2705402,261.335116 59.8935862,261.335116 C67.8788161,261.335116 71.9923793,255.135758 71.9923793,243.343964 L71.9923793,234.590758 Z M86.5114598,243.221783 C86.5114598,262.186399 79.7357126,279.083233 59.8935862,279.083233 C39.4447356,279.083233 34.241977,262.186399 34.241977,243.707851 L34.241977,234.955973 L17.5445057,278.962381 L-0.000264367816,278.962381 L16.8188161,234.590758 L1.81462069,234.590758 L1.81462069,216.356573 L86.5114598,216.356573 L86.5114598,243.221783 Z M1.81462069,181.71162 L30.0068046,171.012815 L30.0068046,143.539356 L1.81462069,133.084912 L1.81462069,115.945043 L90.7466322,148.766577 L66.7896207,157.154568 L45.7366897,149.374826 L45.7366897,165.056491 L66.7896207,157.154568 L90.8682414,166.393842 L1.81462069,199.945806 L1.81462069,181.71162 Z"/>
      <polygon points="1.813 356.398 26.375 349.347 26.375 314.701 1.813 307.649 1.813 290.63 86.511 315.065 86.511 332.084 42.105 319.32 42.105 344.849 86.511 332.084 86.511 350.319 1.813 374.632"/>
      <path d="M97.0383218 406.965433L114.219586 396.024922 114.219586 412.071802 97.1586092 422.040178 114.219586 432.008553 114.219586 447.812399 97.0383218 436.87056 97.0383218 406.965433zM17.5429195 386.177399L70.7813103 431.400304 70.7813103 388.609067 86.5111954 388.609067 86.5111954 453.039621 70.7813103 453.039621 17.5429195 407.816716 17.5429195 453.039621 1.81303448 453.039621 1.81303448 386.177399 17.5429195 386.177399zM17.5426552 499.717144C17.5426552 520.262144 29.8846667 528.28492 44.1618506 528.28492 58.4390345 528.28492 70.781046 520.262144 70.781046 499.717144L70.781046 493.031719 17.5426552 493.031719 17.5426552 499.717144zM86.510931 474.796205L86.510931 499.717144C86.510931 529.744452 69.0877701 547.735603 44.1618506 547.735603 19.235931 547.735603 1.81277011 529.744452 1.81277011 499.717144L1.81277011 474.796205 86.510931 474.796205zM87.1173908 692.882642C87.1173908 697.866829 83.4876207 701.999734 78.0429655 701.999734L10.2854943 701.999734C4.71922989 701.999734 1.20974713 697.866829 1.20974713 692.882642 1.20974713 688.020635 4.71922989 683.765549 10.2854943 683.765549L78.0429655 683.765549C83.4876207 683.765549 87.1173908 688.020635 87.1173908 692.882642zM77.801069 662.126232L1.81514943 683.765549 1.81514943 678.173112C1.81514943 667.961703 5.20302299 664.5579 9.80037931 663.220549L86.5119885 641.460379 86.5119885 650.821834C86.5119885 657.62944 83.8498046 660.424995 77.801069 662.126232zM87.1173908 632.343286C87.1173908 637.327474 83.4876207 641.460379 78.0429655 641.460379L10.2854943 641.460379C4.71922989 641.460379 1.20974713 637.327474 1.20974713 632.343286 1.20974713 627.48128 4.71922989 623.226194 10.2854943 623.226194L78.0429655 623.226194C83.4876207 623.226194 87.1173908 627.48128 87.1173908 632.343286zM5.44491954 575.209062L82.8822184 575.209062 82.8822184 563.660302 86.5119885 563.660302 86.5119885 604.993336 82.8822184 604.993336 82.8822184 593.444576 5.44491954 593.444576 5.44491954 604.993336 1.81514943 604.993336 1.81514943 563.660302 5.44491954 563.660302 5.44491954 575.209062z"/>
    </g>
    <g transform="translate(0 28)">
      <polygon fill="#1D1D1B" points="152.678 32.356 152.678 37.726 165.018 37.726 156.407 58.644 162.443 58.644 172.9 32.356"/>
      <path fill="#000000" d="M293.393438,46.3351917 C304.739626,46.3351917 311.275878,40.431983 311.275878,31.9465898 C311.275878,22.5998908 304.739626,18.1726286 293.393438,18.1726286 L223.589415,18.1726286 L223.589415,2.18503641 L290.310399,2.18503641 C314.6057,2.18503641 329.158897,10.916517 329.158897,31.9465898 C329.158897,50.0247694 314.358918,62.322784 290.310399,62.322784 L242.088811,62.322784 L242.088811,88.271716 L223.589415,88.271716 L223.589415,46.3351917 L293.393438,46.3351917 Z M162.543843,72.8993422 C177.836808,72.8993422 190.416328,61.2159684 190.416328,45.2283762 C190.416328,29.240784 177.836808,17.4343665 162.543843,17.4343665 C147.251458,17.4343665 134.795329,29.240784 134.795329,45.2283762 C134.795329,61.2159684 147.251458,72.8993422 162.543843,72.8993422 Z M162.543843,0.340536408 C187.333288,0.340536408 207.559,19.8946626 207.559,45.2283762 C207.559,70.5626675 187.333288,90.1167937 162.543843,90.1167937 C137.754978,90.1167937 117.529265,70.5626675 117.529265,45.2283762 C117.529265,19.8946626 137.754978,0.340536408 162.543843,0.340536408 Z M18.4995114,88.271716 L0.000115860184,88.271716 L0.000115860184,2.18503641 L11.7164769,2.18503641 C35.0252287,2.18503641 50.6877876,21.9846723 50.6877876,54.4520316 C50.6877876,21.9846723 66.4737376,2.18503641 89.6596775,2.18503641 L101.49943,2.18503641 L101.49943,88.271716 L83.0000342,88.271716 L83.0000342,22.1082937 C63.7608714,22.1082937 50.6877876,35.2670364 50.6877876,54.4520316 C50.6877876,76.7113859 64.7474208,88.271716 83.0000342,88.271716 L18.4995114,88.271716 C36.6287336,88.271716 50.6877876,76.7113859 50.6877876,54.4520316 C50.6877876,35.2670364 37.7386741,22.1082937 18.4995114,22.1082937 L18.4995114,88.271716 Z"/>
    </g>
    <path fill="#000000" d="M669.208134,48.7590263 L669.208134,26.9701358 L686.285886,26.9701358 L686.285886,48.7590263 L698.651492,48.7590263 L698.651492,62.8924423 L686.285886,62.8924423 L686.285886,109.413552 L669.208134,109.413552 L669.208134,62.8924423 L656.841521,62.8924423 L656.841521,48.7590263 L669.208134,48.7590263 Z M640.000485,50.996238 C604.079185,53.1166029 632.580718,111.180355 585.823901,111.180355 C573.928704,111.180355 569.217565,105.879946 569.217565,99.6377124 C569.217565,93.5133328 573.81085,89.3914642 579.463813,89.3914642 C584.998923,89.3914642 589.711069,93.5133328 589.711069,99.6377124 C589.711069,104.820267 586.294309,108.471727 582.055594,108.942136 C615.150412,106.822778 588.061112,48.7590263 634.818937,48.7590263 C647.18555,48.7590263 652.13139,54.1762818 652.13139,60.6542234 C652.13139,66.1893328 648.009521,70.9004715 642.002996,70.9004715 C636.114324,70.9004715 631.874601,66.1893328 631.874601,60.6542234 C631.874601,55.5895226 635.054645,51.585508 640.000485,50.996238 Z M519.869974,77.3784131 L545.427171,69.3693766 C545.427171,65.365362 541.776718,62.1853182 534.473799,62.1853182 C525.405083,62.1853182 519.869974,67.485727 519.869974,77.2605591 L519.869974,77.3784131 Z M534.121244,111.180355 C518.809288,111.180355 503.735054,99.9912745 503.735054,78.791654 C503.735054,58.1813036 518.809288,46.9922234 534.121244,46.9922234 C551.197988,46.9922234 565.095696,58.6517124 565.095696,77.3784131 L519.869974,77.3784131 C519.987828,89.9807343 530.469784,95.3979898 542.247127,95.3979898 C554.378032,95.3979898 565.095696,90.215435 565.095696,77.3784131 C565.095696,99.9912745 550.726572,111.180355 534.121244,111.180355 Z M448.60355,48.7590263 C448.60355,26.8522818 462.147696,17.1953036 479.931565,17.1953036 C485.349828,17.1953036 491.709915,18.4906905 496.067492,21.0814642 L496.067492,48.7590263 C496.067492,38.3949241 488.76558,32.8588073 479.931565,32.8588073 C471.098558,32.8588073 465.092032,38.3949241 465.092032,48.7590263 L496.067492,48.7590263 L496.067492,62.8924423 L482.169784,62.8924423 L482.169784,109.413552 L465.092032,109.413552 L465.092032,62.8924423 L451.901448,62.8924423 C449.898937,59.2409825 448.60355,54.0584277 448.60355,48.7590263 Z M445.070952,48.7590263 L445.070952,62.8924423 L419.1612,62.8924423 L419.1612,109.413552 L402.083448,109.413552 L402.083448,48.7590263 L445.070952,48.7590263 Z M366.162149,109.413552 L383.239901,109.413552 L383.239901,48.7590263 L366.162149,48.7590263 L366.162149,109.413552 Z M374.642601,19.3146613 C379.94301,19.3146613 384.182733,23.672238 384.182733,29.0905007 C384.182733,34.5077562 379.94301,38.8653328 374.642601,38.8653328 C369.461054,38.8653328 365.220324,34.5077562 365.220324,29.0905007 C365.220324,23.672238 369.461054,19.3146613 374.642601,19.3146613 Z M329.064324,111.180355 C311.515156,107.528895 301.976032,101.169815 301.976032,87.0363985 C301.976032,71.7254496 312.457988,59.1231285 329.064324,47.1100774 L352.148601,51.585508 L346.25993,66.7786029 L327.651083,52.9987489 C321.99812,61.7139022 319.642047,72.6672745 319.642047,83.7385007 C319.642047,94.809727 324.235331,102.582048 329.888295,106.351362 L351.559331,91.3939752 L353.796543,94.1026029 L329.064324,111.180355 Z M289.491565,109.413552 L272.41482,109.413552 L272.41482,79.1452161 C272.41482,69.7229387 270.412309,63.1271431 262.285419,63.1271431 C253.570266,63.1271431 250.272368,69.3693766 250.154514,78.6738 L250.154514,78.791654 L250.154514,78.6738 C250.272368,59.8292453 257.221726,46.9922234 270.882718,46.9922234 C285.48755,46.9922234 289.491565,58.1813036 289.491565,75.8473182 L289.491565,109.413552 Z M233.076762,109.413552 L250.154514,109.413552 L250.154514,48.7590263 L233.076762,48.7590263 L233.076762,109.413552 Z M177.016528,94.3383109 C177.016528,96.8112307 178.547623,100.109128 183.964879,100.109128 C194.329988,100.109128 198.216149,91.1582672 198.334003,81.8538438 L198.334003,81.5002818 C191.973915,87.5068073 177.016528,85.2695956 177.016528,94.3383109 Z M189.147434,46.9922234 C210.582762,46.9922234 215.411755,58.6517124 215.411755,72.1958584 L215.411755,109.413552 L198.334003,109.413552 L198.334003,81.5002818 L198.334003,81.8538438 C198.098295,105.173829 187.144923,111.180355 176.78082,111.180355 C163.942791,111.180355 159.820923,103.289172 159.820923,95.5158438 C159.820923,71.2540336 198.334003,77.2605591 198.334003,67.132165 C198.334003,62.8924423 194.800397,59.9481066 188.322455,59.9481066 C179.960864,59.9481066 177.134382,64.893946 177.134382,68.5454058 L161.234164,68.5454058 C162.52955,55.7073766 170.538587,46.9922234 189.147434,46.9922234 Z M99.9913752,78.791654 C99.9913752,88.2139314 106.469317,95.0444277 115.77374,95.0444277 C125.078164,95.0444277 131.555098,88.2139314 131.555098,78.791654 C131.555098,69.3693766 125.078164,63.1271431 115.77374,63.1271431 C106.469317,63.1271431 99.9913752,69.3693766 99.9913752,78.791654 Z M123.781769,46.9922234 C139.681988,46.9922234 147.691025,60.5363693 147.691025,78.791654 C147.691025,97.6362088 138.974864,111.180355 123.781769,111.180355 C109.295799,111.180355 99.9913752,97.6362088 99.9913752,78.791654 C99.9913752,59.9481066 109.295799,46.9922234 123.781769,46.9922234 Z M82.9136234,137.679377 L99.9913752,137.679377 L99.9913752,48.7590263 L82.9136234,48.7590263 L82.9136234,137.679377 Z M59.5946453,70.7826175 C59.4767912,47.3457854 49.7009518,39.2188949 33.3303241,39.3367489 C23.0840759,39.3367489 17.5489664,42.8703547 17.5489664,48.9947343 C17.5489664,62.5388803 46.1683533,58.5338584 59.5946453,70.7826175 Z M18.7264993,16.7238876 L8.12668905,-0.000302189781 L23.673346,-0.000302189781 L33.3303241,16.6060336 L42.9883095,-0.000302189781 L58.2992584,-0.000302189781 L47.6994482,16.7238876 L18.7264993,16.7238876 Z M4.35737518,63.7164131 C4.4752292,83.2670847 14.2510686,97.0469387 34.3910102,97.0469387 C43.4597255,97.0469387 48.759127,93.7490409 48.759127,87.5068073 C48.876981,72.1958584 16.3714336,79.4987781 4.35737518,63.7164131 Z M59.5946453,70.7826175 C63.7165139,74.5519314 66.4251416,79.7334788 66.4251416,87.5068073 C66.5440029,102.465201 52.5284409,111.180355 33.4481781,111.180355 C18.3729372,111.180355 10.7174628,108.588574 4.35737518,104.702413 L4.35737518,63.7164131 C1.64874745,60.1828073 -0.000201459854,55.3548219 -0.000201459854,48.9947343 C-0.000201459854,36.5102672 11.4245869,25.2033328 32.3884993,25.2033328 C44.2836964,25.2033328 54.1773898,26.6165737 59.5946453,29.4430555 L59.5946453,70.7826175 Z" transform="translate(410 7)"/>
  </g>
</svg>
