<svg xmlns="http://www.w3.org/2000/svg" width="421" height="118" viewBox="0 0 421 118" xmlns:xlink="http://www.w3.org/1999/xlink">
  <defs>
    <polygon id="a" points="0 .327 420.734 .327 420.734 117.015 0 117.015"/>
  </defs>
  <g fill="none" fill-rule="evenodd">
    <g transform="translate(0 .14)">
      <mask id="b" fill="white">
        <use xlink:href="#a"/>
      </mask>
      <path fill="#000000" d="M375.018906,60.1097528 C389.521488,60.1097528 397.87684,52.4373739 397.87684,41.4075557 C397.87684,29.2593411 389.521488,23.5053382 375.018906,23.5053382 L285.794184,23.5053382 L285.794184,2.72499406 L371.077577,2.72499406 C402.133298,2.72499406 420.733664,14.0743541 420.733664,41.4075557 C420.733664,64.9051303 401.817059,80.8900969 371.077577,80.8900969 L309.439939,80.8900969 L309.439939,114.61751 L285.794184,114.61751 L285.794184,60.1097528 L375.018906,60.1097528 Z M207.76541,94.6371457 C227.313382,94.6371457 243.391608,79.4510336 243.391608,58.6706895 C243.391608,37.8914706 227.313382,22.5455876 207.76541,22.5455876 C188.218548,22.5455876 172.296777,37.8914706 172.296777,58.6706895 C172.296777,79.4510336 188.218548,94.6371457 207.76541,94.6371457 Z M207.76541,0.327305328 C239.451388,0.327305328 265.304155,25.7421308 265.304155,58.6706895 C265.304155,91.5992482 239.451388,117.015199 207.76541,117.015199 C176.080542,117.015199 150.227775,91.5992482 150.227775,58.6706895 C150.227775,25.7421308 176.080542,0.327305328 207.76541,0.327305328 Z M23.6458663,114.61751 L0.000110960842,114.61751 L0.000110960842,2.72499406 L14.9753862,2.72499406 C44.7694818,2.72499406 64.7901465,28.4604865 64.7901465,70.6591332 C64.7901465,28.4604865 84.9683756,2.72499406 114.603797,2.72499406 L129.737746,2.72499406 L129.737746,114.61751 L106.090881,114.61751 L106.090881,28.6202575 C81.4997396,28.6202575 64.7901465,45.7236204 64.7901465,70.6591332 C64.7901465,99.5922941 82.7602548,114.61751 106.090881,114.61751 L23.6458663,114.61751 C46.8189285,114.61751 64.7901465,99.5922941 64.7901465,70.6591332 C64.7901465,45.7236204 48.2381177,28.6202575 23.6458663,28.6202575 L23.6458663,114.61751 Z" mask="url(#b)"/>
    </g>
    <polygon fill="#1D1D1B" points="195.383 41.268 195.383 48.39 211.151 48.39 200.148 76.134 207.86 76.134 221.22 41.268"/>
  </g>
</svg>
