<?xml version="1.0" standalone="no"?> <!DOCTYPE svg PUBLIC "-//W3C//DTD SVG 1.0//EN" "http://www.w3.org/TR/2001/REC-SVG-20010904/DTD/svg10.dtd" > <svg xmlns="http://www.w3.org/2000/svg" width="100%" height="100%">
<defs >
<font horiz-adv-x="580" ><font-face
    font-family=""
    units-per-em="1000"
    panose-1="0 0 0 9 0 0 0 0 0 0"
    ascent="781"
    descent="-219"
    alphabetic="0" />
<missing-glyph />
<glyph unicode=" " glyph-name="space" />
<glyph unicode="!" glyph-name="exclam" d="M224 623Q222 643 226 658T240 682T262 697T289 702Q316 702 337 683T354 623L307 209H271L224 623ZM289 -6Q259 -6 238 14T217 64Q217 93 238 114T289 135Q320 135 341 114T362 64Q362 35 341 15T289 -6Z" />
<glyph unicode="&quot;" glyph-name="quotedbl" d="M145 624Q140 646 144 661T156 685T177 699T202 704Q214 704 226 700T247 686T260 661T260 624L221 407H188L145 624ZM321 624Q313 667 332 685T378 704Q390 704 402 700T423 686T436 661T436 624L392 407H359L321 624Z" />
<glyph unicode="#" glyph-name="numbersign" d="M332 270L365 426H246L214 270H332ZM145 196H27L39 270H161L193 426H76L88 500H210L251 693H303L263 500H381L422 693H475L434 500H553L541 426H418L385 270H504L492 196H369L328 0H275L316 196H197L157 0H104L145 196Z" />
<glyph unicode="$" glyph-name="dollar" d="M159 551Q159 530 164 513T181 480T212 452T261 423V656Q210 649 185 621T159 551ZM416 154Q416 175 411 193T394 227T362 258T309 289V32Q369 38 392 71T416 154ZM261 -140V-13Q151 -8 101 29T51 115Q51 138 66 151T102
164Q131 164 144 151T163 90Q165 76 169 66T183 48T211 36T261 31V310Q211 332 176 353T118 400T85 454T74 519Q74 554 88 585T127 640T186 680T261 700V784H309V701Q357 699 391 688T448 662T482 628T493 591Q493 568 478 554T439 539Q407 539 397 555T382 610Q379
636 365 646T309 658V401Q362 377 399 354T461 306T496 252T507 186Q507 144 492 109T451 48T388 7T309 -12V-140H261Z" />
<glyph unicode="%" glyph-name="percent" d="M159 365Q133 365 109 375T66 407T36 458T24 528Q24 570 36 603T68 658T112 691T162 703Q187 703 211 693T255 661T286 609T298 538Q298 496 286 464T253 410T208 377T159 365ZM501 694H560L71 -20H12L501 694ZM160
400Q193 400 204 432T216 528Q216 597 205 633T160 669Q128 669 117 636T106 539Q106 471 117 436T160 400ZM417 -14Q391 -14 367 -4T324 28T294 79T282 149Q282 191 294 224T326 279T370 312T420 324Q445 324 469 314T513 282T544 230T556 159Q556 117 544 85T511
31T466 -2T417 -14ZM418 21Q451 21 462 53T474 149Q474 218 463 254T418 290Q386 290 375 257T364 160Q364 92 375 57T418 21Z" />
<glyph unicode="&amp;" glyph-name="ampersand" d="M257 424Q293 453 312 483T331 563Q331 593 327 611T314 641T294 656T271 660Q241 660 225 637T209 574Q209 534 223 497T257 424ZM250 36Q281 36 304 50T341 85Q297 153 257 222T182 357Q158 326 146 289T133
199Q133 127 163 82T250 36ZM224 -13Q168 -13 131 5T71 51T39 113T29 179Q29 217 40 248T70 304T113 349T165 388Q143 429 133 464T123 537Q123 576 135 607T168 660T215 693T270 705Q297 705 322 697T366 672T396 630T407 569Q407 510 370 470T275 394Q304 343
337 284T406 164Q424 206 431 240T439 295Q439 316 433 324T413 336L388 342V372H556V342L534 334Q517 328 503 318T481 281Q473 255 462 216T431 129Q445 109 455 94T476 67Q484 59 493 52T515 42L549 31V0H401Q393 11 385 25T368 52Q342 25 307 6T224 -13Z" />
<glyph unicode="&apos;" glyph-name="quotesingle" d="M232 624Q228 646 232 661T244 685T265 699T290 704Q302 704 314 700T335 686T347 661T347 624L307 407H274L232 624Z" />
<glyph unicode="(" glyph-name="parenleft" d="M438 -141Q388 -108 340 -65T252 34T189 157T165 305Q165 378 189 444T252 565T339 666T438 745L464 717Q421 680 385 636T321 542T279 437T264 322Q264 244 279 180T321 63T384 -33T464 -113L438 -141V-141Z" />
<glyph unicode=")" glyph-name="parenright" d="M141 745Q190 712 239 669T327 570T390 448T414 300Q414 226 390 161T327 39T239 -62T141 -141L115 -113Q158 -76 194 -32T258 62T300 167T315 282Q315 360 300 424T258 541T195 637T115 717L141 745V745Z" />
<glyph unicode="*" glyph-name="asterisk" d="M180 374Q164 385 161 406T182 446L274 516L158 527Q129 531 120 547T117 582Q123 599 140 606T184 598L277 540L250 647Q242 678 256 691T290 704Q309 704 322 691T328 647L301 540L395 598Q421 613 438 606T462
579Q468 562 459 547T421 527L305 516L396 446Q408 437 413 427T417 406T411 388T397 374Q382 364 364 367T333 399L291 502L245 399Q232 372 214 368T180 374Z" />
<glyph unicode="+" glyph-name="plus" d="M258 310H87V366H258V555H323V366H494V310H323V121H258V310Z" />
<glyph unicode="," glyph-name="comma" d="M149 -165Q194 -146 224 -124T272 -80T297 -34T304 13Q300 9 291 5T270 1Q234 1 216 23T198 78Q198 113 223 134T281 155Q329 155 358 123T387 31Q387 -1 375 -35T336 -101T266 -159T162 -199L149 -165Z" />
<glyph unicode="-" glyph-name="hyphen" d="M160 328H430L421 254H151L160 328Z" />
<glyph unicode="." glyph-name="period" d="M289 -11Q254 -11 230 12T205 71Q205 88 211 103T229 130T256 148T289 155Q325 155 350 131T375 71Q375 36 350 13T289 -11Z" />
<glyph unicode="/" glyph-name="slash" d="M430 734H492L130 -130H69L430 734Z" />
<glyph unicode="0" glyph-name="zero" d="M288 -12Q247 -12 203 7T123 67T63 175T39 335Q39 434 63 504T124 618T206 684T292 705Q333 705 377 686T457 624T517 516T541 354Q541 256 517 187T456 73T374 9T288 -12ZM290 35Q363 35 395 105T427 335Q427 504 395
581T290 659Q218 659 186 588T153 354Q153 187 185 111T290 35Z" />
<glyph unicode="1" glyph-name="one" d="M118 31L198 42Q210 43 218 46T231 57T238 75T240 106V565H119V596Q189 610 238 636T323 701L350 695V106Q350 87 351 76T357 57T368 47T389 42L464 31V0H118V31Z" />
<glyph unicode="2" glyph-name="two" d="M53 53Q84 78 114 104T173 156T225 206T268 250Q298 283 322 312T362 371T388 436T397 514Q397 555 387 583T359 630T319 656T273 664Q251 664 237 661T215 652T202 637T197 616Q193 583 179 565T135 546Q105 546 91 562T77
603Q77 622 90 640T129 673T193 696T283 705Q331 705 372 693T444 656T491 594T509 507Q509 452 480 399T403 294T291 192T160 92V88H391Q412 88 425 90T448 101T467 124T490 166H518L502 0H53V53Z" />
<glyph unicode="3" glyph-name="three" d="M234 -12Q145 -12 94 14T42 90Q42 109 55 127T98 146Q144 146 160 100Q166 79 170 65T181 44T202 33T242 30Q280 30 307 43T351 78T376 130T384 194Q384 261 353 299T239 337H184V383H229Q301 383 333 418T365 527Q365
596 333 630T243 664Q212 664 199 656T182 613Q175 549 123 549Q94 549 81 567T67 604Q67 629 84 648T128 679T189 698T259 705Q312 705 352 692T419 657T459 604T473 539Q473 481 434 434T304 366V363Q398 353 447 309T497 190Q497 151 481 115T433 51T351 5T234
-12Z" />
<glyph unicode="4" glyph-name="four" d="M244 31L290 40Q299 41 304 44T314 53T319 70T321 100V199H39V244L371 693H422V259H522L511 199H422V100Q422 81 423 70T427 53T437 45T454 40L502 31V0H244V31ZM321 259V552H318L106 261V259H321Z" />
<glyph unicode="5" glyph-name="five" d="M248 -12Q209 -12 176 -6T118 13T79 45T64 89Q64 108 78 127T121 146Q147 146 163 134T186 86Q189 69 192 58T203 41T221 33T252 30Q337 30 376 73T416 195Q416 238 402 268T364 317T306 344T235 353Q198 353 167 348T116
335L109 341L148 693H412Q422 693 428 694T440 701T452 717T467 745H496L478 605H190L167 431Q184 436 205 440T264 444Q312 444 356 432T434 392T488 324T508 225Q508 170 487 126T429 52T346 5T248 -12Z" />
<glyph unicode="6" glyph-name="six" d="M304 -12Q249 -12 203 8T122 68T69 164T50 294Q50 403 79 481T155 608T260 681T376 705Q409 705 437 700T485 685T518 659T530 622Q530 599 516 584T475 569Q446 569 432 583T410 626Q405 643 396 653T357 664Q326 664
294 648T234 597T187 504T164 364Q193 387 233 404T327 422Q373 422 410 408T474 366T515 299T530 210Q530 158 512 117T463 47T391 3T304 -12ZM304 35Q339 35 361 45T397 75T415 126T420 197Q420 280 391 324T296 369Q256 369 224 358T163 326Q163 320 163 318T162
315T162 311T162 301Q162 254 166 207T184 121T226 59T304 35Z" />
<glyph unicode="7" glyph-name="seven" d="M158 0Q182 99 215 185T286 345T366 484T449 606H161Q147 606 139 604T124 594T111 573T96 538H66L84 693H523V643Q474 571 435 500T364 351T310 188T269 0H158V0Z" />
<glyph unicode="8" glyph-name="eight" d="M290 -13Q248 -13 205 -3T128 29T71 84T49 165Q49 194 61 221T94 271T143 316T203 354V357Q145 389 113 428T80 523Q80 561 96 594T141 652T209 691T294 705Q333 705 371 695T438 665T485 615T503 546Q503 519 493 495T464
450T421 409T369 373V370Q406 349 435 330T485 289T517 242T528 185Q528 146 511 110T462 47T387 3T290 -13ZM338 393Q351 406 365 421T390 454T408 494T416 543Q416 603 383 631T290 659Q232 659 199 630T166 555Q166 528 181 506T221 463T277 426T338 393ZM296
34Q364 34 400 67T437 153Q437 183 420 207T374 253T309 295T233 336Q219 324 203 309T172 274T149 230T140 174Q140 103 183 69T296 34Z" />
<glyph unicode="9" glyph-name="nine" d="M276 659Q241 659 219 649T183 618T165 567T160 496Q160 413 189 369T284 324Q324 324 356 335T417 367Q417 373 417 375T418 378T418 382T418 392Q418 439 414 486T396 572T354 635T276 659ZM276 705Q331 705 377 685T458
625T511 529T530 399Q530 290 503 212T430 85T326 12T208 -12Q175 -12 147 -7T99 8T67 34T55 71Q55 94 69 109T109 124Q138 124 152 111T174 68Q178 51 187 41T227 30Q266 30 299 46T356 97T396 189T416 329Q387 306 347 289T253 272Q208 272 171 286T106 328T65
394T50 483Q50 535 68 576T117 646T189 690T276 705Z" />
<glyph unicode=":" glyph-name="colon" d="M290 322Q255 322 231 346T206 404Q206 438 230 461T290 485Q325 485 349 462T374 404Q374 370 350 346T290 322ZM290 -7Q255 -7 231 17T206 75Q206 109 230 133T290 158Q325 158 349 134T374 75Q374 41 350 17T290 -7Z" />
<glyph unicode=";" glyph-name="semicolon" d="M290 322Q255 322 231 346T206 404Q206 438 230 461T290 485Q325 485 349 462T374 404Q374 370 350 346T290 322ZM149 -165Q194 -146 224 -124T272 -80T297 -34T304 13Q300 9 291 5T270 1Q234 1 216 23T198 78Q198
113 223 134T281 155Q329 155 358 123T387 31Q387 -1 375 -35T336 -101T266 -159T162 -199L149 -165Z" />
<glyph unicode="&lt;" glyph-name="less" d="M96 280V346L483 516V455L151 313L483 171V109L96 280Z" />
<glyph unicode="=" glyph-name="equal" d="M81 426H499V369H81V426ZM81 263H499V207H81V263Z" />
<glyph unicode="&gt;" glyph-name="greater" d="M96 109V170L428 312L96 454V516L483 345V279L96 109Z" />
<glyph unicode="?" glyph-name="question" d="M214 367Q244 376 273 391T326 428T365 479T380 547Q380 577 371 599T346 635T310 657T269 664Q240 664 230 657T215 623Q210 592 197 578T157 563Q128 563 116 579T104 615Q104 637 116 654T149 682T196 699T251
705Q300 705 340 693T408 658T452 598T468 514Q468 472 453 438T410 376T346 328T266 294V202H214V367ZM241 -6Q211 -6 190 14T169 64Q169 93 190 114T241 135Q272 135 293 114T314 64Q314 35 293 15T241 -6Z" />
<glyph unicode="@" glyph-name="at" d="M284 -163Q233 -163 187 -140T107 -71T52 46T31 213Q31 325 56 411T124 556T219 645T328 676Q376 676 417 657T489 601T537 509T555 383Q555 280 544 215T512 112T466 60T411 46Q373 46 351 65T331 130H327Q309 85 287 67T238
48Q196 48 174 83T151 181Q151 251 165 305T202 397T256 454T318 474Q345 474 364 469T398 447H400L431 482L444 473Q440 460 437 444Q434 430 432 413T428 377L410 180Q406 135 410 117T431 99Q443 99 456 110T481 152T499 233T506 363Q506 494 460 562T328 630Q282
630 239 602T161 522T106 397T85 233Q85 54 140 -29T295 -113Q380 -113 437 -71V-110Q425 -118 411 -127T378 -145T336 -158T284 -163ZM269 113Q277 113 284 115T299 126T313 149T328 192L350 401Q348 412 341 423T317 434Q298 434 283 417T256 370T238 296T232
200Q232 151 240 132T269 113Z" />
<glyph unicode="A" glyph-name="A" d="M181 278H339L260 532H256L181 278ZM184 0H11V31L26 36Q35 39 41 43T54 56T68 82T84 128L257 693H318L499 117Q507 91 513 77T527 54T540 43T555 36L567 31V0H346V31L370 38Q387 43 393 49T400 67Q400 78 396 92T386 126L353
233H168L136 126Q130 106 127 95T124 72Q124 56 132 50T157 38L184 31V0Z" />
<glyph unicode="B" glyph-name="B" d="M33 31L69 40Q77 41 82 44T91 53T96 70T98 100V594Q98 613 97 624T92 641T83 649T69 654L33 663V693H288Q390 693 446 656T503 530Q503 459 465 421T355 368V364Q443 356 488 315T534 195Q534 99 474 50T310 0H33V31ZM283
382Q339 382 367 415T395 510Q395 551 388 578T367 620T332 642T280 649Q261 649 239 648T206 643V382H283ZM299 44Q355 44 387 75T419 181Q419 263 390 300T293 337H206V122Q206 96 210 81T224 57T253 47T299 44Z" />
<glyph unicode="C" glyph-name="C" d="M337 -12Q274 -12 222 8T132 70T73 180T52 341Q52 441 76 510T141 623T237 685T354 705Q404 705 445 698T516 681L524 483H493Q479 521 465 558T434 622Q420 645 402 652T344 659Q300 659 267 645T211 595T178 503T167 360Q167
268 177 206T209 106T261 51T335 34Q362 34 379 38T409 49T429 66T446 91Q455 107 462 120T475 147T486 176T498 212H527L519 32Q489 15 441 2T337 -12Z" />
<glyph unicode="D" glyph-name="D" d="M22 31L42 36Q54 39 61 42T72 52T78 70T80 100V594Q80 613 79 624T73 641T61 651T42 658L22 663V693H272Q331 693 381 676T468 619T526 514T547 353Q547 265 527 199T470 89T382 22T268 0H22V31ZM261 42Q312 42 345 63T397
123T425 215T433 334Q433 417 424 477T394 575T340 632T259 651Q230 651 215 649T189 642V139Q189 109 191 90T201 61T223 46T261 42Z" />
<glyph unicode="E" glyph-name="E" d="M38 31L74 40Q82 41 87 44T96 53T101 70T103 100V594Q103 613 102 624T97 641T88 649T74 654L38 663V693H503L514 516H481Q467 553 457 575T438 610Q429 624 421 632T400 643T370 648T325 649Q280 649 252 647T212 640V383H243Q293
383 319 388T355 414Q363 431 368 445T378 483H410V237H378Q372 260 368 273T355 306Q347 329 323 333T243 337H212V152Q212 112 216 90T232 58T269 46T332 44Q361 44 379 45T409 49T430 60T448 81Q459 97 473 132T501 209H534L521 0H38V31Z" />
<glyph unicode="F" glyph-name="F" d="M38 31L65 37Q77 40 84 43T95 52T101 70T103 100V594Q103 613 102 624T96 641T84 651T65 657L38 663V693H505L514 506H481Q466 551 457 574T436 612Q427 627 418 634T397 645T368 648T323 649Q288 649 257 647T212 642V371H248Q277
371 295 372T324 377T342 386T352 400Q361 416 367 432T378 474H409V216H378Q372 242 367 260T351 299Q346 308 341 313T326 321T297 324T248 325H212V100Q212 81 213 71T218 54T232 45T256 38L289 31V0H38V31Z" />
<glyph unicode="G" glyph-name="G" d="M322 -12Q183 -12 109 73T35 341Q35 441 58 510T122 623T216 686T331 705Q389 705 428 700T500 686L512 487H479Q464 536 450 566T424 611Q417 621 411 629T394 644T367 653T323 657Q277 657 244 642T190 591T159 501T149
365Q149 278 157 216T185 114T237 56T319 37Q352 37 375 43T414 60V198Q414 217 413 227T408 244T400 252T385 257L347 267V298H563V267L554 263Q544 258 538 255T528 245T523 228T521 198V23Q486 12 434 0T322 -12Z" />
<glyph unicode="H" glyph-name="H" d="M21 31L43 37Q55 40 62 43T73 52T79 70T81 100V594Q81 613 80 624T74 641T62 651T43 657L21 663V693H251V663L228 656Q216 652 209 649T197 640T192 624T190 594V376H389V594Q389 613 388 623T382 640T371 649T352 656L329
663V693H559V663L536 656Q524 652 517 649T505 640T500 624T498 594V100Q498 81 499 71T505 54T516 45T536 38L559 31V0H329V31L352 38Q364 42 371 45T382 54T387 70T389 100V330H190V100Q190 81 191 71T197 54T208 45T228 38L251 31V0H21V31Z" />
<glyph unicode="I" glyph-name="I" d="M114 34L163 41Q184 44 197 47T219 56T231 73T235 103V591Q235 610 232 621T220 638T198 647T163 653L114 660V693H476V660L416 652Q395 649 381 646T359 637T347 621T344 591V103Q344 84 347 74T358 57T381 48T416 42L476
34V0H114V34Z" />
<glyph unicode="J" glyph-name="J" d="M159 -163Q99 -163 70 -142T40 -89Q40 -69 53 -54T95 -39Q126 -39 138 -54T158 -98Q163 -113 169 -117T190 -122Q204 -122 218 -116T245 -93T264 -43T272 44V594Q272 612 270 622T262 638T250 646T232 651L172 663V693H459V663L413
654Q404 652 398 650T388 641T383 624T381 594V129Q381 48 365 -8T320 -98T249 -148T159 -163Z" />
<glyph unicode="K" glyph-name="K" d="M25 31L61 40Q69 41 74 44T83 53T88 70T90 100V594Q90 613 89 624T84 641T75 649T61 654L25 663V693H266V663L228 654Q219 652 214 649T205 640T200 624T199 594V100Q199 81 200 70T204 53T213 45T228 40L266 31V0H25V31ZM424
0Q397 36 370 78T318 164T269 254T226 344V357L375 567Q395 589 402 603T409 626Q409 637 400 644T378 655L349 663V693H552V663L539 658Q527 655 518 650T500 637T479 615T452 582L312 392Q331 352 355 308T406 219T458 135T509 62Q519 50 524 47T538 41L577 31V0H424Z"
/>
<glyph unicode="L" glyph-name="L" d="M61 31L97 40Q105 41 110 44T119 53T124 70T126 100V594Q126 613 125 624T120 641T111 649T97 654L61 663V693H306V663L264 653Q255 651 250 649T241 640T236 624T235 594V142Q235 107 236 88T247 59T274 47T325 44Q353 44
371 46T402 54T424 69T442 94Q452 110 466 140T495 220H529L517 0H61V31Z" />
<glyph unicode="M" glyph-name="M" d="M8 31L12 33Q23 37 30 41T42 53T49 74T51 110V594Q51 613 50 624T45 642T34 652T16 660L8 663V693H187L294 215H296L400 693H572V663L561 659Q551 655 545 652T536 642T531 624T529 594V100Q529 81 530 70T535 53T545 43T562
35L572 31V0H379V31L394 36Q406 40 413 44T425 54T430 72T431 100V630H428L291 16H248L100 630H97V110Q97 87 98 74T104 54T118 42T141 34L152 31V0H8V31Z" />
<glyph unicode="N" glyph-name="N" d="M133 603H129V110Q129 87 130 74T136 54T147 43T166 38L201 31V0H16V31L45 38Q54 40 61 43T72 53T79 74T81 110V594Q81 613 80 624T75 641T66 649T52 654L16 663V693H202L453 209H457V584Q457 606 456 619T450 640T439 651T420
656L381 663V693H567V663L542 656Q532 653 525 650T514 640T507 620T505 584V-4H451L133 603Z" />
<glyph unicode="O" glyph-name="O" d="M286 -12Q230 -12 184 10T104 77T52 186T33 337Q33 434 54 503T110 618T193 684T294 705Q350 705 396 682T476 614T528 503T547 351Q547 254 526 185T470 73T387 9T286 -12ZM292 37Q333 37 360 53T404 105T426 197T433 334Q433
394 428 452T408 555T364 629T287 657Q246 657 219 640T176 586T154 492T147 354Q147 294 151 237T171 136T215 64T292 37Z" />
<glyph unicode="P" glyph-name="P" d="M34 31L79 40Q88 41 94 44T104 53T109 70T111 100V594Q111 631 106 640T89 651L34 663V693H308Q423 693 485 640T548 492Q548 445 533 405T490 334T424 287T337 270Q306 270 294 274T276 283V313Q317 311 347 318T396 344T425
397T435 482Q435 571 403 610T302 649Q271 649 251 647T220 642V100Q220 81 221 70T225 53T234 44T252 40L311 31V0H34V31Z" />
<glyph unicode="Q" glyph-name="Q" d="M499 -167Q452 -167 418 -155T344 -114Q313 -90 286 -66T223 -6Q129 16 81 103T33 337Q33 434 54 504T110 619T193 685T294 706Q350 706 396 683T476 614T528 503T547 351Q547 194 499 110T364 -1V-4Q382 -21 404 -39T443
-68Q478 -92 507 -102T565 -112Q585 -112 602 -106T630 -95V-121Q614 -137 583 -152T499 -167ZM292 37Q333 37 360 53T404 105T426 197T433 334Q433 394 428 452T408 556T364 630T287 658Q246 658 219 641T176 586T154 492T147 354Q147 294 151 237T171 136T215
64T292 37Z" />
<glyph unicode="R" glyph-name="R" d="M250 359Q322 359 353 394T384 507Q384 553 378 581T359 624T325 644T276 649Q250 649 231 647T201 642V363Q202 363 217 361T250 359ZM29 31L65 40Q73 41 78 44T87 53T92 70T94 100V594Q94 613 93 624T88 641T79 649T65
654L29 663V693H286Q396 693 446 649T496 517Q496 461 463 414T366 344V341Q382 306 400 269T438 195T477 126T514 65Q521 54 529 49T558 37L576 31V0H431Q386 72 345 152T271 313H201V100Q201 81 202 70T207 53T216 45T231 40L269 31V0H29V31Z" />
<glyph unicode="S" glyph-name="S" d="M269 -13Q207 -13 157 -4T73 17L62 204H99Q114 169 126 142T159 86Q169 72 179 63T203 47T235 39T279 36Q313 36 339 45T384 71T411 108T421 153Q421 177 413 197T385 235T333 272T254 311Q208 332 175 352T119 397T86 450T75
517Q75 557 91 591T136 651T206 691T297 706Q355 706 395 701T462 688L475 520H439Q430 540 424 554T412 579T401 599T387 619Q373 635 353 646T290 658Q262 658 238 650T195 628T167 593T157 548Q157 526 163 509T185 476T228 445T299 410Q355 385 395 362T461
314T499 263T511 204Q511 159 496 119T451 50T375 4T269 -13Z" />
<glyph unicode="T" glyph-name="T" d="M147 31L201 40Q210 41 216 44T227 53T234 70T236 100V651H222Q194 651 177 650T148 644T128 628T110 599Q103 586 98 574T88 548T78 518T66 481H33L42 693H538L547 481H514Q507 502 502 518T492 547T482 573T470 599Q460
617 452 627T433 643T404 650T358 651H345V100Q345 81 346 70T352 53T362 44T379 40L433 31V0H147V31Z" />
<glyph unicode="U" glyph-name="U" d="M298 -12Q246 -12 204 0T131 38T85 105T68 205V594Q68 613 67 624T62 641T53 650T39 655L12 663V693H241V663L206 654Q197 652 191 649T182 640T178 624T177 594V195Q177 115 210 81T324 46Q398 46 431 86T465 204V584Q465
606 464 619T458 640T447 651T428 656L387 663V693H567V663L549 657Q540 654 533 651T522 640T515 620T512 584V197Q512 155 500 117T462 51T396 5T298 -12Z" />
<glyph unicode="V" glyph-name="V" d="M86 564Q78 589 72 605T60 632T47 647T30 656L9 663V693H242V663L217 656Q188 648 188 622Q188 611 192 593T202 555L323 133H327L441 555Q446 571 449 589T453 618Q453 635 446 643T421 656L393 663V693H572V663L548 656Q539
653 533 648T521 632T510 603T494 553L328 0H263L86 564Z" />
<glyph unicode="W" glyph-name="W" d="M34 605Q28 635 23 644T9 659L1 663V693H176V663L152 656Q133 650 133 619Q133 607 134 595T139 566L203 196H206L274 524L261 587Q253 624 247 637T228 656L207 663V693H398V663L373 656Q351 649 351 619Q351 607 352 596T356
573L427 196H429L494 574Q496 585 497 596T499 621Q499 634 495 642T478 656L459 663V693H577V663L572 660Q566 657 563 653T556 639T549 616T541 577L433 0H380L298 430H296L207 0H153L34 605Z" />
<glyph unicode="X" glyph-name="X" d="M16 31L38 37Q47 39 54 43T70 57T87 81T111 119L232 336L99 584Q89 602 82 614T69 635T56 648T40 656L17 663V693H259V663L227 656Q205 651 205 628Q205 619 210 606T226 573L314 401H316L400 583Q409 600 412 611T416 631Q416
651 395 656L366 663V693H543V663L519 656Q510 653 504 649T490 635T473 612T452 575L345 368L482 116Q503 78 514 60T543 37L564 31V0H327V31L356 36Q382 40 382 61Q382 70 375 85T358 119L263 302H260L164 111Q155 96 150 84T144 64Q144 41 166 36L191 31V0H16V31Z"
/>
<glyph unicode="Y" glyph-name="Y" d="M172 31L211 40Q220 42 225 44T234 53T238 70T240 100V280L108 567Q96 591 88 607T72 632T57 647T41 656L21 663V693H263V663L241 657Q221 652 214 644T206 621Q206 611 211 599T224 567L319 345H323L417 567Q425 586 428
598T432 621Q432 647 401 656L375 663V693H560V663L542 656Q531 652 523 647T506 630T488 601T466 553L349 288V100Q349 81 350 70T354 53T363 45T379 40L418 31V0H172V31Z" />
<glyph unicode="Z" glyph-name="Z" d="M62 44L384 646V650H331Q281 650 251 649T203 644T175 630T156 606Q149 595 144 584T132 560T120 532T106 497H77L86 693H497V650L179 47V43H220Q272 43 305 44T359 50T392 63T413 85Q427 106 438 134T468 213H497L485 0H62V44Z" />
<glyph unicode="[" glyph-name="bracketleft" d="M197 734H464V704L323 693Q311 692 304 690T293 680T288 661T286 630V-26Q286 -46 287 -57T292 -76T303 -85T323 -89L464 -100V-130H197V734Z" />
<glyph unicode="\" glyph-name="backslash" d="M450 -130L88 734H150L511 -130H450Z" />
<glyph unicode="]" glyph-name="bracketright" d="M383 -130H116V-100L256 -89Q268 -88 275 -86T287 -76T292 -58T294 -26V630Q294 649 293 661T287 680T276 689T256 693L116 704V734H383V-130Z" />
<glyph unicode="^" glyph-name="asciicircum" d="M93 389L272 703H307L486 389L463 372L290 590L116 372L93 389Z" />
<glyph unicode="_" glyph-name="underscore" d="M-4 -124H583V-180H-4V-124Z" />
<glyph unicode="`" glyph-name="grave" d="M203 657Q182 664 174 677T166 703Q166 719 178 732T207 746Q223 746 246 731L409 617L398 593L203 657Z" />
<glyph unicode="a" glyph-name="a" d="M251 44Q287 44 318 58T360 91V244L274 237Q217 232 188 209T158 128Q158 84 182 64T251 44ZM208 -13Q138 -13 97 21T56 120Q56 182 99 216T234 270L360 296V389Q360 414 356 432T341 463T311 480T259 486Q226 486 217 478T204
446Q200 417 189 398T144 379Q114 379 103 394T91 429Q91 454 108 472T154 502T215 519T280 525Q460 525 460 395V100Q460 80 466 68T487 48Q495 43 507 42T536 39V11Q524 3 499 -4T448 -12Q410 -12 390 4T364 46H359Q350 34 334 23T297 4T253 -8T208 -13Z" />
<glyph unicode="b" glyph-name="b" d="M262 -12Q205 -12 164 -4T81 25V648Q81 663 80 671T75 685T67 694T54 701L14 721V749L178 765L188 757Q186 745 184 727Q181 697 181 640V549Q181 532 181 517T179 490Q178 477 177 465H181Q211 489 253 506T343 524Q377
524 410 513T470 473T513 398T530 279Q530 208 510 154T454 62T369 7T262 -12ZM272 33Q311 33 340 45T387 84T415 154T425 259Q425 362 390 411T295 461Q248 461 223 450T181 427V67Q200 49 221 41T272 33Z" />
<glyph unicode="c" glyph-name="c" d="M317 -12Q259 -12 215 7T141 61T96 143T81 248Q81 329 108 382T177 467T269 512T366 525Q438 525 472 502T507 441Q507 418 491 397T448 376Q419 376 408 390T392 430Q387 464 377 473T340 482Q309 482 281 472T232 437T199
376T187 284Q187 171 230 112T359 52Q410 52 449 66T513 95V55Q501 45 483 33T439 11T383 -5T317 -12Z" />
<glyph unicode="d" glyph-name="d" d="M231 -12Q197 -12 164 0T104 42T61 119T44 239Q44 312 66 365T125 454T209 507T308 524Q337 524 359 521T395 512Q394 523 393 536Q392 547 392 560T392 588V648Q392 663 391 671T386 685T378 694T364 701L325 721V749L488
765L498 757Q496 745 495 727Q492 697 492 640V115Q492 98 493 88T497 72T505 61T520 53L554 36V9L400 -12L393 -6L398 47H394Q364 23 321 6T231 -12ZM286 56Q327 56 351 68T392 89V438Q377 454 356 467T302 480Q267 480 239 468T190 430T160 362T149 259Q149 151
184 104T286 56Z" />
<glyph unicode="e" glyph-name="e" d="M304 483Q249 483 211 443T166 313L408 324Q408 412 385 447T304 483ZM507 53Q497 45 479 34T435 12T379 -5T311 -12Q248 -12 201 7T122 63T75 149T59 260Q59 320 79 369T134 452T213 506T308 525Q356 525 395 512T461 468T504
389T520 270H165Q166 213 179 172T216 104T272 65T344 52Q402 52 440 65T507 93V53Z" />
<glyph unicode="f" glyph-name="f" d="M115 30L196 43Q211 45 217 54T223 93V456H112V486L223 510V535Q223 593 241 636T291 709T366 752T461 767Q521 767 545 748T570 700Q570 683 558 667T521 651Q492 651 477 665T459 701Q457 716 453 723T432 730Q412 730
393 724T358 702T333 659T323 588V509H500L485 456H323V98Q323 63 328 54T349 43L463 30V0H115V30Z" />
<glyph unicode="g" glyph-name="g" d="M264 230Q312 230 336 256T361 347Q361 421 337 452T264 484Q217 484 193 456T168 362Q168 289 192 260T264 230ZM243 -224Q141 -224 84 -191T26 -104Q26 -67 56 -36T141 14V18Q115 27 95 46T74 101Q74 122 81 139T100 169T125
194T151 214V218Q136 225 121 237T93 267T74 306T66 350Q66 394 83 427T129 481T193 513T264 524Q294 524 319 520T370 504Q396 526 428 542T495 558Q518 558 534 546T550 511Q550 492 539 477T508 462Q488 462 479 470T463 492Q458 503 437 498T395 481V478Q426
460 444 431T463 359Q463 315 446 283T400 230T336 199T264 189Q239 189 222 192T186 204Q174 196 163 182T151 149Q151 130 166 117T214 103H372Q404 103 431 97T477 77T506 38T517 -24Q517 -53 504 -88T459 -153T374 -203T243 -224ZM260 -182Q297 -182 330 -173T389
-149T428 -112T443 -65Q443 -31 425 -10T353 12H199Q187 9 173 1T147 -21T127 -51T119 -88Q119 -134 153 -158T260 -182Z" />
<glyph unicode="h" glyph-name="h" d="M29 30L66 41Q81 45 86 54T92 93V648Q92 663 91 671T86 685T78 694T64 701L24 721V749L189 765L199 757Q197 742 195 724Q192 692 192 640V549Q192 532 191 516T189 488Q188 474 187 461H191Q209 473 230 484T274 504T321
518T368 524Q437 524 465 492T494 391V93Q494 64 500 55T520 41L556 30V0H333V30L369 41Q376 43 381 45T389 53T393 67T394 93V363Q394 416 377 437T315 458Q281 458 247 447T192 427V93Q192 77 193 68T197 53T204 46T217 41L253 30V0H29V30Z" />
<glyph unicode="i" glyph-name="i" d="M279 614Q247 614 226 636T204 686Q204 715 225 736T279 757Q310 757 331 736T353 686Q353 658 332 636T279 614ZM105 30L159 41Q184 46 199 52T221 69T231 95T233 132V340Q233 366 231 382T223 410T203 429T165 445L105
466V492L330 523L340 517Q338 505 336 488Q333 459 333 405V132Q333 109 335 94T343 69T361 53T395 43L460 30V0H105V30Z" />
<glyph unicode="j" glyph-name="j" d="M301 614Q269 614 248 636T226 686Q226 715 247 736T301 757Q332 757 353 736T375 686Q375 658 354 636T301 614ZM152 -228Q100 -228 73 -206T45 -155Q45 -132 61 -118T102 -103Q133 -103 144 -118T157 -153Q160 -179 165
-185T181 -191Q219 -191 238 -168T257 -85V369Q257 391 255 405T248 427T234 440T213 448L145 467V493L354 523L364 517Q362 505 360 487Q357 457 357 400V11Q357 -58 340 -104T295 -177T229 -216T152 -228Z" />
<glyph unicode="k" glyph-name="k" d="M28 30L65 41Q80 45 85 54T91 93V648Q91 663 90 671T85 685T77 694T63 701L23 721V749L188 765L197 757Q195 742 194 724Q191 692 191 640V93Q191 77 192 68T196 53T203 46T216 41L252 30V0H28V30ZM424 0Q369 61 323 120T232
252V267L340 379Q372 412 381 428T391 454Q391 468 367 476L353 481V509H532V480L504 470Q484 463 464 448T415 402L317 299Q357 234 405 173T502 58Q509 50 515 47T529 41L559 30V0H424Z" />
<glyph unicode="l" glyph-name="l" d="M109 30L172 39Q194 42 206 48T226 64T235 89T237 127V605Q237 632 235 648T226 673T206 688T169 701L104 721V749L334 765L344 757Q342 742 340 724Q337 692 337 640V127Q337 104 339 89T347 63T365 48T398 40L464 30V0H109V30Z" />
<glyph unicode="m" glyph-name="m" d="M173 0H8V30L22 35Q36 39 40 46T44 83V409Q44 424 43 433T40 447T34 455T23 464L6 476V502L126 523L134 515L130 471H133Q159 495 189 509T250 524Q285 524 304 510T332 469H334Q361 493 390 508T451 524Q496 524 517 498T538
410V83Q538 68 539 60T542 46T549 39T560 35L574 30V0H408V30L428 35Q434 37 438 39T444 45T446 58T447 83V403Q447 438 438 453T403 468Q383 468 366 457T337 435V83Q337 54 340 47T355 35L374 30V0H207V30L226 35Q232 37 236 39T242 45T245 58T246 83V396Q246
435 236 451T201 468Q182 468 165 458T135 437V83Q135 67 135 59T138 46T144 39T154 35L173 30V0Z" />
<glyph unicode="n" glyph-name="n" d="M30 30L67 41Q82 45 87 54T93 93V403Q93 418 92 426T88 440T80 449T65 457L30 476V502L183 523L193 517L188 461H192Q227 485 273 504T365 524Q434 524 462 492T491 391V93Q491 64 497 55T518 41L553 30V0H330V30L366 41Q373
43 378 45T386 53T390 67T391 93V363Q391 416 374 437T312 458Q279 458 246 447T193 427V93Q193 77 194 68T198 53T205 46T218 41L254 30V0H30V30Z" />
<glyph unicode="o" glyph-name="o" d="M291 -13Q241 -13 197 4T121 54T71 138T52 255Q52 321 72 371T125 455T202 507T291 525Q340 525 383 509T459 459T509 377T528 261Q528 195 508 144T455 58T380 5T291 -13ZM294 30Q355 30 387 82T419 247Q419 374 386 428T287
483Q226 483 194 433T161 269Q161 141 194 86T294 30Z" />
<glyph unicode="p" glyph-name="p" d="M281 33Q320 33 348 45T396 84T425 154T435 259Q435 362 398 411T293 461Q255 461 231 448T191 427V70Q210 52 231 43T281 33ZM28 -190L65 -179Q81 -175 86 -166T91 -127V403Q91 418 90 426T86 440T78 449T63 457L28 476V502L181
523L191 517L187 465H191Q221 489 263 506T352 524Q386 524 419 513T479 473T522 398T539 279Q539 208 520 154T465 62T381 7T270 -12Q253 -12 230 -9T188 1Q188 -7 189 -18Q190 -27 190 -38T191 -63V-127Q191 -143 192 -152T196 -167T204 -175T217 -179L265 -190V-219H28V-190Z"
/>
<glyph unicode="q" glyph-name="q" d="M322 -202L370 -191Q378 -190 383 -188T391 -180T395 -165T396 -139V-21Q396 -7 396 5T398 26Q399 37 400 46H396Q367 23 325 6T235 -12Q201 -12 168 0T108 42T65 119T48 239Q48 312 70 365T129 454T213 507T312 524Q359
524 387 514T442 489H446L476 527L496 522V-139Q496 -168 501 -177T522 -191L558 -202V-219H322V-202ZM290 51Q311 51 327 55T356 64T378 76T396 86V438Q381 454 360 467T306 480Q271 480 243 468T194 430T164 362T153 259Q153 150 188 101T290 51Z" />
<glyph unicode="r" glyph-name="r" d="M84 30L118 37Q134 40 144 44T161 56T169 78T172 115V373Q172 398 170 412T163 436T148 450T121 462L84 476V502L262 523L272 515L267 443H271Q311 483 359 504T449 525Q486 525 505 508T524 459Q524 428 507 413T463 398Q437
398 425 408T404 439Q399 451 393 454T379 457Q365 457 350 452T319 438T292 419T272 400V115Q272 91 274 78T283 57T304 46T343 39L409 30V0H84V30Z" />
<glyph unicode="s" glyph-name="s" d="M267 -12Q201 -12 159 -2T86 20L81 169H113Q126 140 134 121T161 79Q168 71 176 63T197 47T229 36T277 31Q346 31 378 52T411 113Q411 133 405 148T381 174T336 196T263 218Q169 242 130 279T90 375Q90 410 106 437T150 484T218
514T303 525Q335 525 359 523T402 516T436 507T464 497L468 363H438Q425 389 416 406T398 434Q389 445 381 454T361 469T333 479T291 483Q228 483 200 462T171 403Q171 389 175 377T195 354T238 332T313 309Q413 284 456 248T499 154Q499 119 485 89T441 36T369
1T267 -12Z" />
<glyph unicode="t" glyph-name="t" d="M341 -12Q310 -12 284 -6T240 15T211 55T200 119V456H70V485Q115 492 146 504T200 535T236 577T261 632H300V509H504L491 456H300V137Q300 109 305 92T321 66T347 53T383 49Q437 49 464 57T507 70V38Q500 32 487 23T452 7T403
-6T341 -12Z" />
<glyph unicode="u" glyph-name="u" d="M216 -12Q157 -12 124 21T91 119V413Q91 427 90 435T86 447T78 454T65 461L27 479V506L176 523L191 513V142Q191 98 209 76T269 53Q302 53 335 65T393 90V413Q393 427 392 435T389 447T381 454T367 461L330 479V506L480 523L493
513V115Q493 98 494 88T498 72T506 61T521 53L555 36V9L404 -12L393 -4L398 56H394Q357 30 312 9T216 -12Z" />
<glyph unicode="v" glyph-name="v" d="M105 405Q99 421 94 432T83 450T70 463T51 472L27 480V509H256V480L229 473Q209 468 205 461T201 441Q201 432 205 419T215 389L316 117H320L417 389Q424 409 426 422T429 443Q429 454 424 461T403 473L375 480V509H553V480L526
472Q506 467 498 450T475 395L323 0H266L105 405Z" />
<glyph unicode="w" glyph-name="w" d="M65 405Q55 438 48 452T26 475L17 480V509H185V480L169 473Q161 468 157 463T152 445Q152 436 155 421T162 389L213 150H217L273 383L265 417Q255 462 234 472L220 480V509H391V480L372 473Q355 466 355 441Q355 424 363
389L416 150H419L470 389Q474 409 476 422T478 443Q478 466 459 473L440 480V509H563V480L554 475Q542 468 534 452T515 395L420 0H365L294 321H292L218 0H162L65 405Z" />
<glyph unicode="x" glyph-name="x" d="M39 30L68 38Q95 45 113 60T155 111L246 247L131 401Q115 423 104 436T85 458T68 469T49 476L32 480V509H266V480L241 475Q228 472 224 466T219 450Q219 442 226 429T245 401L312 307H315L364 387Q378 413 386 427T394 452Q394
468 373 473L342 480V509H539V480L510 472Q495 468 485 463T465 449T446 428T424 397L339 276L463 109Q477 90 487 77T507 55T526 41T548 33L561 30V0H327V30L353 35Q368 38 372 44T377 58Q377 68 368 81T348 109L273 217H270L215 121Q200 96 192 82T184 57Q184
49 190 44T218 34L236 30V0H39V30Z" />
<glyph unicode="y" glyph-name="y" d="M127 -226Q80 -226 61 -206T41 -161Q41 -138 54 -123T90 -107Q114 -107 126 -119T144 -148Q148 -159 150 -162T160 -166Q177 -166 199 -141T245 -61L269 -4L101 405Q93 425 88 436T77 455T66 465T49 472L25 480V509H253V480L226
473Q209 468 203 463T197 443Q197 425 212 389L320 121H324L422 389Q429 409 431 423T434 447Q434 460 427 464T406 473L378 480V509H559V480L531 472Q522 469 516 465T505 453T494 430T480 395L299 -59Q284 -96 268 -126T231 -179T185 -213T127 -226Z" />
<glyph unicode="z" glyph-name="z" d="M77 33L387 466V470H304Q274 470 255 469T223 464T203 455T190 440Q174 417 163 396T137 342H106L113 509H506V478L194 43V39H267Q308 39 333 41T374 49T398 62T415 83Q433 109 444 131T465 179H497L485 0H77V33Z" />
<glyph unicode="{" glyph-name="braceleft" d="M458 -130Q391 -128 345 -122T270 -103T229 -71T216 -26Q216 -6 224 28T241 98T259 165T267 211Q267 223 262 235T241 258T193 276T110 285V323Q161 324 192 332T239 351T261 375T267 400Q267 415 259 445T242 509T224
577T216 630Q216 656 228 675T269 706T344 725T458 734V704Q410 699 382 694T338 681T317 662T312 632Q312 600 316 572T327 517T337 467T342 420Q342 378 309 349T204 306V302Q280 291 311 261T342 190Q342 167 338 142T327 90T317 34T312 -28Q312 -46 317 -57T337
-76T381 -89T458 -100V-130V-130Z" />
<glyph unicode="|" glyph-name="bar" d="M260 734H320V-130H260V734Z" />
<glyph unicode="}" glyph-name="braceright" d="M122 734Q189 732 235 726T310 707T351 675T364 630Q364 610 356 576T339 506T321 439T313 393Q313 381 318 369T339 346T387 328T470 319V281Q419 279 388 272T341 253T319 229T313 204Q313 189 321 159T338 95T356
27T364 -26Q364 -52 352 -71T311 -102T236 -121T122 -130V-100Q170 -95 198 -90T242 -77T263 -58T268 -28Q268 4 264 32T253 87T243 137T238 184Q238 226 271 255T376 298V302Q338 308 312 318T269 343T245 375T238 414Q238 437 242 462T253 514T263 570T268 632Q268
650 263 661T243 680T199 693T122 704V734V734Z" />
<glyph unicode="~" glyph-name="asciitilde" d="M103 237Q125 285 144 316T196 348Q214 348 242 343T299 332T355 321T395 316Q411 316 424 329T451 365L477 353Q466 329 456 309T436 274T412 251T383 242Q365 242 338 247T281 258T225 269T185 274Q170 274 156
261T128 225L103 237Z" />
<glyph unicode="&#x8e;" glyph-name="Zcaron" d="M62 44L384 646V650H331Q281 650 251 649T203 644T175 630T156 606Q149 595 144 584T132 560T120 532T106 497H77L86 693H497V650L179 47V43H220Q272 43 305 44T359 50T392 63T413 85Q427 106 438 134T468 213H497L485
0H62V44ZM136 885L153 909L294 839L435 909L453 885L320 758H269L136 885Z" />
<glyph unicode="&#x9e;" glyph-name="zcaron" d="M77 33L387 466V470H304Q274 470 255 469T223 464T203 455T190 440Q174 417 163 396T137 342H106L113 509H506V478L194 43V39H267Q308 39 333 41T374 49T398 62T415 83Q433 109 444 131T465 179H497L485 0H77V33ZM146
739L163 763L304 679L445 763L463 739L330 598H279L146 739Z" />
<glyph unicode="&#xa0;" glyph-name="uni00A0" />
<glyph unicode="&#xa1;" glyph-name="exclamdown" d="M290 523Q320 523 341 503T362 453Q362 424 341 403T290 382Q259 382 238 403T217 453Q217 482 238 502T290 523ZM355 -106Q359 -147 339 -166T290 -185Q276 -185 264 -181T242 -166T228 -141T225 -106L272
308H308L355 -106Z" />
<glyph unicode="&#xa2;" glyph-name="cent" d="M513 55Q493 38 451 18T354 -9V-140H303V-12Q250 -11 208 8T137 62T93 142T78 243Q78 311 97 360T149 442T221 493T303 519V596H354V525H369Q444 525 482 502T520 440Q520 428 517 417T506 396T489 380T463 374Q436
374 426 387T411 428Q406 459 395 469T354 482V52Q405 52 446 66T513 95V55ZM183 280Q183 182 213 128T303 58V478Q277 473 256 459T218 421T192 363T183 280Z" />
<glyph unicode="&#xa3;" glyph-name="sterling" d="M492 0H49V72Q80 90 102 108T139 146T161 190T168 243Q168 260 165 284T156 334H79V379H147Q141 411 137 442T132 500Q132 546 149 584T198 649T272 690T367 705Q399 705 426 700T474 684T507 658T519 621Q519
592 503 577T466 562Q441 562 428 576T404 619Q399 635 396 644T387 657T373 663T350 664Q326 664 306 657T271 632T248 586T240 517Q240 491 241 454T244 379H416V334H246Q247 315 247 300T248 273Q248 213 219 172T139 93V88H405Q421 88 431 90T451 100T469 123T492
166H520L492 0Z" />
<glyph unicode="&#xa5;" glyph-name="yen" d="M434 0H164V31L213 40Q222 42 228 44T238 53T243 70T245 100V162H62V207H245V302H62V347H226L115 567Q103 590 94 606T77 632T60 647T43 656L21 663V693H282V663L252 657Q227 652 220 644T213 621Q213 611 218 598T231
567L323 368H327L410 567Q418 587 421 599T425 622Q425 636 417 643T387 656L361 663V693H560V663L539 656Q528 652 519 647T501 630T482 601T459 553L369 347H536V302H354V207H536V162H354V100Q354 81 355 70T359 53T369 45T385 40L434 31V0Z" />
<glyph unicode="&#xa6;" glyph-name="brokenbar" d="M260 734H320V328H260V734ZM260 254H320V-130H260V254Z" />
<glyph unicode="&#xa7;" glyph-name="section" d="M269 191Q316 154 352 124T411 64Q439 92 439 139Q439 158 434 175T416 210T377 252T311 307Q260 348 226 379T172 436Q155 422 148 404T141 359Q141 339 146 323T164 288T203 246T269 191ZM265 -204Q192 -204
152 -179T111 -116Q111 -90 123 -76T162 -62Q187 -62 200 -74T219 -117Q221 -132 224 -141T233 -156T251 -164T281 -166Q323 -166 343 -141T364 -78Q364 -54 357 -35T332 4T285 49T212 109Q171 142 143 168T96 220T70 271T61 328Q61 370 87 404T153 465Q142 483
138 500T134 538Q134 574 147 604T184 656T243 690T322 702Q388 702 427 680T466 620Q466 595 450 582T410 568Q385 568 374 580T358 627Q355 647 345 655T305 664Q262 664 242 640T221 577Q221 552 227 533T250 493T296 449T369 389Q410 357 438 330T483 278T509
227T517 170Q517 129 495 95T431 32Q449 -1 449 -40Q449 -76 437 -106T400 -158T342 -192T265 -204Z" />
<glyph unicode="&#xa8;" glyph-name="dieresis" d="M391 616Q363 616 344 635T325 679Q325 705 344 723T391 742Q418 742 437 724T456 679Q456 655 437 636T391 616ZM190 616Q163 616 144 635T124 679Q124 705 143 723T190 742Q217 742 236 724T256 679Q256 655
237 636T190 616Z" />
<glyph unicode="&#xa9;" glyph-name="copyright" d="M288 82Q231 82 182 103T98 161T42 246T21 351Q21 407 41 456T97 542T182 600T288 621Q345 621 394 600T480 543T538 457T559 351Q559 295 538 247T481 161T395 103T288 82ZM288 119Q337 119 378 137T449 186T495
260T512 351Q512 400 496 442T450 516T379 566T288 584Q238 584 198 566T128 517T84 443T68 351Q68 303 83 261T128 187T197 137T288 119ZM294 204Q265 204 239 213T193 240T161 286T149 351Q149 392 162 420T196 467T244 493T301 502Q333 502 353 499T385 492L389
408H366Q361 419 357 430T344 451Q337 460 327 465T295 470Q256 470 238 444T219 361Q219 291 239 264T300 236Q335 236 349 258Q355 267 359 277T370 304H392L387 221Q374 215 351 210T294 204Z" />
<glyph unicode="&#xaa;" glyph-name="ordfeminine" d="M266 296Q295 296 316 308T346 335V457L278 449Q236 444 215 425T194 361Q194 328 213 312T266 296ZM228 242Q168 242 135 271T101 356Q101 382 111 401T138 436T177 461T224 477L346 507V570Q346 591 343
608T332 637T307 657T264 664Q240 664 231 653T219 628Q214 605 206 588T170 571Q144 571 132 584T119 618Q119 639 134 654T172 680T224 695T281 700Q358 700 398 668T439 576V345Q439 326 442 316T459 300Q467 296 478 295T503 292V266Q490 258 469 251T421 244Q383
244 369 258T352 294H346Q331 274 299 258T228 242Z" />
<glyph unicode="&#xab;" glyph-name="guillemotleft" d="M101 238V267L257 460H300L195 253L300 45H257L101 238ZM289 238V267L446 460H488L383 253L488 45H446L289 238Z" />
<glyph unicode="&#xae;" glyph-name="registered" d="M288 202Q235 202 190 221T112 275T60 354T41 451Q41 503 60 548T112 628T190 681T288 701Q341 701 387 682T466 628T519 549T539 451Q539 400 520 355T467 275T387 222T288 202ZM288 237Q334 237 372 254T437
300T480 368T496 451Q496 496 481 535T438 603T372 649T288 666Q242 666 205 650T140 604T99 535T84 451Q84 407 98 368T140 300T204 254T288 237ZM280 462Q308 462 320 474T332 511Q332 537 320 544T282 552H257V462H280ZM171 353L191 359Q196 361 197 363T199
378V533Q199 544 198 547T191 554L172 558V581H287Q343 581 366 564T390 515Q390 492 377 475T340 451V447Q364 401 382 373Q387 365 392 362T406 357L421 353V330H349Q329 358 315 382T288 433H257V378Q257 366 259 364T269 359L288 353V330H171V353Z" />
<glyph unicode="&#xaf;" glyph-name="macron" d="M148 693H432V628H148V693Z" />
<glyph unicode="&#xb0;" glyph-name="degree" d="M290 373Q254 373 224 386T171 423T136 476T123 540Q123 572 135 601T170 653T223 689T290 703Q326 703 356 690T408 654T443 602T456 540Q456 507 444 477T409 423T356 387T290 373ZM290 422Q314 422 333 431T367
457T389 494T397 540Q397 563 390 584T368 620T334 645T290 655Q266 655 246 646T212 621T190 584T182 540Q182 516 189 495T211 457T246 432T290 422Z" />
<glyph unicode="&#xb1;" glyph-name="plusminus" d="M258 335H87V391H258V555H323V391H494V335H323V171H258V335ZM87 56H494V0H87V56Z" />
<glyph unicode="&#xb2;" glyph-name="twosuperior" d="M135 316Q176 348 209 376T268 433Q285 451 299 467T323 502T339 541T345 588Q345 613 340 629T326 653T303 664T272 667Q250 667 244 660T235 636Q231 607 221 595T187 582Q167 582 155 596T143 626Q143
654 180 677T281 701Q351 701 393 671T435 579Q435 548 418 518T370 458T299 399T214 341V338H356Q368 338 375 340T389 347T400 363T413 390H436L427 271H135V316Z" />
<glyph unicode="&#xb3;" glyph-name="threesuperior" d="M264 264Q205 264 168 285T131 339Q131 354 141 367T171 381Q191 381 203 371T221 335Q226 313 233 306T268 298Q345 298 345 389Q345 438 326 454T262 471H229V508H259Q300 508 318 525T336 592Q336 637
318 652T271 667Q250 667 243 661T233 640Q229 616 220 604T187 591Q168 591 158 602T147 630Q147 646 158 659T187 682T231 696T284 701Q351 701 385 674T419 600Q419 565 394 535T313 494V492Q366 487 401 462T436 387Q436 362 427 340T396 301T343 274T264 264Z"
/>
<glyph unicode="&#xb4;" glyph-name="acute" d="M172 617L334 731Q356 746 373 746Q390 746 402 733T414 703Q414 690 406 677T377 657L183 593L172 617Z" />
<glyph unicode="&#xb6;" glyph-name="paragraph" d="M255 346Q247 345 241 345T227 345Q142 345 93 393T44 523Q44 601 96 647T249 693H537V663L491 654Q482 652 476 650T466 641T461 624T459 594V-100H404V651H310V-100H255V346Z" />
<glyph unicode="&#xb7;" glyph-name="periodcentered" d="M289 259Q254 259 230 282T205 341Q205 358 211 373T229 400T256 418T289 425Q325 425 350 401T375 341Q375 306 350 283T289 259Z" />
<glyph unicode="&#xb8;" glyph-name="cedilla" d="M188 -212Q250 -198 273 -180T297 -142Q297 -109 227 -103L218 -94L267 0H316L274 -57Q324 -61 349 -80T374 -128Q374 -145 363 -162T330 -195T272 -223T188 -239V-212Z" />
<glyph unicode="&#xb9;" glyph-name="onesuperior" d="M185 297L216 302Q235 305 240 311T245 344V601H184V631Q233 640 264 658T320 703L337 697V344Q337 318 342 312T366 302L395 297V271H185V297Z" />
<glyph unicode="&#xba;" glyph-name="ordmasculine" d="M290 245Q245 245 206 259T137 301T92 372T75 471Q75 527 93 569T140 641T209 685T290 700Q335 700 374 686T443 645T488 575T505 477Q505 421 488 378T440 306T371 261T290 245ZM294 287Q351 287 379 330T408
465Q408 569 379 614T287 659Q229 659 201 617T172 483Q172 380 201 334T294 287Z" />
<glyph unicode="&#xbb;" glyph-name="guillemotright" d="M284 46L389 253L284 461H327L483 268V239L327 46H284ZM88 46L193 253L88 461H131L287 268V239L131 46H88Z" />
<glyph unicode="&#xbc;" glyph-name="onequarter" d="M164 420L221 427Q239 429 243 434T248 463V667H163V693Q225 701 260 720T317 763L333 757V463Q333 440 338 435T360 427L415 420V395H164V420ZM65 299H514V254H65V299ZM255 -176L288 -171Q305 -169 310 -164T315
-136V-114H126V-82L351 159H392V-74H451L445 -114H392V-136Q392 -158 396 -163T418 -171L448 -176V-199H255V-176ZM315 -74V75H312L180 -72V-74H315Z" />
<glyph unicode="&#xbd;" glyph-name="onehalf" d="M164 420L221 427Q239 429 243 434T248 463V667H163V693Q225 701 260 720T317 763L333 757V463Q333 440 338 435T360 427L415 420V395H164V420ZM65 299H514V254H65V299ZM145 -161Q183 -134 214 -110T269 -62Q285
-47 298 -33T322 -4T337 30T343 70Q343 92 338 105T324 125T302 134T273 137Q253 137 246 131T236 110Q232 86 223 75T191 64Q172 64 161 75T150 102Q150 114 159 125T186 146T227 160T281 166Q347 166 387 141T427 62Q427 36 410 10T365 -41T299 -91T219 -140V-142H351Q362
-142 369 -141T382 -135T392 -121T404 -98H428L420 -199H145V-161Z" />
<glyph unicode="&#xbe;" glyph-name="threequarters" d="M265 389Q211 389 174 407T137 453Q137 466 147 477T174 489Q193 489 204 480T221 450Q226 431 235 425T269 418Q344 418 344 496Q344 538 325 551T263 565H228V598H261Q299 598 317 612T336 668Q336 706
318 719T272 732Q252 732 243 727T232 709Q228 689 220 678T189 667Q172 667 162 677T152 701Q152 715 163 726T192 745T234 757T284 761Q347 761 380 738T413 675Q413 646 389 621T311 585V583Q364 578 396 557T429 494Q429 451 390 420T265 389ZM65 299H514V254H65V299ZM255
-176L288 -171Q305 -169 310 -164T315 -136V-114H126V-82L351 159H392V-74H451L445 -114H392V-136Q392 -158 396 -163T418 -171L448 -176V-199H255V-176ZM315 -74V75H312L180 -72V-74H315Z" />
<glyph unicode="&#xbf;" glyph-name="questiondown" d="M338 523Q368 523 389 503T410 453Q410 424 389 403T338 382Q307 382 286 403T265 453Q265 482 286 502T338 523ZM365 150Q335 141 306 126T253 89T214 38T199 -30Q199 -60 208 -82T233 -118T269 -140T310
-147Q339 -147 349 -140T364 -106Q369 -74 382 -60T422 -45Q451 -45 463 -61T475 -98Q475 -121 463 -137T430 -165T383 -182T328 -188Q279 -188 239 -176T171 -141T127 -81T111 3Q111 45 126 79T169 141T233 189T313 223V315H365V150Z" />
<glyph unicode="&#xc0;" glyph-name="Agrave" d="M181 278H339L260 532H256L181 278ZM184 0H11V31L26 36Q35 39 41 43T54 56T68 82T84 128L257 693H318L499 117Q507 91 513 77T527 54T540 43T555 36L567 31V0H346V31L370 38Q387 43 393 49T400 67Q400 78 396 92T386
126L353 233H168L136 126Q130 106 127 95T124 72Q124 56 132 50T157 38L184 31V0ZM203 812Q182 819 174 832T166 858Q166 874 178 887T207 901Q223 901 246 886L409 772L398 748L203 812Z" />
<glyph unicode="&#xc1;" glyph-name="Aacute" d="M181 278H339L260 532H256L181 278ZM184 0H11V31L26 36Q35 39 41 43T54 56T68 82T84 128L257 693H318L499 117Q507 91 513 77T527 54T540 43T555 36L567 31V0H346V31L370 38Q387 43 393 49T400 67Q400 78 396 92T386
126L353 233H168L136 126Q130 106 127 95T124 72Q124 56 132 50T157 38L184 31V0ZM172 772L334 886Q356 901 373 901Q390 901 402 888T414 858Q414 845 406 832T377 812L183 748L172 772Z" />
<glyph unicode="&#xc2;" glyph-name="Acircumflex" d="M181 278H339L260 532H256L181 278ZM184 0H11V31L26 36Q35 39 41 43T54 56T68 82T84 128L257 693H318L499 117Q507 91 513 77T527 54T540 43T555 36L567 31V0H346V31L370 38Q387 43 393 49T400 67Q400 78
396 92T386 126L353 233H168L136 126Q130 106 127 95T124 72Q124 56 132 50T157 38L184 31V0ZM449 770L431 746L290 816L149 746L132 770L264 897H315L449 770Z" />
<glyph unicode="&#xc3;" glyph-name="Atilde" d="M181 278H339L260 532H256L181 278ZM184 0H11V31L26 36Q35 39 41 43T54 56T68 82T84 128L257 693H318L499 117Q507 91 513 77T527 54T540 43T555 36L567 31V0H346V31L370 38Q387 43 393 49T400 67Q400 78 396 92T386
126L353 233H168L136 126Q130 106 127 95T124 72Q124 56 132 50T157 38L184 31V0ZM121 777Q143 836 165 863T219 891Q234 891 254 885T293 871T329 857T355 850Q371 850 384 861T415 906L447 893Q425 833 403 806T349 779Q334 779 315 785T276 799T240 813T213
820Q197 820 185 809T155 763L121 777Z" />
<glyph unicode="&#xc4;" glyph-name="Adieresis" d="M181 278H339L260 532H256L181 278ZM184 0H11V31L26 36Q35 39 41 43T54 56T68 82T84 128L257 693H318L499 117Q507 91 513 77T527 54T540 43T555 36L567 31V0H346V31L370 38Q387 43 393 49T400 67Q400 78 396
92T386 126L353 233H168L136 126Q130 106 127 95T124 72Q124 56 132 50T157 38L184 31V0ZM399 752Q371 752 352 771T333 815Q333 841 352 859T399 878Q426 878 445 860T464 815Q464 791 445 772T399 752ZM182 751Q155 751 136 770T116 814Q116 840 135 858T182
877Q209 877 228 859T248 814Q248 790 229 771T182 751Z" />
<glyph unicode="&#xc5;" glyph-name="Aring" d="M181 278H339L260 532H256L181 278ZM184 0H11V31L26 36Q35 39 41 43T54 56T68 82T84 128L257 693H318L499 117Q507 91 513 77T527 54T540 43T555 36L567 31V0H346V31L370 38Q387 43 393 49T400 67Q400 78 396 92T386
126L353 233H168L136 126Q130 106 127 95T124 72Q124 56 132 50T157 38L184 31V0ZM290 738Q268 738 250 746T218 767T196 798T188 836Q188 878 217 906T290 935Q334 935 363 907T392 836Q392 816 384 799T363 768T331 746T290 738ZM290 776Q316 776 332 793T348
836Q348 862 332 879T290 897Q264 897 248 880T232 836Q232 810 248 793T290 776Z" />
<glyph unicode="&#xc6;" glyph-name="AE" d="M264 591Q264 596 264 601T263 610H258L146 266H264V591ZM133 0H0V31L4 33Q10 36 15 40T25 53T38 82T57 134L228 652L174 663V693H549L557 516H526Q515 553 507 576T490 617Q479 638 464 643T420 649Q399 649 385 647T362
640V383H391Q414 383 423 387T439 407Q448 429 451 445T460 481H490V239H460Q455 259 452 274T438 318Q436 324 433 328T425 334T412 336T390 337H362V107Q362 84 364 71T373 52T388 45T412 44Q432 44 444 44T465 48T478 59T489 81Q500 110 508 140T527 209H558L549
0H214V31L239 40Q246 41 250 44T258 53T262 70T264 100V221H132L103 132Q96 110 93 95T89 69Q89 55 95 48T116 36L133 31V0Z" />
<glyph unicode="&#xc7;" glyph-name="Ccedilla" d="M200 -212Q262 -198 285 -180T309 -142Q309 -109 239 -103L230 -94L275 -7Q247 -2 222 8Q170 28 132 70T73 180T52 341Q52 441 76 510T141 623T237 685T354 705Q404 705 445 698T516 681L524 483H493Q479 521
465 558T434 622Q420 645 402 652T344 659Q300 659 267 645T211 595T178 503T167 360Q167 268 177 206T209 106T261 51T335 34Q362 34 379 38T409 49T429 66T446 91Q455 107 462 120T475 147T486 176T498 212H527L519 32Q489 15 441 2T337 -12Q328 -12 319 -11L286
-57Q336 -61 361 -80T386 -128Q386 -145 375 -162T342 -195T284 -223T200 -239V-212Z" />
<glyph unicode="&#xc8;" glyph-name="Egrave" d="M38 31L74 40Q82 41 87 44T96 53T101 70T103 100V594Q103 613 102 624T97 641T88 649T74 654L38 663V693H503L514 516H481Q467 553 457 575T438 610Q429 624 421 632T400 643T370 648T325 649Q280 649 252 647T212
640V383H243Q293 383 319 388T355 414Q363 431 368 445T378 483H410V237H378Q372 260 368 273T355 306Q347 329 323 333T243 337H212V152Q212 112 216 90T232 58T269 46T332 44Q361 44 379 45T409 49T430 60T448 81Q459 97 473 132T501 209H534L521 0H38V31ZM203
812Q182 819 174 832T166 858Q166 874 178 887T207 901Q223 901 246 886L409 772L398 748L203 812Z" />
<glyph unicode="&#xc9;" glyph-name="Eacute" d="M38 31L74 40Q82 41 87 44T96 53T101 70T103 100V594Q103 613 102 624T97 641T88 649T74 654L38 663V693H503L514 516H481Q467 553 457 575T438 610Q429 624 421 632T400 643T370 648T325 649Q280 649 252 647T212
640V383H243Q293 383 319 388T355 414Q363 431 368 445T378 483H410V237H378Q372 260 368 273T355 306Q347 329 323 333T243 337H212V152Q212 112 216 90T232 58T269 46T332 44Q361 44 379 45T409 49T430 60T448 81Q459 97 473 132T501 209H534L521 0H38V31ZM172
772L334 886Q356 901 373 901Q390 901 402 888T414 858Q414 845 406 832T377 812L183 748L172 772Z" />
<glyph unicode="&#xca;" glyph-name="Ecircumflex" d="M38 31L74 40Q82 41 87 44T96 53T101 70T103 100V594Q103 613 102 624T97 641T88 649T74 654L38 663V693H503L514 516H481Q467 553 457 575T438 610Q429 624 421 632T400 643T370 648T325 649Q280 649 252
647T212 640V383H243Q293 383 319 388T355 414Q363 431 368 445T378 483H410V237H378Q372 260 368 273T355 306Q347 329 323 333T243 337H212V152Q212 112 216 90T232 58T269 46T332 44Q361 44 379 45T409 49T430 60T448 81Q459 97 473 132T501 209H534L521 0H38V31ZM449
770L431 746L290 816L149 746L132 770L264 897H315L449 770Z" />
<glyph unicode="&#xcb;" glyph-name="Edieresis" d="M38 31L74 40Q82 41 87 44T96 53T101 70T103 100V594Q103 613 102 624T97 641T88 649T74 654L38 663V693H503L514 516H481Q467 553 457 575T438 610Q429 624 421 632T400 643T370 648T325 649Q280 649 252 647T212
640V383H243Q293 383 319 388T355 414Q363 431 368 445T378 483H410V237H378Q372 260 368 273T355 306Q347 329 323 333T243 337H212V152Q212 112 216 90T232 58T269 46T332 44Q361 44 379 45T409 49T430 60T448 81Q459 97 473 132T501 209H534L521 0H38V31ZM399
752Q371 752 352 771T333 815Q333 841 352 859T399 878Q426 878 445 860T464 815Q464 791 445 772T399 752ZM182 751Q155 751 136 770T116 814Q116 840 135 858T182 877Q209 877 228 859T248 814Q248 790 229 771T182 751Z" />
<glyph unicode="&#xcc;" glyph-name="Igrave" d="M114 34L163 41Q184 44 197 47T219 56T231 73T235 103V591Q235 610 232 621T220 638T198 647T163 653L114 660V693H476V660L416 652Q395 649 381 646T359 637T347 621T344 591V103Q344 84 347 74T358 57T381 48T416
42L476 34V0H114V34ZM203 812Q182 819 174 832T166 858Q166 874 178 887T207 901Q223 901 246 886L409 772L398 748L203 812Z" />
<glyph unicode="&#xcd;" glyph-name="Iacute" d="M114 34L163 41Q184 44 197 47T219 56T231 73T235 103V591Q235 610 232 621T220 638T198 647T163 653L114 660V693H476V660L416 652Q395 649 381 646T359 637T347 621T344 591V103Q344 84 347 74T358 57T381 48T416
42L476 34V0H114V34ZM172 772L334 886Q356 901 373 901Q390 901 402 888T414 858Q414 845 406 832T377 812L183 748L172 772Z" />
<glyph unicode="&#xce;" glyph-name="Icircumflex" d="M114 34L163 41Q184 44 197 47T219 56T231 73T235 103V591Q235 610 232 621T220 638T198 647T163 653L114 660V693H476V660L416 652Q395 649 381 646T359 637T347 621T344 591V103Q344 84 347 74T358 57T381
48T416 42L476 34V0H114V34ZM449 770L431 746L290 816L149 746L132 770L264 897H315L449 770Z" />
<glyph unicode="&#xcf;" glyph-name="Idieresis" d="M114 34L163 41Q184 44 197 47T219 56T231 73T235 103V591Q235 610 232 621T220 638T198 647T163 653L114 660V693H476V660L416 652Q395 649 381 646T359 637T347 621T344 591V103Q344 84 347 74T358 57T381
48T416 42L476 34V0H114V34ZM399 752Q371 752 352 771T333 815Q333 841 352 859T399 878Q426 878 445 860T464 815Q464 791 445 772T399 752ZM182 751Q155 751 136 770T116 814Q116 840 135 858T182 877Q209 877 228 859T248 814Q248 790 229 771T182 751Z" />
<glyph unicode="&#xd0;" glyph-name="Eth" d="M11 372H80V594Q80 613 79 624T73 641T61 651T42 658L22 663V693H272Q331 693 381 676T468 619T526 514T547 353Q547 265 527 199T470 89T382 22T268 0H22V31L42 36Q54 39 61 42T72 52T78 70T80 100V329H11V372ZM261
42Q312 42 345 63T397 123T425 215T433 334Q433 417 424 477T394 575T340 632T259 651Q230 651 215 649T189 642V372H333V329H189V139Q189 109 191 90T201 61T223 46T261 42Z" />
<glyph unicode="&#xd1;" glyph-name="Ntilde" d="M133 603H129V110Q129 87 130 74T136 54T147 43T166 38L201 31V0H16V31L45 38Q54 40 61 43T72 53T79 74T81 110V594Q81 613 80 624T75 641T66 649T52 654L16 663V693H202L453 209H457V584Q457 606 456 619T450
640T439 651T420 656L381 663V693H567V663L542 656Q532 653 525 650T514 640T507 620T505 584V-4H451L133 603ZM141 777Q163 836 185 863T239 891Q254 891 274 885T313 871T349 857T375 850Q391 850 404 861T435 906L467 893Q445 833 423 806T369 779Q354 779 335
785T296 799T260 813T233 820Q217 820 205 809T175 763L141 777Z" />
<glyph unicode="&#xd2;" glyph-name="Ograve" d="M286 -12Q230 -12 184 10T104 77T52 186T33 337Q33 434 54 503T110 618T193 684T294 705Q350 705 396 682T476 614T528 503T547 351Q547 254 526 185T470 73T387 9T286 -12ZM292 37Q333 37 360 53T404 105T426
197T433 334Q433 394 428 452T408 555T364 629T287 657Q246 657 219 640T176 586T154 492T147 354Q147 294 151 237T171 136T215 64T292 37ZM203 812Q182 819 174 832T166 858Q166 874 178 887T207 901Q223 901 246 886L409 772L398 748L203 812Z" />
<glyph unicode="&#xd3;" glyph-name="Oacute" d="M286 -12Q230 -12 184 10T104 77T52 186T33 337Q33 434 54 503T110 618T193 684T294 705Q350 705 396 682T476 614T528 503T547 351Q547 254 526 185T470 73T387 9T286 -12ZM292 37Q333 37 360 53T404 105T426
197T433 334Q433 394 428 452T408 555T364 629T287 657Q246 657 219 640T176 586T154 492T147 354Q147 294 151 237T171 136T215 64T292 37ZM172 772L334 886Q356 901 373 901Q390 901 402 888T414 858Q414 845 406 832T377 812L183 748L172 772Z" />
<glyph unicode="&#xd4;" glyph-name="Ocircumflex" d="M286 -12Q230 -12 184 10T104 77T52 186T33 337Q33 434 54 503T110 618T193 684T294 705Q350 705 396 682T476 614T528 503T547 351Q547 254 526 185T470 73T387 9T286 -12ZM292 37Q333 37 360 53T404 105T426
197T433 334Q433 394 428 452T408 555T364 629T287 657Q246 657 219 640T176 586T154 492T147 354Q147 294 151 237T171 136T215 64T292 37ZM449 770L431 746L290 816L149 746L132 770L264 897H315L449 770Z" />
<glyph unicode="&#xd5;" glyph-name="Otilde" d="M286 -12Q230 -12 184 10T104 77T52 186T33 337Q33 434 54 503T110 618T193 684T294 705Q350 705 396 682T476 614T528 503T547 351Q547 254 526 185T470 73T387 9T286 -12ZM292 37Q333 37 360 53T404 105T426
197T433 334Q433 394 428 452T408 555T364 629T287 657Q246 657 219 640T176 586T154 492T147 354Q147 294 151 237T171 136T215 64T292 37ZM121 777Q143 836 165 863T219 891Q234 891 254 885T293 871T329 857T355 850Q371 850 384 861T415 906L447 893Q425 833
403 806T349 779Q334 779 315 785T276 799T240 813T213 820Q197 820 185 809T155 763L121 777Z" />
<glyph unicode="&#xd6;" glyph-name="Odieresis" d="M286 -12Q230 -12 184 10T104 77T52 186T33 337Q33 434 54 503T110 618T193 684T294 705Q350 705 396 682T476 614T528 503T547 351Q547 254 526 185T470 73T387 9T286 -12ZM292 37Q333 37 360 53T404 105T426
197T433 334Q433 394 428 452T408 555T364 629T287 657Q246 657 219 640T176 586T154 492T147 354Q147 294 151 237T171 136T215 64T292 37ZM399 752Q371 752 352 771T333 815Q333 841 352 859T399 878Q426 878 445 860T464 815Q464 791 445 772T399 752ZM182 751Q155
751 136 770T116 814Q116 840 135 858T182 877Q209 877 228 859T248 814Q248 790 229 771T182 751Z" />
<glyph unicode="&#xd7;" glyph-name="multiply" d="M101 166L250 320L101 474L146 517L293 363L442 517L483 475L334 321L483 167L439 124L290 278L144 124L101 166Z" />
<glyph unicode="&#xd8;" glyph-name="Oslash" d="M147 354Q147 302 149 258T157 178L403 583Q387 619 360 638T287 657Q246 657 219 640T176 586T154 492T147 354ZM292 37Q333 37 360 53T404 105T426 197T433 334Q433 388 431 434T422 518L175 112Q191 75 218
56T292 37ZM286 -12Q197 -12 133 44L74 -54H16L99 83Q67 127 50 190T33 337Q33 434 54 503T110 618T193 684T294 705Q382 705 443 650L486 720H545L479 611Q511 566 529 501T547 351Q547 254 526 185T470 73T387 9T286 -12Z" />
<glyph unicode="&#xd9;" glyph-name="Ugrave" d="M298 -12Q246 -12 204 0T131 38T85 105T68 205V594Q68 613 67 624T62 641T53 650T39 655L12 663V693H241V663L206 654Q197 652 191 649T182 640T178 624T177 594V195Q177 115 210 81T324 46Q398 46 431 86T465
204V584Q465 606 464 619T458 640T447 651T428 656L387 663V693H567V663L549 657Q540 654 533 651T522 640T515 620T512 584V197Q512 155 500 117T462 51T396 5T298 -12ZM203 812Q182 819 174 832T166 858Q166 874 178 887T207 901Q223 901 246 886L409 772L398
748L203 812Z" />
<glyph unicode="&#xda;" glyph-name="Uacute" d="M298 -12Q246 -12 204 0T131 38T85 105T68 205V594Q68 613 67 624T62 641T53 650T39 655L12 663V693H241V663L206 654Q197 652 191 649T182 640T178 624T177 594V195Q177 115 210 81T324 46Q398 46 431 86T465
204V584Q465 606 464 619T458 640T447 651T428 656L387 663V693H567V663L549 657Q540 654 533 651T522 640T515 620T512 584V197Q512 155 500 117T462 51T396 5T298 -12ZM202 772L364 886Q386 901 403 901Q420 901 432 888T444 858Q444 845 436 832T407 812L213
748L202 772Z" />
<glyph unicode="&#xdb;" glyph-name="Ucircumflex" d="M298 -12Q246 -12 204 0T131 38T85 105T68 205V594Q68 613 67 624T62 641T53 650T39 655L12 663V693H241V663L206 654Q197 652 191 649T182 640T178 624T177 594V195Q177 115 210 81T324 46Q398 46 431 86T465
204V584Q465 606 464 619T458 640T447 651T428 656L387 663V693H567V663L549 657Q540 654 533 651T522 640T515 620T512 584V197Q512 155 500 117T462 51T396 5T298 -12ZM476 770L458 746L317 816L176 746L159 770L291 897H342L476 770Z" />
<glyph unicode="&#xdc;" glyph-name="Udieresis" d="M298 -12Q246 -12 204 0T131 38T85 105T68 205V594Q68 613 67 624T62 641T53 650T39 655L12 663V693H241V663L206 654Q197 652 191 649T182 640T178 624T177 594V195Q177 115 210 81T324 46Q398 46 431 86T465
204V584Q465 606 464 619T458 640T447 651T428 656L387 663V693H567V663L549 657Q540 654 533 651T522 640T515 620T512 584V197Q512 155 500 117T462 51T396 5T298 -12ZM417 752Q389 752 370 771T351 815Q351 841 370 859T417 878Q444 878 463 860T482 815Q482
791 463 772T417 752ZM200 751Q173 751 154 770T134 814Q134 840 153 858T200 877Q227 877 246 859T266 814Q266 790 247 771T200 751Z" />
<glyph unicode="&#xdd;" glyph-name="Yacute" d="M172 31L211 40Q220 42 225 44T234 53T238 70T240 100V280L108 567Q96 591 88 607T72 632T57 647T41 656L21 663V693H263V663L241 657Q221 652 214 644T206 621Q206 611 211 599T224 567L319 345H323L417 567Q425
586 428 598T432 621Q432 647 401 656L375 663V693H560V663L542 656Q531 652 523 647T506 630T488 601T466 553L349 288V100Q349 81 350 70T354 53T363 45T379 40L418 31V0H172V31ZM200 772L362 886Q384 901 401 901Q418 901 430 888T442 858Q442 845 434 832T405
812L211 748L200 772Z" />
<glyph unicode="&#xde;" glyph-name="Thorn" d="M35 0V31L80 40Q89 41 94 44T104 53T109 70T111 100V594Q111 613 110 624T104 641T95 649T80 654L35 663V693H298V663L251 654Q241 652 235 649T226 640T221 624T220 594V556H301Q422 556 485 507T549 367Q549 320
533 283T487 220T416 179T324 165Q298 165 283 168T262 174V207Q304 206 337 212T392 235T426 281T438 357Q438 444 404 478T294 512Q265 512 248 510T220 505V100Q220 81 221 70T225 53T235 45T251 40L298 31V0H35Z" />
<glyph unicode="&#xdf;" glyph-name="germandbls" d="M408 31Q443 31 456 49T470 98Q470 125 456 146T419 187T371 225T323 263T287 305T272 357Q272 389 289 419T326 482T364 550T381 629Q381 650 378 668T365 701T340 724T298 732Q251 732 222 698T192 595V93Q192
77 192 67T195 51T202 42T214 36L232 30V0H29V30L65 41Q80 45 86 54T92 93V456H26V486L92 510V541Q92 606 114 649T168 719T237 756T303 767Q352 767 386 757T443 730T476 690T487 644Q487 604 465 570T415 507T365 452T342 406Q342 388 357 371T396 335T445 297T495
252T533 199T549 134Q549 98 537 71T504 27T456 2T398 -7Q326 -7 292 17T258 81Q258 102 271 116T309 131Q336 131 347 119T362 82Q367 52 377 42T408 31Z" />
<glyph unicode="&#xe0;" glyph-name="agrave" d="M251 44Q287 44 318 58T360 91V244L274 237Q217 232 188 209T158 128Q158 84 182 64T251 44ZM208 -13Q138 -13 97 21T56 120Q56 182 99 216T234 270L360 296V389Q360 414 356 432T341 463T311 480T259 486Q226
486 217 478T204 446Q200 417 189 398T144 379Q114 379 103 394T91 429Q91 454 108 472T154 502T215 519T280 525Q460 525 460 395V100Q460 80 466 68T487 48Q495 43 507 42T536 39V11Q524 3 499 -4T448 -12Q410 -12 390 4T364 46H359Q350 34 334 23T297 4T253
-8T208 -13ZM203 657Q182 664 174 677T166 703Q166 719 178 732T207 746Q223 746 246 731L409 617L398 593L203 657Z" />
<glyph unicode="&#xe1;" glyph-name="aacute" d="M251 44Q287 44 318 58T360 91V244L274 237Q217 232 188 209T158 128Q158 84 182 64T251 44ZM208 -13Q138 -13 97 21T56 120Q56 182 99 216T234 270L360 296V389Q360 414 356 432T341 463T311 480T259 486Q226
486 217 478T204 446Q200 417 189 398T144 379Q114 379 103 394T91 429Q91 454 108 472T154 502T215 519T280 525Q460 525 460 395V100Q460 80 466 68T487 48Q495 43 507 42T536 39V11Q524 3 499 -4T448 -12Q410 -12 390 4T364 46H359Q350 34 334 23T297 4T253
-8T208 -13ZM172 617L334 731Q356 746 373 746Q390 746 402 733T414 703Q414 690 406 677T377 657L183 593L172 617Z" />
<glyph unicode="&#xe2;" glyph-name="acircumflex" d="M251 44Q287 44 318 58T360 91V244L274 237Q217 232 188 209T158 128Q158 84 182 64T251 44ZM208 -13Q138 -13 97 21T56 120Q56 182 99 216T234 270L360 296V389Q360 414 356 432T341 463T311 480T259 486Q226
486 217 478T204 446Q200 417 189 398T144 379Q114 379 103 394T91 429Q91 454 108 472T154 502T215 519T280 525Q460 525 460 395V100Q460 80 466 68T487 48Q495 43 507 42T536 39V11Q524 3 499 -4T448 -12Q410 -12 390 4T364 46H359Q350 34 334 23T297 4T253
-8T208 -13ZM697 610L679 586L538 670L397 586L380 610L512 751H563L697 610Z" />
<glyph unicode="&#xe3;" glyph-name="atilde" d="M251 44Q287 44 318 58T360 91V244L274 237Q217 232 188 209T158 128Q158 84 182 64T251 44ZM208 -13Q138 -13 97 21T56 120Q56 182 99 216T234 270L360 296V389Q360 414 356 432T341 463T311 480T259 486Q226
486 217 478T204 446Q200 417 189 398T144 379Q114 379 103 394T91 429Q91 454 108 472T154 502T215 519T280 525Q460 525 460 395V100Q460 80 466 68T487 48Q495 43 507 42T536 39V11Q524 3 499 -4T448 -12Q410 -12 390 4T364 46H359Q350 34 334 23T297 4T253
-8T208 -13ZM121 597Q143 660 165 690T219 721Q234 721 254 715T293 701T329 687T355 680Q371 680 384 695T415 746L447 733Q425 670 403 640T349 609Q334 609 315 615T276 629T240 643T213 650Q197 650 185 634T155 583L121 597Z" />
<glyph unicode="&#xe4;" glyph-name="adieresis" d="M251 44Q287 44 318 58T360 91V244L274 237Q217 232 188 209T158 128Q158 84 182 64T251 44ZM208 -13Q138 -13 97 21T56 120Q56 182 99 216T234 270L360 296V389Q360 414 356 432T341 463T311 480T259 486Q226
486 217 478T204 446Q200 417 189 398T144 379Q114 379 103 394T91 429Q91 454 108 472T154 502T215 519T280 525Q460 525 460 395V100Q460 80 466 68T487 48Q495 43 507 42T536 39V11Q524 3 499 -4T448 -12Q410 -12 390 4T364 46H359Q350 34 334 23T297 4T253
-8T208 -13ZM643 616Q615 616 596 635T577 679Q577 705 596 723T643 742Q670 742 689 724T708 679Q708 655 689 636T643 616ZM442 616Q415 616 396 635T376 679Q376 705 395 723T442 742Q469 742 488 724T508 679Q508 655 489 636T442 616Z" />
<glyph unicode="&#xe5;" glyph-name="aring" d="M251 44Q287 44 318 58T360 91V244L274 237Q217 232 188 209T158 128Q158 84 182 64T251 44ZM208 -13Q138 -13 97 21T56 120Q56 182 99 216T234 270L360 296V389Q360 414 356 432T341 463T311 480T259 486Q226 486
217 478T204 446Q200 417 189 398T144 379Q114 379 103 394T91 429Q91 454 108 472T154 502T215 519T280 525Q460 525 460 395V100Q460 80 466 68T487 48Q495 43 507 42T536 39V11Q524 3 499 -4T448 -12Q410 -12 390 4T364 46H359Q350 34 334 23T297 4T253 -8T208
-13ZM542 588Q520 588 502 596T470 617T448 648T440 686Q440 728 469 756T542 785Q586 785 615 757T644 686Q644 666 636 649T615 618T583 596T542 588ZM542 626Q568 626 584 643T600 686Q600 712 584 729T542 747Q516 747 500 730T484 686Q484 660 500 643T542
626Z" />
<glyph unicode="&#xe6;" glyph-name="ae" d="M392 483Q361 483 340 441T314 308L452 313Q452 363 450 395T440 447T422 475T392 483ZM169 45Q216 45 243 109Q226 166 225 250L182 244Q166 242 153 236T130 217T115 186T109 139Q109 88 126 67T169 45ZM134 -13Q78
-13 48 22T18 129Q18 160 27 185T53 229T91 261T137 280L225 300V389Q225 440 213 463T164 486Q144 486 138 480T129 453Q126 424 116 405T79 386Q56 386 46 399T35 432Q35 457 47 474T79 503T126 519T179 525Q263 525 289 465Q332 525 397 525Q431 525 458 513T505
472T534 392T545 264H314Q315 199 323 158T346 94T381 61T427 52Q464 52 489 61T534 84V44Q526 36 513 26T482 8T442 -6T394 -12Q301 -12 261 65H258Q210 -13 134 -13Z" />
<glyph unicode="&#xe7;" glyph-name="ccedilla" d="M188 -212Q250 -198 273 -180T297 -142Q297 -109 227 -103L218 -94L263 -7Q237 -2 215 7Q171 27 141 61T96 143T81 248Q81 329 108 382T177 467T269 512T366 525Q438 525 472 502T507 441Q507 418 491 397T448
376Q419 376 408 390T392 430Q387 464 377 473T340 482Q309 482 281 472T232 437T199 376T187 284Q187 171 230 112T359 52Q410 52 449 66T513 95V55Q501 45 483 33T439 11T383 -5T317 -12H307L274 -57Q324 -61 349 -80T374 -128Q374 -145 363 -162T330 -195T272
-223T188 -239V-212Z" />
<glyph unicode="&#xe8;" glyph-name="egrave" d="M304 483Q249 483 211 443T166 313L408 324Q408 412 385 447T304 483ZM507 53Q497 45 479 34T435 12T379 -5T311 -12Q248 -12 201 7T122 63T75 149T59 260Q59 320 79 369T134 452T213 506T308 525Q356 525 395
512T461 468T504 389T520 270H165Q166 213 179 172T216 104T272 65T344 52Q402 52 440 65T507 93V53ZM211 657Q190 664 182 677T174 703Q174 719 186 732T215 746Q231 746 254 731L417 617L406 593L211 657Z" />
<glyph unicode="&#xe9;" glyph-name="eacute" d="M304 483Q249 483 211 443T166 313L408 324Q408 412 385 447T304 483ZM507 53Q497 45 479 34T435 12T379 -5T311 -12Q248 -12 201 7T122 63T75 149T59 260Q59 320 79 369T134 452T213 506T308 525Q356 525 395
512T461 468T504 389T520 270H165Q166 213 179 172T216 104T272 65T344 52Q402 52 440 65T507 93V53ZM182 617L344 731Q366 746 383 746Q400 746 412 733T424 703Q424 690 416 677T387 657L193 593L182 617Z" />
<glyph unicode="&#xea;" glyph-name="ecircumflex" d="M304 483Q249 483 211 443T166 313L408 324Q408 412 385 447T304 483ZM507 53Q497 45 479 34T435 12T379 -5T311 -12Q248 -12 201 7T122 63T75 149T59 260Q59 320 79 369T134 452T213 506T308 525Q356 525
395 512T461 468T504 389T520 270H165Q166 213 179 172T216 104T272 65T344 52Q402 52 440 65T507 93V53ZM459 610L441 586L300 670L159 586L142 610L274 751H325L459 610Z" />
<glyph unicode="&#xeb;" glyph-name="edieresis" d="M304 483Q249 483 211 443T166 313L408 324Q408 412 385 447T304 483ZM507 53Q497 45 479 34T435 12T379 -5T311 -12Q248 -12 201 7T122 63T75 149T59 260Q59 320 79 369T134 452T213 506T308 525Q356 525 395
512T461 468T504 389T520 270H165Q166 213 179 172T216 104T272 65T344 52Q402 52 440 65T507 93V53ZM398 616Q370 616 351 635T332 679Q332 705 351 723T398 742Q425 742 444 724T463 679Q463 655 444 636T398 616ZM197 616Q170 616 151 635T131 679Q131 705 150
723T197 742Q224 742 243 724T263 679Q263 655 244 636T197 616Z" />
<glyph unicode="&#xec;" glyph-name="igrave" d="M105 30L159 41Q184 46 199 52T221 69T231 95T233 132V340Q233 366 231 382T223 410T203 429T165 445L105 466V492L330 523L340 517Q338 505 336 488Q333 459 333 405V132Q333 109 335 94T343 69T361 53T395 43L460
30V0H105V30ZM430 657Q409 664 401 677T393 703Q393 719 405 732T434 746Q450 746 473 731L636 617L625 593L430 657Z" />
<glyph unicode="&#xed;" glyph-name="iacute" d="M105 30L159 41Q184 46 199 52T221 69T231 95T233 132V340Q233 366 231 382T223 410T203 429T165 445L105 466V492L330 523L340 517Q338 505 336 488Q333 459 333 405V132Q333 109 335 94T343 69T361 53T395 43L460
30V0H105V30ZM399 617L561 731Q583 746 600 746Q617 746 629 733T641 703Q641 690 633 677T604 657L410 593L399 617Z" />
<glyph unicode="&#xee;" glyph-name="icircumflex" d="M105 30L159 41Q184 46 199 52T221 69T231 95T233 132V340Q233 366 231 382T223 410T203 429T165 445L105 466V492L330 523L340 517Q338 505 336 488Q333 459 333 405V132Q333 109 335 94T343 69T361 53T395
43L460 30V0H105V30ZM693 610L675 586L534 670L393 586L376 610L508 751H559L693 610Z" />
<glyph unicode="&#xef;" glyph-name="idieresis" d="M105 30L159 41Q184 46 199 52T221 69T231 95T233 132V340Q233 366 231 382T223 410T203 429T165 445L105 466V492L330 523L340 517Q338 505 336 488Q333 459 333 405V132Q333 109 335 94T343 69T361 53T395
43L460 30V0H105V30ZM628 616Q600 616 581 635T562 679Q562 705 581 723T628 742Q655 742 674 724T693 679Q693 655 674 636T628 616ZM427 616Q400 616 381 635T361 679Q361 705 380 723T427 742Q454 742 473 724T493 679Q493 655 474 636T427 616Z" />
<glyph unicode="&#xf0;" glyph-name="eth" d="M290 -13Q238 -13 194 4T119 54T70 138T52 255Q52 321 71 371T123 455T197 507T284 525Q319 525 344 514T393 482Q382 520 351 561T274 640L138 579L123 614L241 667Q185 709 123 740L139 770Q234 739 305 695L410
742L426 707L343 670Q437 602 481 509T526 293Q526 207 506 149T453 54T378 3T290 -13ZM294 30Q360 30 389 82T419 247Q419 312 412 357T388 430T347 470T286 483Q220 483 191 433T161 269Q161 205 168 160T192 86T233 44T294 30Z" />
<glyph unicode="&#xf1;" glyph-name="ntilde" d="M30 30L67 41Q82 45 87 54T93 93V403Q93 418 92 426T88 440T80 449T65 457L30 476V502L183 523L193 517L188 461H192Q227 485 273 504T365 524Q434 524 462 492T491 391V93Q491 64 497 55T518 41L553 30V0H330V30L366
41Q373 43 378 45T386 53T390 67T391 93V363Q391 416 374 437T312 458Q279 458 246 447T193 427V93Q193 77 194 68T198 53T205 46T218 41L254 30V0H30V30ZM121 597Q143 660 165 690T219 721Q234 721 254 715T293 701T329 687T355 680Q371 680 384 695T415 746L447
733Q425 670 403 640T349 609Q334 609 315 615T276 629T240 643T213 650Q197 650 185 634T155 583L121 597Z" />
<glyph unicode="&#xf2;" glyph-name="ograve" d="M291 -13Q241 -13 197 4T121 54T71 138T52 255Q52 321 72 371T125 455T202 507T291 525Q340 525 383 509T459 459T509 377T528 261Q528 195 508 144T455 58T380 5T291 -13ZM294 30Q355 30 387 82T419 247Q419 374
386 428T287 483Q226 483 194 433T161 269Q161 141 194 86T294 30ZM203 657Q182 664 174 677T166 703Q166 719 178 732T207 746Q223 746 246 731L409 617L398 593L203 657Z" />
<glyph unicode="&#xf3;" glyph-name="oacute" d="M291 -13Q241 -13 197 4T121 54T71 138T52 255Q52 321 72 371T125 455T202 507T291 525Q340 525 383 509T459 459T509 377T528 261Q528 195 508 144T455 58T380 5T291 -13ZM294 30Q355 30 387 82T419 247Q419 374
386 428T287 483Q226 483 194 433T161 269Q161 141 194 86T294 30ZM172 617L334 731Q356 746 373 746Q390 746 402 733T414 703Q414 690 406 677T377 657L183 593L172 617Z" />
<glyph unicode="&#xf4;" glyph-name="ocircumflex" d="M291 -13Q241 -13 197 4T121 54T71 138T52 255Q52 321 72 371T125 455T202 507T291 525Q340 525 383 509T459 459T509 377T528 261Q528 195 508 144T455 58T380 5T291 -13ZM294 30Q355 30 387 82T419 247Q419
374 386 428T287 483Q226 483 194 433T161 269Q161 141 194 86T294 30ZM449 610L431 586L290 670L149 586L132 610L264 751H315L449 610Z" />
<glyph unicode="&#xf5;" glyph-name="otilde" d="M291 -13Q241 -13 197 4T121 54T71 138T52 255Q52 321 72 371T125 455T202 507T291 525Q340 525 383 509T459 459T509 377T528 261Q528 195 508 144T455 58T380 5T291 -13ZM294 30Q355 30 387 82T419 247Q419 374
386 428T287 483Q226 483 194 433T161 269Q161 141 194 86T294 30ZM121 597Q143 660 165 690T219 721Q234 721 254 715T293 701T329 687T355 680Q371 680 384 695T415 746L447 733Q425 670 403 640T349 609Q334 609 315 615T276 629T240 643T213 650Q197 650 185
634T155 583L121 597Z" />
<glyph unicode="&#xf6;" glyph-name="odieresis" d="M291 -13Q241 -13 197 4T121 54T71 138T52 255Q52 321 72 371T125 455T202 507T291 525Q340 525 383 509T459 459T509 377T528 261Q528 195 508 144T455 58T380 5T291 -13ZM294 30Q355 30 387 82T419 247Q419
374 386 428T287 483Q226 483 194 433T161 269Q161 141 194 86T294 30ZM391 616Q363 616 344 635T325 679Q325 705 344 723T391 742Q418 742 437 724T456 679Q456 655 437 636T391 616ZM190 616Q163 616 144 635T124 679Q124 705 143 723T190 742Q217 742 236 724T256
679Q256 655 237 636T190 616Z" />
<glyph unicode="&#xf7;" glyph-name="divide" d="M288 439Q259 439 240 458T221 505Q221 533 240 552T288 572Q317 572 336 553T356 505Q356 477 337 458T288 439ZM73 366H505V310H73V366ZM288 103Q259 103 240 122T221 170Q221 197 240 216T288 236Q317 236 336
217T356 170Q356 142 337 123T288 103Z" />
<glyph unicode="&#xf8;" glyph-name="oslash" d="M161 269Q161 179 174 128L388 432Q371 461 347 472T287 483Q226 483 194 433T161 269ZM294 30Q355 30 387 82T419 247Q419 333 407 384L193 81Q210 52 235 41T294 30ZM291 -13Q212 -13 155 26L98 -54H46L122 54Q90
88 71 138T52 255Q52 321 72 371T125 455T202 507T291 525Q368 525 427 486L477 558H529L459 459Q491 426 509 377T528 261Q528 195 508 144T455 58T380 5T291 -13Z" />
<glyph unicode="&#xf9;" glyph-name="ugrave" d="M216 -12Q157 -12 124 21T91 119V413Q91 427 90 435T86 447T78 454T65 461L27 479V506L176 523L191 513V142Q191 98 209 76T269 53Q302 53 335 65T393 90V413Q393 427 392 435T389 447T381 454T367 461L330 479V506L480
523L493 513V115Q493 98 494 88T498 72T506 61T521 53L555 36V9L404 -12L393 -4L398 56H394Q357 30 312 9T216 -12ZM203 657Q182 664 174 677T166 703Q166 719 178 732T207 746Q223 746 246 731L409 617L398 593L203 657Z" />
<glyph unicode="&#xfa;" glyph-name="uacute" d="M216 -12Q157 -12 124 21T91 119V413Q91 427 90 435T86 447T78 454T65 461L27 479V506L176 523L191 513V142Q191 98 209 76T269 53Q302 53 335 65T393 90V413Q393 427 392 435T389 447T381 454T367 461L330 479V506L480
523L493 513V115Q493 98 494 88T498 72T506 61T521 53L555 36V9L404 -12L393 -4L398 56H394Q357 30 312 9T216 -12ZM172 617L334 731Q356 746 373 746Q390 746 402 733T414 703Q414 690 406 677T377 657L183 593L172 617Z" />
<glyph unicode="&#xfb;" glyph-name="ucircumflex" d="M216 -12Q157 -12 124 21T91 119V413Q91 427 90 435T86 447T78 454T65 461L27 479V506L176 523L191 513V142Q191 98 209 76T269 53Q302 53 335 65T393 90V413Q393 427 392 435T389 447T381 454T367 461L330
479V506L480 523L493 513V115Q493 98 494 88T498 72T506 61T521 53L555 36V9L404 -12L393 -4L398 56H394Q357 30 312 9T216 -12ZM449 610L431 586L290 670L149 586L132 610L264 751H315L449 610Z" />
<glyph unicode="&#xfc;" glyph-name="udieresis" d="M216 -12Q157 -12 124 21T91 119V413Q91 427 90 435T86 447T78 454T65 461L27 479V506L176 523L191 513V142Q191 98 209 76T269 53Q302 53 335 65T393 90V413Q393 427 392 435T389 447T381 454T367 461L330
479V506L480 523L493 513V115Q493 98 494 88T498 72T506 61T521 53L555 36V9L404 -12L393 -4L398 56H394Q357 30 312 9T216 -12ZM391 616Q363 616 344 635T325 679Q325 705 344 723T391 742Q418 742 437 724T456 679Q456 655 437 636T391 616ZM190 616Q163 616
144 635T124 679Q124 705 143 723T190 742Q217 742 236 724T256 679Q256 655 237 636T190 616Z" />
<glyph unicode="&#xfd;" glyph-name="yacute" d="M127 -226Q80 -226 61 -206T41 -161Q41 -138 54 -123T90 -107Q114 -107 126 -119T144 -148Q148 -159 150 -162T160 -166Q177 -166 199 -141T245 -61L269 -4L101 405Q93 425 88 436T77 455T66 465T49 472L25 480V509H253V480L226
473Q209 468 203 463T197 443Q197 425 212 389L320 121H324L422 389Q429 409 431 423T434 447Q434 460 427 464T406 473L378 480V509H559V480L531 472Q522 469 516 465T505 453T494 430T480 395L299 -59Q284 -96 268 -126T231 -179T185 -213T127 -226ZM206 617L368
731Q390 746 407 746Q424 746 436 733T448 703Q448 690 440 677T411 657L217 593L206 617Z" />
<glyph unicode="&#xfe;" glyph-name="thorn" d="M272 33Q311 33 340 45T387 84T415 154T425 259Q425 362 390 411T295 461Q248 461 223 450T181 427V67Q200 49 221 41T272 33ZM81 648Q81 663 80 671T75 685T67 694T54 701L14 721V749L178 765L188 757Q186 745
184 727Q181 697 181 640V549Q181 532 181 517T179 490Q178 477 177 465H181Q211 489 253 506T343 524Q377 524 410 513T470 473T513 398T530 279Q530 208 510 154T454 62T369 7T262 -12Q245 -12 221 -9T178 1Q178 -7 179 -18Q180 -27 180 -38T181 -63V-127Q181
-143 182 -152T186 -167T194 -175T207 -179L255 -190V-219H18V-190L55 -179Q71 -175 76 -166T81 -127V648Z" />
<glyph unicode="&#xff;" glyph-name="ydieresis" d="M127 -226Q80 -226 61 -206T41 -161Q41 -138 54 -123T90 -107Q114 -107 126 -119T144 -148Q148 -159 150 -162T160 -166Q177 -166 199 -141T245 -61L269 -4L101 405Q93 425 88 436T77 455T66 465T49 472L25
480V509H253V480L226 473Q209 468 203 463T197 443Q197 425 212 389L320 121H324L422 389Q429 409 431 423T434 447Q434 460 427 464T406 473L378 480V509H559V480L531 472Q522 469 516 465T505 453T494 430T480 395L299 -59Q284 -96 268 -126T231 -179T185 -213T127
-226ZM415 616Q387 616 368 635T349 679Q349 705 368 723T415 742Q442 742 461 724T480 679Q480 655 461 636T415 616ZM214 616Q187 616 168 635T148 679Q148 705 167 723T214 742Q241 742 260 724T280 679Q280 655 261 636T214 616Z" />
<glyph unicode="&#x100;" glyph-name="Amacron" d="M181 278H339L260 532H256L181 278ZM184 0H11V31L26 36Q35 39 41 43T54 56T68 82T84 128L257 693H318L499 117Q507 91 513 77T527 54T540 43T555 36L567 31V0H346V31L370 38Q387 43 393 49T400 67Q400 78 396
92T386 126L353 233H168L136 126Q130 106 127 95T124 72Q124 56 132 50T157 38L184 31V0ZM148 842H432V777H148V842Z" />
<glyph unicode="&#x101;" glyph-name="amacron" d="M251 44Q287 44 318 58T360 91V244L274 237Q217 232 188 209T158 128Q158 84 182 64T251 44ZM208 -13Q138 -13 97 21T56 120Q56 182 99 216T234 270L360 296V389Q360 414 356 432T341 463T311 480T259 486Q226
486 217 478T204 446Q200 417 189 398T144 379Q114 379 103 394T91 429Q91 454 108 472T154 502T215 519T280 525Q460 525 460 395V100Q460 80 466 68T487 48Q495 43 507 42T536 39V11Q524 3 499 -4T448 -12Q410 -12 390 4T364 46H359Q350 34 334 23T297 4T253
-8T208 -13ZM393 693H677V628H393V693Z" />
<glyph unicode="&#x102;" glyph-name="Abreve" d="M181 278H339L260 532H256L181 278ZM184 0H11V31L26 36Q35 39 41 43T54 56T68 82T84 128L257 693H318L499 117Q507 91 513 77T527 54T540 43T555 36L567 31V0H346V31L370 38Q387 43 393 49T400 67Q400 78 396
92T386 126L353 233H168L136 126Q130 106 127 95T124 72Q124 56 132 50T157 38L184 31V0ZM291 755Q263 755 239 765T197 794T168 835T154 885L183 893Q194 865 221 846T290 827Q332 827 359 846T397 893L425 885Q423 859 412 836T384 794T343 766T291 755Z" />
<glyph unicode="&#x103;" glyph-name="abreve" d="M251 44Q287 44 318 58T360 91V244L274 237Q217 232 188 209T158 128Q158 84 182 64T251 44ZM208 -13Q138 -13 97 21T56 120Q56 182 99 216T234 270L360 296V389Q360 414 356 432T341 463T311 480T259 486Q226
486 217 478T204 446Q200 417 189 398T144 379Q114 379 103 394T91 429Q91 454 108 472T154 502T215 519T280 525Q460 525 460 395V100Q460 80 466 68T487 48Q495 43 507 42T536 39V11Q524 3 499 -4T448 -12Q410 -12 390 4T364 46H359Q350 34 334 23T297 4T253
-8T208 -13ZM532 594Q504 594 480 605T438 635T409 682T395 740L424 748Q435 713 462 689T531 664Q573 664 600 688T638 748L666 740Q664 709 653 682T625 636T584 605T532 594Z" />
<glyph unicode="&#x104;" glyph-name="Aogonek" d="M388 -223Q346 -223 319 -201T292 -139Q292 -99 327 -62T420 18L353 233H168L136 126Q130 106 127 95T124 72Q124 56 132 50T157 38L184 31V0H11V31L26 36Q35 39 41 43T54 56T68 82T84 128L257 693H318L499 117Q507
91 513 77T527 54T540 43T555 36L567 31V0H524Q489 0 463 -10T418 -38T391 -76T381 -119Q381 -153 400 -163T471 -171V-199Q459 -207 440 -215T388 -223ZM181 278H339L260 532H256L181 278Z" />
<glyph unicode="&#x105;" glyph-name="aogonek" d="M433 -223Q391 -223 364 -201T337 -139Q337 -119 345 -102T368 -68T401 -38T437 -12Q404 -9 387 7T364 46H359Q350 34 334 23T297 4T253 -8T208 -13Q138 -13 97 21T56 120Q56 182 99 216T234 270L360 296V389Q360
414 356 432T341 463T311 480T259 486Q226 486 217 478T204 446Q200 417 189 398T144 379Q114 379 103 394T91 429Q91 454 108 472T154 502T215 519T280 525Q460 525 460 395V100Q460 80 466 68T487 48Q495 43 507 42T536 39V11Q483 -15 455 -49T426 -119Q426 -139
433 -151T457 -168Q468 -170 482 -171T516 -171V-199Q504 -207 485 -215T433 -223ZM251 44Q287 44 318 58T360 91V244L274 237Q217 232 188 209T158 128Q158 84 182 64T251 44Z" />
<glyph unicode="&#x106;" glyph-name="Cacute" d="M337 -12Q274 -12 222 8T132 70T73 180T52 341Q52 441 76 510T141 623T237 685T354 705Q404 705 445 698T516 681L524 483H493Q479 521 465 558T434 622Q420 645 402 652T344 659Q300 659 267 645T211 595T178
503T167 360Q167 268 177 206T209 106T261 51T335 34Q362 34 379 38T409 49T429 66T446 91Q455 107 462 120T475 147T486 176T498 212H527L519 32Q489 15 441 2T337 -12ZM217 772L379 886Q401 901 418 901Q435 901 447 888T459 858Q459 845 451 832T422 812L228
748L217 772Z" />
<glyph unicode="&#x107;" glyph-name="cacute" d="M317 -12Q259 -12 215 7T141 61T96 143T81 248Q81 329 108 382T177 467T269 512T366 525Q438 525 472 502T507 441Q507 418 491 397T448 376Q419 376 408 390T392 430Q387 464 377 473T340 482Q309 482 281 472T232
437T199 376T187 284Q187 171 230 112T359 52Q410 52 449 66T513 95V55Q501 45 483 33T439 11T383 -5T317 -12ZM226 617L388 731Q410 746 427 746Q444 746 456 733T468 703Q468 690 460 677T431 657L237 593L226 617Z" />
<glyph unicode="&#x108;" glyph-name="Ccircumflex" d="M337 -12Q274 -12 222 8T132 70T73 180T52 341Q52 441 76 510T141 623T237 685T354 705Q404 705 445 698T516 681L524 483H493Q479 521 465 558T434 622Q420 645 402 652T344 659Q300 659 267 645T211 595T178
503T167 360Q167 268 177 206T209 106T261 51T335 34Q362 34 379 38T409 49T429 66T446 91Q455 107 462 120T475 147T486 176T498 212H527L519 32Q489 15 441 2T337 -12ZM493 770L475 746L334 816L193 746L176 770L308 897H359L493 770Z" />
<glyph unicode="&#x109;" glyph-name="ccircumflex" d="M317 -12Q259 -12 215 7T141 61T96 143T81 248Q81 329 108 382T177 467T269 512T366 525Q438 525 472 502T507 441Q507 418 491 397T448 376Q419 376 408 390T392 430Q387 464 377 473T340 482Q309 482 281
472T232 437T199 376T187 284Q187 171 230 112T359 52Q410 52 449 66T513 95V55Q501 45 483 33T439 11T383 -5T317 -12ZM488 610L470 586L329 670L188 586L171 610L303 751H354L488 610Z" />
<glyph unicode="&#x10a;" glyph-name="Cdotaccent" d="M337 -12Q274 -12 222 8T132 70T73 180T52 341Q52 441 76 510T141 623T237 685T354 705Q404 705 445 698T516 681L524 483H493Q479 521 465 558T434 622Q420 645 402 652T344 659Q300 659 267 645T211 595T178
503T167 360Q167 268 177 206T209 106T261 51T335 34Q362 34 379 38T409 49T429 66T446 91Q455 107 462 120T475 147T486 176T498 212H527L519 32Q489 15 441 2T337 -12ZM330 750Q301 750 282 770T262 815Q262 842 281 861T330 880Q358 880 377 861T397 815Q397
790 378 770T330 750Z" />
<glyph unicode="&#x10b;" glyph-name="cdotaccent" d="M317 -12Q259 -12 215 7T141 61T96 143T81 248Q81 329 108 382T177 467T269 512T366 525Q438 525 472 502T507 441Q507 418 491 397T448 376Q419 376 408 390T392 430Q387 464 377 473T340 482Q309 482 281
472T232 437T199 376T187 284Q187 171 230 112T359 52Q410 52 449 66T513 95V55Q501 45 483 33T439 11T383 -5T317 -12ZM341 614Q312 614 293 634T273 679Q273 706 292 725T341 744Q369 744 388 725T408 679Q408 654 389 634T341 614Z" />
<glyph unicode="&#x10c;" glyph-name="Ccaron" d="M337 -12Q274 -12 222 8T132 70T73 180T52 341Q52 441 76 510T141 623T237 685T354 705Q404 705 445 698T516 681L524 483H493Q479 521 465 558T434 622Q420 645 402 652T344 659Q300 659 267 645T211 595T178
503T167 360Q167 268 177 206T209 106T261 51T335 34Q362 34 379 38T409 49T429 66T446 91Q455 107 462 120T475 147T486 176T498 212H527L519 32Q489 15 441 2T337 -12ZM172 885L189 909L330 839L471 909L489 885L356 758H305L172 885Z" />
<glyph unicode="&#x10d;" glyph-name="ccaron" d="M317 -12Q259 -12 215 7T141 61T96 143T81 248Q81 329 108 382T177 467T269 512T366 525Q438 525 472 502T507 441Q507 418 491 397T448 376Q419 376 408 390T392 430Q387 464 377 473T340 482Q309 482 281 472T232
437T199 376T187 284Q187 171 230 112T359 52Q410 52 449 66T513 95V55Q501 45 483 33T439 11T383 -5T317 -12ZM179 739L196 763L337 679L478 763L496 739L363 598H312L179 739Z" />
<glyph unicode="&#x10e;" glyph-name="Dcaron" d="M22 31L42 36Q54 39 61 42T72 52T78 70T80 100V594Q80 613 79 624T73 641T61 651T42 658L22 663V693H272Q331 693 381 676T468 619T526 514T547 353Q547 265 527 199T470 89T382 22T268 0H22V31ZM261 42Q312 42
345 63T397 123T425 215T433 334Q433 417 424 477T394 575T340 632T259 651Q230 651 215 649T189 642V139Q189 109 191 90T201 61T223 46T261 42ZM369 885L386 909L527 839L668 909L686 885L553 758H502L369 885Z" />
<glyph unicode="&#x10f;" glyph-name="dcaron" d="M224 -12Q191 -12 159 0T101 42T60 119T44 239Q44 312 64 365T117 454T192 507T278 524Q336 524 365 515Q364 526 363 538Q362 549 362 561T362 588V648Q362 663 361 671T356 685T348 694T334 701L295 721V749L458
765L468 757Q466 745 465 727Q462 697 462 640V115Q462 98 463 88T467 72T475 61T490 53L539 36V9L370 -12L363 -6L368 47H364Q334 23 300 6T224 -12ZM272 56Q305 56 325 68T362 89V441Q347 457 326 468T272 480Q244 480 222 468T183 430T158 362T149 259Q149 151
181 104T272 56ZM513 572L521 715Q522 734 531 749T567 765Q584 765 596 755T608 726Q608 719 607 712T601 695L538 565L513 572Z" />
<glyph unicode="&#x110;" glyph-name="Dcroat" d="M11 372H333V329H11V372ZM22 31L42 36Q54 39 61 42T72 52T78 70T80 100V594Q80 613 79 624T73 641T61 651T42 658L22 663V693H272Q331 693 381 676T468 619T526 514T547 353Q547 265 527 199T470 89T382 22T268
0H22V31ZM261 42Q312 42 345 63T397 123T425 215T433 334Q433 417 424 477T394 575T340 632T259 651Q230 651 215 649T189 642V139Q189 109 191 90T201 61T223 46T261 42Z" />
<glyph unicode="&#x111;" glyph-name="dcroat" d="M227 639H583V598H227V639ZM231 -12Q197 -12 164 0T104 42T61 119T44 239Q44 312 66 365T125 454T209 507T308 524Q337 524 359 521T395 512Q394 523 393 536Q392 547 392 560T392 588V648Q392 663 391 671T386
685T378 694T364 701L325 721V749L488 765L498 757Q496 745 495 727Q492 697 492 640V115Q492 98 493 88T497 72T505 61T520 53L554 36V9L400 -12L393 -6L398 47H394Q364 23 321 6T231 -12ZM286 56Q327 56 351 68T392 89V438Q377 454 356 467T302 480Q267 480 239
468T190 430T160 362T149 259Q149 151 184 104T286 56Z" />
<glyph unicode="&#x112;" glyph-name="Emacron" d="M38 31L74 40Q82 41 87 44T96 53T101 70T103 100V594Q103 613 102 624T97 641T88 649T74 654L38 663V693H503L514 516H481Q467 553 457 575T438 610Q429 624 421 632T400 643T370 648T325 649Q280 649 252 647T212
640V383H243Q293 383 319 388T355 414Q363 431 368 445T378 483H410V237H378Q372 260 368 273T355 306Q347 329 323 333T243 337H212V152Q212 112 216 90T232 58T269 46T332 44Q361 44 379 45T409 49T430 60T448 81Q459 97 473 132T501 209H534L521 0H38V31ZM401
842H685V777H401V842Z" />
<glyph unicode="&#x113;" glyph-name="emacron" d="M304 483Q249 483 211 443T166 313L408 324Q408 412 385 447T304 483ZM507 53Q497 45 479 34T435 12T379 -5T311 -12Q248 -12 201 7T122 63T75 149T59 260Q59 320 79 369T134 452T213 506T308 525Q356 525 395
512T461 468T504 389T520 270H165Q166 213 179 172T216 104T272 65T344 52Q402 52 440 65T507 93V53ZM157 693H441V628H157V693Z" />
<glyph unicode="&#x114;" glyph-name="Ebreve" d="M38 31L74 40Q82 41 87 44T96 53T101 70T103 100V594Q103 613 102 624T97 641T88 649T74 654L38 663V693H503L514 516H481Q467 553 457 575T438 610Q429 624 421 632T400 643T370 648T325 649Q280 649 252 647T212
640V383H243Q293 383 319 388T355 414Q363 431 368 445T378 483H410V237H378Q372 260 368 273T355 306Q347 329 323 333T243 337H212V152Q212 112 216 90T232 58T269 46T332 44Q361 44 379 45T409 49T430 60T448 81Q459 97 473 132T501 209H534L521 0H38V31ZM291
755Q263 755 239 765T197 794T168 835T154 885L183 893Q194 865 221 846T290 827Q332 827 359 846T397 893L425 885Q423 859 412 836T384 794T343 766T291 755Z" />
<glyph unicode="&#x115;" glyph-name="ebreve" d="M304 483Q249 483 211 443T166 313L408 324Q408 412 385 447T304 483ZM507 53Q497 45 479 34T435 12T379 -5T311 -12Q248 -12 201 7T122 63T75 149T59 260Q59 320 79 369T134 452T213 506T308 525Q356 525 395
512T461 468T504 389T520 270H165Q166 213 179 172T216 104T272 65T344 52Q402 52 440 65T507 93V53ZM304 594Q276 594 252 605T210 635T181 682T167 740L196 748Q207 713 234 689T303 664Q345 664 372 688T410 748L438 740Q436 709 425 682T397 636T356 605T304
594Z" />
<glyph unicode="&#x116;" glyph-name="Edotaccent" d="M38 31L74 40Q82 41 87 44T96 53T101 70T103 100V594Q103 613 102 624T97 641T88 649T74 654L38 663V693H503L514 516H481Q467 553 457 575T438 610Q429 624 421 632T400 643T370 648T325 649Q280 649 252
647T212 640V383H243Q293 383 319 388T355 414Q363 431 368 445T378 483H410V237H378Q372 260 368 273T355 306Q347 329 323 333T243 337H212V152Q212 112 216 90T232 58T269 46T332 44Q361 44 379 45T409 49T430 60T448 81Q459 97 473 132T501 209H534L521 0H38V31ZM290
750Q261 750 242 770T222 815Q222 842 241 861T290 880Q318 880 337 861T357 815Q357 790 338 770T290 750Z" />
<glyph unicode="&#x117;" glyph-name="edotaccent" d="M304 483Q249 483 211 443T166 313L408 324Q408 412 385 447T304 483ZM507 53Q497 45 479 34T435 12T379 -5T311 -12Q248 -12 201 7T122 63T75 149T59 260Q59 320 79 369T134 452T213 506T308 525Q356 525
395 512T461 468T504 389T520 270H165Q166 213 179 172T216 104T272 65T344 52Q402 52 440 65T507 93V53ZM306 614Q277 614 258 634T238 679Q238 706 257 725T306 744Q334 744 353 725T373 679Q373 654 354 634T306 614Z" />
<glyph unicode="&#x118;" glyph-name="Eogonek" d="M38 31L74 40Q82 41 87 44T96 53T101 70T103 100V594Q103 613 102 624T97 641T88 649T74 654L38 663V693H503L514 516H481Q467 553 457 575T438 610Q429 624 421 632T400 643T370 648T325 649Q280 649 252 647T212
640V383H243Q293 383 319 388T355 414Q363 431 368 445T378 483H410V237H378Q372 260 368 273T355 306Q347 329 323 333T243 337H212V152Q212 112 216 90T232 58T269 46T332 44Q361 44 379 45T409 49T430 60T448 81Q459 97 473 132T501 209H534L521 0H452Q426 -29
411 -58T395 -119Q395 -139 402 -151T426 -168Q437 -170 451 -171T485 -171V-199Q473 -207 454 -215T402 -223Q360 -223 333 -201T306 -139Q306 -117 315 -97T340 -58T373 -24Q388 -11 402 0H38V31Z" />
<glyph unicode="&#x119;" glyph-name="eogonek" d="M304 483Q249 483 211 443T166 313L408 324Q408 412 385 447T304 483ZM427 -199Q415 -207 396 -215T344 -223Q302 -223 275 -201T248 -139Q248 -100 275 -67T340 -10Q329 -12 323 -12T311 -12Q248 -12 201 7T122
63T75 149T59 260Q59 320 79 369T134 452T213 506T308 525Q356 525 395 512T461 468T504 389T520 270H165Q166 213 179 172T216 104T272 65T344 52Q402 52 440 65T507 93V53Q481 34 454 20T401 -11Q374 -28 356 -56T337 -119Q337 -139 344 -151T368 -168Q379 -170
393 -171T427 -171V-199Z" />
<glyph unicode="&#x11a;" glyph-name="Ecaron" d="M38 31L74 40Q82 41 87 44T96 53T101 70T103 100V594Q103 613 102 624T97 641T88 649T74 654L38 663V693H503L514 516H481Q467 553 457 575T438 610Q429 624 421 632T400 643T370 648T325 649Q280 649 252 647T212
640V383H243Q293 383 319 388T355 414Q363 431 368 445T378 483H410V237H378Q372 260 368 273T355 306Q347 329 323 333T243 337H212V152Q212 112 216 90T232 58T269 46T332 44Q361 44 379 45T409 49T430 60T448 81Q459 97 473 132T501 209H534L521 0H38V31ZM132
885L149 909L290 839L431 909L449 885L316 758H265L132 885Z" />
<glyph unicode="&#x11b;" glyph-name="ecaron" d="M304 483Q249 483 211 443T166 313L408 324Q408 412 385 447T304 483ZM507 53Q497 45 479 34T435 12T379 -5T311 -12Q248 -12 201 7T122 63T75 149T59 260Q59 320 79 369T134 452T213 506T308 525Q356 525 395
512T461 468T504 389T520 270H165Q166 213 179 172T216 104T272 65T344 52Q402 52 440 65T507 93V53ZM142 739L159 763L300 679L441 763L459 739L326 598H275L142 739Z" />
<glyph unicode="&#x11c;" glyph-name="Gcircumflex" d="M322 -12Q183 -12 109 73T35 341Q35 441 58 510T122 623T216 686T331 705Q389 705 428 700T500 686L512 487H479Q464 536 450 566T424 611Q417 621 411 629T394 644T367 653T323 657Q277 657 244 642T190
591T159 501T149 365Q149 278 157 216T185 114T237 56T319 37Q352 37 375 43T414 60V198Q414 217 413 227T408 244T400 252T385 257L347 267V298H563V267L554 263Q544 258 538 255T528 245T523 228T521 198V23Q486 12 434 0T322 -12ZM467 770L449 746L308 816L167
746L150 770L282 897H333L467 770Z" />
<glyph unicode="&#x11d;" glyph-name="gcircumflex" d="M264 230Q312 230 336 256T361 347Q361 421 337 452T264 484Q217 484 193 456T168 362Q168 289 192 260T264 230ZM243 -224Q141 -224 84 -191T26 -104Q26 -67 56 -36T141 14V18Q115 27 95 46T74 101Q74 122
81 139T100 169T125 194T151 214V218Q136 225 121 237T93 267T74 306T66 350Q66 394 83 427T129 481T193 513T264 524Q294 524 319 520T370 504Q396 526 428 542T495 558Q518 558 534 546T550 511Q550 492 539 477T508 462Q488 462 479 470T463 492Q458 503 437
498T395 481V478Q426 460 444 431T463 359Q463 315 446 283T400 230T336 199T264 189Q239 189 222 192T186 204Q174 196 163 182T151 149Q151 130 166 117T214 103H372Q404 103 431 97T477 77T506 38T517 -24Q517 -53 504 -88T459 -153T374 -203T243 -224ZM260
-182Q297 -182 330 -173T389 -149T428 -112T443 -65Q443 -31 425 -10T353 12H199Q187 9 173 1T147 -21T127 -51T119 -88Q119 -134 153 -158T260 -182ZM449 610L431 586L290 670L149 586L132 610L264 751H315L449 610Z" />
<glyph unicode="&#x11e;" glyph-name="Gbreve" d="M322 -12Q183 -12 109 73T35 341Q35 441 58 510T122 623T216 686T331 705Q389 705 428 700T500 686L512 487H479Q464 536 450 566T424 611Q417 621 411 629T394 644T367 653T323 657Q277 657 244 642T190 591T159
501T149 365Q149 278 157 216T185 114T237 56T319 37Q352 37 375 43T414 60V198Q414 217 413 227T408 244T400 252T385 257L347 267V298H563V267L554 263Q544 258 538 255T528 245T523 228T521 198V23Q486 12 434 0T322 -12ZM309 755Q281 755 257 765T215 794T186
835T172 885L201 893Q212 865 239 846T308 827Q350 827 377 846T415 893L443 885Q441 859 430 836T402 794T361 766T309 755Z" />
<glyph unicode="&#x11f;" glyph-name="gbreve" d="M264 230Q312 230 336 256T361 347Q361 421 337 452T264 484Q217 484 193 456T168 362Q168 289 192 260T264 230ZM243 -224Q141 -224 84 -191T26 -104Q26 -67 56 -36T141 14V18Q115 27 95 46T74 101Q74 122 81
139T100 169T125 194T151 214V218Q136 225 121 237T93 267T74 306T66 350Q66 394 83 427T129 481T193 513T264 524Q294 524 319 520T370 504Q396 526 428 542T495 558Q518 558 534 546T550 511Q550 492 539 477T508 462Q488 462 479 470T463 492Q458 503 437 498T395
481V478Q426 460 444 431T463 359Q463 315 446 283T400 230T336 199T264 189Q239 189 222 192T186 204Q174 196 163 182T151 149Q151 130 166 117T214 103H372Q404 103 431 97T477 77T506 38T517 -24Q517 -53 504 -88T459 -153T374 -203T243 -224ZM260 -182Q297
-182 330 -173T389 -149T428 -112T443 -65Q443 -31 425 -10T353 12H199Q187 9 173 1T147 -21T127 -51T119 -88Q119 -134 153 -158T260 -182ZM540 594Q512 594 488 605T446 635T417 682T403 740L432 748Q443 713 470 689T539 664Q581 664 608 688T646 748L674 740Q672
709 661 682T633 636T592 605T540 594Z" />
<glyph unicode="&#x120;" glyph-name="Gdotaccent" d="M322 -12Q183 -12 109 73T35 341Q35 441 58 510T122 623T216 686T331 705Q389 705 428 700T500 686L512 487H479Q464 536 450 566T424 611Q417 621 411 629T394 644T367 653T323 657Q277 657 244 642T190
591T159 501T149 365Q149 278 157 216T185 114T237 56T319 37Q352 37 375 43T414 60V198Q414 217 413 227T408 244T400 252T385 257L347 267V298H563V267L554 263Q544 258 538 255T528 245T523 228T521 198V23Q486 12 434 0T322 -12ZM326 750Q297 750 278 770T258
815Q258 842 277 861T326 880Q354 880 373 861T393 815Q393 790 374 770T326 750Z" />
<glyph unicode="&#x121;" glyph-name="gdotaccent" d="M264 230Q312 230 336 256T361 347Q361 421 337 452T264 484Q217 484 193 456T168 362Q168 289 192 260T264 230ZM243 -224Q141 -224 84 -191T26 -104Q26 -67 56 -36T141 14V18Q115 27 95 46T74 101Q74 122
81 139T100 169T125 194T151 214V218Q136 225 121 237T93 267T74 306T66 350Q66 394 83 427T129 481T193 513T264 524Q294 524 319 520T370 504Q396 526 428 542T495 558Q518 558 534 546T550 511Q550 492 539 477T508 462Q488 462 479 470T463 492Q458 503 437
498T395 481V478Q426 460 444 431T463 359Q463 315 446 283T400 230T336 199T264 189Q239 189 222 192T186 204Q174 196 163 182T151 149Q151 130 166 117T214 103H372Q404 103 431 97T477 77T506 38T517 -24Q517 -53 504 -88T459 -153T374 -203T243 -224ZM260
-182Q297 -182 330 -173T389 -149T428 -112T443 -65Q443 -31 425 -10T353 12H199Q187 9 173 1T147 -21T127 -51T119 -88Q119 -134 153 -158T260 -182ZM539 614Q510 614 491 634T471 679Q471 706 490 725T539 744Q567 744 586 725T606 679Q606 654 587 634T539 614Z"
/>
<glyph unicode="&#x122;" glyph-name="uni0122" d="M322 -12Q183 -12 109 73T35 341Q35 441 58 510T122 623T216 686T331 705Q389 705 428 700T500 686L512 487H479Q464 536 450 566T424 611Q417 621 411 629T394 644T367 653T323 657Q277 657 244 642T190 591T159
501T149 365Q149 278 157 216T185 114T237 56T319 37Q352 37 375 43T414 60V198Q414 217 413 227T408 244T400 252T385 257L347 267V298H563V267L554 263Q544 258 538 255T528 245T523 228T521 198V23Q486 12 434 0T322 -12ZM224 -257Q250 -248 266 -238T292 -216T305
-192T309 -168Q306 -170 300 -172T284 -175Q257 -175 244 -160T231 -123Q231 -100 249 -84T295 -67Q327 -67 350 -85T373 -146Q373 -192 339 -231T232 -284L224 -257Z" />
<glyph unicode="&#x123;" glyph-name="uni0123" d="M264 230Q312 230 336 256T361 347Q361 421 337 452T264 484Q217 484 193 456T168 362Q168 289 192 260T264 230ZM243 -224Q141 -224 84 -191T26 -104Q26 -67 56 -36T141 14V18Q115 27 95 46T74 101Q74 122 81
139T100 169T125 194T151 214V218Q136 225 121 237T93 267T74 306T66 350Q66 394 83 427T129 481T193 513T264 524Q294 524 319 520T370 504Q396 526 428 542T495 558Q518 558 534 546T550 511Q550 492 539 477T508 462Q488 462 479 470T463 492Q458 503 437 498T395
481V478Q426 460 444 431T463 359Q463 315 446 283T400 230T336 199T264 189Q239 189 222 192T186 204Q174 196 163 182T151 149Q151 130 166 117T214 103H372Q404 103 431 97T477 77T506 38T517 -24Q517 -53 504 -88T459 -153T374 -203T243 -224ZM260 -182Q297
-182 330 -173T389 -149T428 -112T443 -65Q443 -31 425 -10T353 12H199Q187 9 173 1T147 -21T127 -51T119 -88Q119 -134 153 -158T260 -182ZM614 796Q588 787 572 777T546 755T533 731T529 707Q532 709 538 711T554 714Q581 714 594 699T607 662Q607 639 589 623T543
606Q511 606 488 624T465 685Q465 731 499 770T606 823L614 796Z" />
<glyph unicode="&#x124;" glyph-name="Hcircumflex" d="M21 31L43 37Q55 40 62 43T73 52T79 70T81 100V594Q81 613 80 624T74 641T62 651T43 657L21 663V693H251V663L228 656Q216 652 209 649T197 640T192 624T190 594V376H389V594Q389 613 388 623T382 640T371
649T352 656L329 663V693H559V663L536 656Q524 652 517 649T505 640T500 624T498 594V100Q498 81 499 71T505 54T516 45T536 38L559 31V0H329V31L352 38Q364 42 371 45T382 54T387 70T389 100V330H190V100Q190 81 191 71T197 54T208 45T228 38L251 31V0H21V31ZM449
770L431 746L290 816L149 746L132 770L264 897H315L449 770Z" />
<glyph unicode="&#x125;" glyph-name="hcircumflex" d="M29 30L66 41Q81 45 86 54T92 93V648Q92 663 91 671T86 685T78 694T64 701L24 721V749L189 765L199 757Q197 742 195 724Q192 692 192 640V549Q192 532 191 516T189 488Q188 474 187 461H191Q209 473 230
484T274 504T321 518T368 524Q437 524 465 492T494 391V93Q494 64 500 55T520 41L556 30V0H333V30L369 41Q376 43 381 45T389 53T393 67T394 93V363Q394 416 377 437T315 458Q281 458 247 447T192 427V93Q192 77 193 68T197 53T204 46T217 41L253 30V0H29V30ZM449
840L431 816L290 886L149 816L132 840L264 967H315L449 840Z" />
<glyph unicode="&#x126;" glyph-name="Hbar" d="M10 538H570V493H10V538ZM21 31L43 37Q55 40 62 43T73 52T79 70T81 100V594Q81 613 80 624T74 641T62 651T43 657L21 663V693H251V663L228 656Q216 652 209 649T197 640T192 624T190 594V376H389V594Q389 613 388
623T382 640T371 649T352 656L329 663V693H559V663L536 656Q524 652 517 649T505 640T500 624T498 594V100Q498 81 499 71T505 54T516 45T536 38L559 31V0H329V31L352 38Q364 42 371 45T382 54T387 70T389 100V330H190V100Q190 81 191 71T197 54T208 45T228 38L251
31V0H21V31Z" />
<glyph unicode="&#x127;" glyph-name="hbar" d="M6 639H362V598H6V639ZM29 30L66 41Q81 45 86 54T92 93V648Q92 663 91 671T86 685T78 694T64 701L24 721V749L189 765L199 757Q197 742 195 724Q192 692 192 640V549Q192 532 191 516T189 488Q188 474 187 461H191Q209
473 230 484T274 504T321 518T368 524Q437 524 465 492T494 391V93Q494 64 500 55T520 41L556 30V0H333V30L369 41Q376 43 381 45T389 53T393 67T394 93V363Q394 416 377 437T315 458Q281 458 247 447T192 427V93Q192 77 193 68T197 53T204 46T217 41L253 30V0H29V30Z"
/>
<glyph unicode="&#x128;" glyph-name="Itilde" d="M114 34L163 41Q184 44 197 47T219 56T231 73T235 103V591Q235 610 232 621T220 638T198 647T163 653L114 660V693H476V660L416 652Q395 649 381 646T359 637T347 621T344 591V103Q344 84 347 74T358 57T381 48T416
42L476 34V0H114V34ZM121 777Q143 836 165 863T219 891Q234 891 254 885T293 871T329 857T355 850Q371 850 384 861T415 906L447 893Q425 833 403 806T349 779Q334 779 315 785T276 799T240 813T213 820Q197 820 185 809T155 763L121 777Z" />
<glyph unicode="&#x129;" glyph-name="itilde" d="M105 30L159 41Q184 46 199 52T221 69T231 95T233 132V340Q233 366 231 382T223 410T203 429T165 445L105 466V492L330 523L340 517Q338 505 336 488Q333 459 333 405V132Q333 109 335 94T343 69T361 53T395 43L460
30V0H105V30ZM360 597Q382 660 404 690T458 721Q473 721 493 715T532 701T568 687T594 680Q610 680 623 695T654 746L686 733Q664 670 642 640T588 609Q573 609 554 615T515 629T479 643T452 650Q436 650 424 634T394 583L360 597Z" />
<glyph unicode="&#x12a;" glyph-name="Imacron" d="M114 34L163 41Q184 44 197 47T219 56T231 73T235 103V591Q235 610 232 621T220 638T198 647T163 653L114 660V693H476V660L416 652Q395 649 381 646T359 637T347 621T344 591V103Q344 84 347 74T358 57T381
48T416 42L476 34V0H114V34ZM148 842H432V777H148V842Z" />
<glyph unicode="&#x12b;" glyph-name="imacron" d="M105 30L159 41Q184 46 199 52T221 69T231 95T233 132V340Q233 366 231 382T223 410T203 429T165 445L105 466V492L330 523L340 517Q338 505 336 488Q333 459 333 405V132Q333 109 335 94T343 69T361 53T395
43L460 30V0H105V30ZM370 693H654V628H370V693Z" />
<glyph unicode="&#x12c;" glyph-name="Ibreve" d="M114 34L163 41Q184 44 197 47T219 56T231 73T235 103V591Q235 610 232 621T220 638T198 647T163 653L114 660V693H476V660L416 652Q395 649 381 646T359 637T347 621T344 591V103Q344 84 347 74T358 57T381 48T416
42L476 34V0H114V34ZM291 755Q263 755 239 765T197 794T168 835T154 885L183 893Q194 865 221 846T290 827Q332 827 359 846T397 893L425 885Q423 859 412 836T384 794T343 766T291 755Z" />
<glyph unicode="&#x12d;" glyph-name="ibreve" d="M105 30L159 41Q184 46 199 52T221 69T231 95T233 132V340Q233 366 231 382T223 410T203 429T165 445L105 466V492L330 523L340 517Q338 505 336 488Q333 459 333 405V132Q333 109 335 94T343 69T361 53T395 43L460
30V0H105V30ZM532 594Q504 594 480 605T438 635T409 682T395 740L424 748Q435 713 462 689T531 664Q573 664 600 688T638 748L666 740Q664 709 653 682T625 636T584 605T532 594Z" />
<glyph unicode="&#x12e;" glyph-name="Iogonek" d="M114 34L163 41Q184 44 197 47T219 56T231 73T235 103V591Q235 610 232 621T220 638T198 647T163 653L114 660V693H476V660L416 652Q395 649 381 646T359 637T347 621T344 591V103Q344 84 347 74T358 57T381
48T416 42L476 34V0H363Q343 -29 332 -58T321 -119Q321 -139 328 -151T352 -168Q363 -170 377 -171T411 -171V-199Q399 -207 380 -215T328 -223Q286 -223 259 -201T232 -139Q232 -119 240 -99T260 -61T287 -28T315 0H114V34Z" />
<glyph unicode="&#x12f;" glyph-name="iogonek" d="M105 30L159 41Q184 46 199 52T221 69T231 95T233 132V340Q233 366 231 382T223 410T203 429T165 445L105 466V492L330 523L340 517Q338 505 336 488Q333 459 333 405V132Q333 109 335 94T343 69T361 53T395
43L460 30V0H350Q300 -57 300 -119Q300 -139 307 -151T331 -168Q342 -170 356 -171T390 -171V-199Q378 -207 359 -215T307 -223Q265 -223 238 -201T211 -139Q211 -117 219 -97T241 -60T270 -27T301 0H105V30ZM279 614Q247 614 226 636T204 686Q204 715 225 736T279
757Q310 757 331 736T353 686Q353 658 332 636T279 614Z" />
<glyph unicode="&#x130;" glyph-name="Idotaccent" d="M114 34L163 41Q184 44 197 47T219 56T231 73T235 103V591Q235 610 232 621T220 638T198 647T163 653L114 660V693H476V660L416 652Q395 649 381 646T359 637T347 621T344 591V103Q344 84 347 74T358 57T381
48T416 42L476 34V0H114V34ZM290 750Q261 750 242 770T222 815Q222 842 241 861T290 880Q318 880 337 861T357 815Q357 790 338 770T290 750Z" />
<glyph unicode="&#x131;" glyph-name="dotlessi" d="M105 30L159 41Q184 46 199 52T221 69T231 95T233 132V340Q233 366 231 382T223 410T203 429T165 445L105 466V492L330 523L340 517Q338 505 336 488Q333 459 333 405V132Q333 109 335 94T343 69T361 53T395
43L460 30V0H105V30Z" />
<glyph unicode="&#x132;" glyph-name="IJ" d="M21 31L47 37Q59 40 66 43T77 52T83 70T85 100V594Q85 613 84 624T78 641T66 651T47 657L21 663V693H255V663L232 656Q220 652 213 649T201 640T196 624T194 594V100Q194 81 195 71T201 54T212 45T232 38L265 31V0H21V31ZM494
129Q494 48 478 -8T433 -98T364 -148T276 -163Q216 -163 187 -142T157 -89Q157 -69 170 -54T212 -39Q243 -39 255 -54T275 -98Q280 -113 286 -117T307 -122Q321 -122 335 -116T360 -93T378 -43T385 44V594Q385 613 384 623T379 640T369 648T353 654L315 663V693H559V663L530
654Q521 651 514 649T503 640T496 624T494 594V129Z" />
<glyph unicode="&#x133;" glyph-name="ij" d="M433 614Q404 614 385 634T365 679Q365 706 384 725T433 744Q461 744 480 725T500 679Q500 654 481 634T433 614ZM153 614Q124 614 105 634T85 679Q85 706 104 725T153 744Q181 744 200 725T220 679Q220 654 201 634T153
614ZM39 30L80 41Q95 45 101 54T107 93V403Q107 418 106 426T102 440T92 449T77 457L39 476V502L204 523L214 517Q212 505 210 488Q207 459 207 405V93Q207 77 208 68T212 53T220 46T233 41L274 30V0H39V30ZM307 -228Q260 -228 237 -207T214 -159Q214 -139 229
-126T267 -112Q296 -112 306 -126T319 -157Q322 -180 326 -185T338 -191Q361 -191 375 -173T389 -127V403Q389 418 388 426T384 440T374 449T359 457L321 476V502L486 523L496 517Q494 505 492 487Q489 457 489 400V-22Q489 -79 475 -118T436 -181T378 -217T307
-228Z" />
<glyph unicode="&#x134;" glyph-name="Jcircumflex" d="M159 -163Q99 -163 70 -142T40 -89Q40 -69 53 -54T95 -39Q126 -39 138 -54T158 -98Q163 -113 169 -117T190 -122Q204 -122 218 -116T245 -93T264 -43T272 44V594Q272 612 270 622T262 638T250 646T232 651L172
663V693H459V663L413 654Q404 652 398 650T388 641T383 624T381 594V129Q381 48 365 -8T320 -98T249 -148T159 -163ZM476 770L458 746L317 816L176 746L159 770L291 897H342L476 770Z" />
<glyph unicode="&#x135;" glyph-name="jcircumflex" d="M152 -228Q100 -228 73 -206T45 -155Q45 -132 61 -118T102 -103Q133 -103 144 -118T157 -153Q160 -179 165 -185T181 -191Q219 -191 238 -168T257 -85V369Q257 391 255 405T248 427T234 440T213 448L145
467V493L354 523L364 517Q362 505 360 487Q357 457 357 400V11Q357 -58 340 -104T295 -177T229 -216T152 -228ZM449 610L431 586L290 670L149 586L132 610L264 751H315L449 610Z" />
<glyph unicode="&#x136;" glyph-name="uni0136" d="M25 31L61 40Q69 41 74 44T83 53T88 70T90 100V594Q90 613 89 624T84 641T75 649T61 654L25 663V693H266V663L228 654Q219 652 214 649T205 640T200 624T199 594V100Q199 81 200 70T204 53T213 45T228 40L266
31V0H25V31ZM424 0Q397 36 370 78T318 164T269 254T226 344V357L375 567Q395 589 402 603T409 626Q409 637 400 644T378 655L349 663V693H552V663L539 658Q527 655 518 650T500 637T479 615T452 582L312 392Q331 352 355 308T406 219T458 135T509 62Q519 50 524
47T538 41L577 31V0H424ZM209 -257Q235 -248 251 -238T277 -216T290 -192T294 -168Q291 -170 285 -172T269 -175Q242 -175 229 -160T216 -123Q216 -100 234 -84T280 -67Q312 -67 335 -85T358 -146Q358 -192 324 -231T217 -284L209 -257Z" />
<glyph unicode="&#x137;" glyph-name="uni0137" d="M28 30L65 41Q80 45 85 54T91 93V648Q91 663 90 671T85 685T77 694T63 701L23 721V749L188 765L197 757Q195 742 194 724Q191 692 191 640V93Q191 77 192 68T196 53T203 46T216 41L252 30V0H28V30ZM424 0Q369
61 323 120T232 252V267L340 379Q372 412 381 428T391 454Q391 468 367 476L353 481V509H532V480L504 470Q484 463 464 448T415 402L317 299Q357 234 405 173T502 58Q509 50 515 47T529 41L559 30V0H424ZM217 -257Q243 -248 259 -238T285 -216T298 -192T302 -168Q299
-170 293 -172T277 -175Q250 -175 237 -160T224 -123Q224 -100 242 -84T288 -67Q320 -67 343 -85T366 -146Q366 -192 332 -231T225 -284L217 -257Z" />
<glyph unicode="&#x139;" glyph-name="Lacute" d="M61 31L97 40Q105 41 110 44T119 53T124 70T126 100V594Q126 613 125 624T120 641T111 649T97 654L61 663V693H306V663L264 653Q255 651 250 649T241 640T236 624T235 594V142Q235 107 236 88T247 59T274 47T325
44Q353 44 371 46T402 54T424 69T442 94Q452 110 466 140T495 220H529L517 0H61V31ZM333 772L495 886Q517 901 534 901Q551 901 563 888T575 858Q575 845 567 832T538 812L344 748L333 772Z" />
<glyph unicode="&#x13a;" glyph-name="lacute" d="M109 30L172 39Q194 42 206 48T226 64T235 89T237 127V605Q237 632 235 648T226 673T206 688T169 701L104 721V749L334 765L344 757Q342 742 340 724Q337 692 337 640V127Q337 104 339 89T347 63T365 48T398 40L464
30V0H109V30ZM172 842L334 956Q356 971 373 971Q390 971 402 958T414 928Q414 915 406 902T377 882L183 818L172 842Z" />
<glyph unicode="&#x13b;" glyph-name="uni013B" d="M61 31L97 40Q105 41 110 44T119 53T124 70T126 100V594Q126 613 125 624T120 641T111 649T97 654L61 663V693H306V663L264 653Q255 651 250 649T241 640T236 624T235 594V142Q235 107 236 88T247 59T274 47T325
44Q353 44 371 46T402 54T424 69T442 94Q452 110 466 140T495 220H529L517 0H61V31ZM221 -257Q247 -248 263 -238T289 -216T302 -192T306 -168Q303 -170 297 -172T281 -175Q254 -175 241 -160T228 -123Q228 -100 246 -84T292 -67Q324 -67 347 -85T370 -146Q370
-192 336 -231T229 -284L221 -257Z" />
<glyph unicode="&#x13c;" glyph-name="uni013C" d="M109 30L172 39Q194 42 206 48T226 64T235 89T237 127V605Q237 632 235 648T226 673T206 688T169 701L104 721V749L334 765L344 757Q342 742 340 724Q337 692 337 640V127Q337 104 339 89T347 63T365 48T398
40L464 30V0H109V30ZM209 -257Q235 -248 251 -238T277 -216T290 -192T294 -168Q291 -170 285 -172T269 -175Q242 -175 229 -160T216 -123Q216 -100 234 -84T280 -67Q312 -67 335 -85T358 -146Q358 -192 324 -231T217 -284L209 -257Z" />
<glyph unicode="&#x13d;" glyph-name="Lcaron" d="M372 508L380 663Q382 682 391 697T426 713Q443 713 455 703T467 674Q467 660 460 643L397 501L372 508ZM61 31L97 40Q105 41 110 44T119 53T124 70T126 100V594Q126 613 125 624T120 641T111 649T97 654L61 663V693H306V663L264
653Q255 651 250 649T241 640T236 624T235 594V142Q235 107 236 88T247 59T274 47T325 44Q353 44 371 46T402 54T424 69T442 94Q452 110 466 140T495 220H529L517 0H61V31Z" />
<glyph unicode="&#x13e;" glyph-name="lcaron" d="M109 30L172 39Q194 42 206 48T226 64T235 89T237 127V605Q237 632 235 648T226 673T206 688T169 701L104 721V749L334 765L344 757Q342 742 340 724Q337 692 337 640V127Q337 104 339 89T347 63T365 48T398 40L464
30V0H109V30ZM424 572L432 715Q433 734 442 749T478 765Q495 765 507 755T519 726Q519 719 518 712T512 695L449 565L424 572Z" />
<glyph unicode="&#x13f;" glyph-name="Ldot" d="M61 31L97 40Q105 41 110 44T119 53T124 70T126 100V594Q126 613 125 624T120 641T111 649T97 654L61 663V693H306V663L264 653Q255 651 250 649T241 640T236 624T235 594V142Q235 107 236 88T247 59T274 47T325
44Q353 44 371 46T402 54T424 69T442 94Q452 110 466 140T495 220H529L517 0H61V31ZM509 314Q478 314 456 335T434 388Q434 403 440 417T456 441T479 457T509 463Q541 463 563 441T586 388Q586 356 564 335T509 314Z" />
<glyph unicode="&#x140;" glyph-name="ldot" d="M109 30L172 39Q194 42 206 48T226 64T235 89T237 127V605Q237 632 235 648T226 673T206 688T169 701L104 721V749L334 765L344 757Q342 742 340 724Q337 692 337 640V127Q337 104 339 89T347 63T365 48T398 40L464
30V0H109V30ZM573 305Q542 305 520 326T498 379Q498 394 504 408T520 432T543 448T573 454Q605 454 627 432T650 379Q650 347 628 326T573 305Z" />
<glyph unicode="&#x141;" glyph-name="Lslash" d="M61 31L97 40Q105 41 110 44T119 53T124 70T126 100V280L51 249V296L126 327V594Q126 613 125 624T120 641T111 649T97 654L61 663V693H306V663L264 653Q255 651 250 649T241 640T236 624T235 594V373L439 458V411L235
326V142Q235 107 236 88T247 59T274 47T325 44Q353 44 371 46T402 54T424 69T442 94Q452 110 466 140T495 220H529L517 0H61V31Z" />
<glyph unicode="&#x142;" glyph-name="lslash" d="M109 30L172 39Q194 42 206 48T226 64T235 89T237 127V361L94 304V351L237 408V605Q237 632 235 648T226 673T206 688T169 701L104 721V749L334 765L344 757Q342 742 340 724Q337 692 337 640V447L494 510V463L337
400V127Q337 104 339 89T347 63T365 48T398 40L464 30V0H109V30Z" />
<glyph unicode="&#x143;" glyph-name="Nacute" d="M133 603H129V110Q129 87 130 74T136 54T147 43T166 38L201 31V0H16V31L45 38Q54 40 61 43T72 53T79 74T81 110V594Q81 613 80 624T75 641T66 649T52 654L16 663V693H202L453 209H457V584Q457 606 456 619T450
640T439 651T420 656L381 663V693H567V663L542 656Q532 653 525 650T514 640T507 620T505 584V-4H451L133 603ZM206 772L368 886Q390 901 407 901Q424 901 436 888T448 858Q448 845 440 832T411 812L217 748L206 772Z" />
<glyph unicode="&#x144;" glyph-name="nacute" d="M30 30L67 41Q82 45 87 54T93 93V403Q93 418 92 426T88 440T80 449T65 457L30 476V502L183 523L193 517L188 461H192Q227 485 273 504T365 524Q434 524 462 492T491 391V93Q491 64 497 55T518 41L553 30V0H330V30L366
41Q373 43 378 45T386 53T390 67T391 93V363Q391 416 374 437T312 458Q279 458 246 447T193 427V93Q193 77 194 68T198 53T205 46T218 41L254 30V0H30V30ZM172 617L334 731Q356 746 373 746Q390 746 402 733T414 703Q414 690 406 677T377 657L183 593L172 617Z"
/>
<glyph unicode="&#x145;" glyph-name="uni0145" d="M133 603H129V110Q129 87 130 74T136 54T147 43T166 38L201 31V0H16V31L45 38Q54 40 61 43T72 53T79 74T81 110V594Q81 613 80 624T75 641T66 649T52 654L16 663V693H202L453 209H457V584Q457 606 456 619T450
640T439 651T420 656L381 663V693H567V663L542 656Q532 653 525 650T514 640T507 620T505 584V-4H451L133 603ZM209 -257Q235 -248 251 -238T277 -216T290 -192T294 -168Q291 -170 285 -172T269 -175Q242 -175 229 -160T216 -123Q216 -100 234 -84T280 -67Q312
-67 335 -85T358 -146Q358 -192 324 -231T217 -284L209 -257Z" />
<glyph unicode="&#x146;" glyph-name="uni0146" d="M30 30L67 41Q82 45 87 54T93 93V403Q93 418 92 426T88 440T80 449T65 457L30 476V502L183 523L193 517L188 461H192Q227 485 273 504T365 524Q434 524 462 492T491 391V93Q491 64 497 55T518 41L553 30V0H330V30L366
41Q373 43 378 45T386 53T390 67T391 93V363Q391 416 374 437T312 458Q279 458 246 447T193 427V93Q193 77 194 68T198 53T205 46T218 41L254 30V0H30V30ZM209 -257Q235 -248 251 -238T277 -216T290 -192T294 -168Q291 -170 285 -172T269 -175Q242 -175 229 -160T216
-123Q216 -100 234 -84T280 -67Q312 -67 335 -85T358 -146Q358 -192 324 -231T217 -284L209 -257Z" />
<glyph unicode="&#x147;" glyph-name="Ncaron" d="M133 603H129V110Q129 87 130 74T136 54T147 43T166 38L201 31V0H16V31L45 38Q54 40 61 43T72 53T79 74T81 110V594Q81 613 80 624T75 641T66 649T52 654L16 663V693H202L453 209H457V584Q457 606 456 619T450
640T439 651T420 656L381 663V693H567V663L542 656Q532 653 525 650T514 640T507 620T505 584V-4H451L133 603ZM150 885L167 909L308 839L449 909L467 885L334 758H283L150 885Z" />
<glyph unicode="&#x148;" glyph-name="ncaron" d="M30 30L67 41Q82 45 87 54T93 93V403Q93 418 92 426T88 440T80 449T65 457L30 476V502L183 523L193 517L188 461H192Q227 485 273 504T365 524Q434 524 462 492T491 391V93Q491 64 497 55T518 41L553 30V0H330V30L366
41Q373 43 378 45T386 53T390 67T391 93V363Q391 416 374 437T312 458Q279 458 246 447T193 427V93Q193 77 194 68T198 53T205 46T218 41L254 30V0H30V30ZM384 739L401 763L542 679L683 763L701 739L568 598H517L384 739Z" />
<glyph unicode="&#x149;" glyph-name="napostrophe" d="M-80 473Q18 521 18 593Q15 591 9 589T-9 586Q-34 586 -50 603T-66 646Q-66 673 -47 689T1 706Q33 706 57 682T82 618Q82 588 72 561T42 511T-6 471T-70 445L-80 473ZM75 30L112 41Q127 45 132 54T138 93V403Q138
418 137 426T133 440T125 449T110 457L75 476V502L228 523L238 517L233 461H237Q269 485 311 504T395 524Q453 524 479 495T506 405V93Q506 64 512 56T533 41L558 30V0H345V30L381 41Q388 43 393 45T401 53T405 68T406 93V389Q406 425 391 441T345 458Q313 458
284 447T238 427V93Q238 77 239 68T243 53T250 46T263 41L299 30V0H75V30Z" />
<glyph unicode="&#x14a;" glyph-name="Eng" d="M336 -229Q279 -229 250 -208T221 -155Q221 -135 234 -120T276 -105Q307 -105 319 -120T339 -164Q344 -179 348 -183T367 -188Q380 -188 395 -178T422 -147T443 -92T452 -10V-6L133 603H129V110Q129 87 130 74T136
54T147 43T166 38L201 31V0H16V31L45 38Q54 40 61 43T72 53T79 74T81 110V594Q81 613 80 624T75 641T66 649T52 654L16 663V693H202L453 209H457V584Q457 606 456 619T450 640T439 651T420 656L381 663V693H567V663L542 656Q532 653 525 650T514 640T507 620T505
584V-7Q505 -55 496 -96T466 -166T414 -212T336 -229Z" />
<glyph unicode="&#x14b;" glyph-name="eng" d="M405 363Q405 416 388 437T326 458Q309 458 290 455T253 447T219 437T193 427V93Q193 77 194 68T198 53T205 46T218 41L254 30V0H30V30L67 41Q82 45 87 54T93 93V403Q93 418 92 426T88 440T80 449T65 457L30 476V502L183
523L193 517L188 461H192Q210 473 232 484T280 504T330 518T379 524Q448 524 476 492T505 391V-2Q505 -66 491 -109T452 -179T394 -216T323 -228Q276 -228 253 -207T230 -159Q230 -139 245 -126T283 -112Q312 -112 322 -126T335 -157Q338 -180 342 -185T354 -191Q377
-191 391 -171T405 -107V363Z" />
<glyph unicode="&#x14c;" glyph-name="Omacron" d="M286 -12Q230 -12 184 10T104 77T52 186T33 337Q33 434 54 503T110 618T193 684T294 705Q350 705 396 682T476 614T528 503T547 351Q547 254 526 185T470 73T387 9T286 -12ZM292 37Q333 37 360 53T404 105T426
197T433 334Q433 394 428 452T408 555T364 629T287 657Q246 657 219 640T176 586T154 492T147 354Q147 294 151 237T171 136T215 64T292 37ZM148 842H432V777H148V842Z" />
<glyph unicode="&#x14d;" glyph-name="omacron" d="M291 -13Q241 -13 197 4T121 54T71 138T52 255Q52 321 72 371T125 455T202 507T291 525Q340 525 383 509T459 459T509 377T528 261Q528 195 508 144T455 58T380 5T291 -13ZM294 30Q355 30 387 82T419 247Q419
374 386 428T287 483Q226 483 194 433T161 269Q161 141 194 86T294 30ZM148 693H432V628H148V693Z" />
<glyph unicode="&#x14e;" glyph-name="Obreve" d="M286 -12Q230 -12 184 10T104 77T52 186T33 337Q33 434 54 503T110 618T193 684T294 705Q350 705 396 682T476 614T528 503T547 351Q547 254 526 185T470 73T387 9T286 -12ZM292 37Q333 37 360 53T404 105T426
197T433 334Q433 394 428 452T408 555T364 629T287 657Q246 657 219 640T176 586T154 492T147 354Q147 294 151 237T171 136T215 64T292 37ZM291 755Q263 755 239 765T197 794T168 835T154 885L183 893Q194 865 221 846T290 827Q332 827 359 846T397 893L425 885Q423
859 412 836T384 794T343 766T291 755Z" />
<glyph unicode="&#x14f;" glyph-name="obreve" d="M291 -13Q241 -13 197 4T121 54T71 138T52 255Q52 321 72 371T125 455T202 507T291 525Q340 525 383 509T459 459T509 377T528 261Q528 195 508 144T455 58T380 5T291 -13ZM294 30Q355 30 387 82T419 247Q419
374 386 428T287 483Q226 483 194 433T161 269Q161 141 194 86T294 30ZM291 594Q263 594 239 605T197 635T168 682T154 740L183 748Q194 713 221 689T290 664Q332 664 359 688T397 748L425 740Q423 709 412 682T384 636T343 605T291 594Z" />
<glyph unicode="&#x150;" glyph-name="Ohungarumlaut" d="M286 -12Q230 -12 184 10T104 77T52 186T33 337Q33 434 54 503T110 618T193 684T294 705Q350 705 396 682T476 614T528 503T547 351Q547 254 526 185T470 73T387 9T286 -12ZM292 37Q333 37 360 53T404
105T426 197T433 334Q433 394 428 452T408 555T364 629T287 657Q246 657 219 640T176 586T154 492T147 354Q147 294 151 237T171 136T215 64T292 37ZM158 782L253 905Q268 926 288 926Q300 926 316 915T332 886Q332 875 328 866T306 846L176 762L158 782ZM333 782L429
905Q445 926 463 926Q476 926 491 915T507 886Q507 875 503 866T482 846L350 762L333 782Z" />
<glyph unicode="&#x151;" glyph-name="ohungarumlaut" d="M291 -13Q241 -13 197 4T121 54T71 138T52 255Q52 321 72 371T125 455T202 507T291 525Q340 525 383 509T459 459T509 377T528 261Q528 195 508 144T455 58T380 5T291 -13ZM294 30Q355 30 387 82T419 247Q419
374 386 428T287 483Q226 483 194 433T161 269Q161 141 194 86T294 30ZM158 612L253 735Q268 756 288 756Q300 756 316 745T332 716Q332 705 328 696T306 676L176 592L158 612ZM333 612L429 735Q445 756 463 756Q476 756 491 745T507 716Q507 705 503 696T482 676L350
592L333 612Z" />
<glyph unicode="&#x152;" glyph-name="OE" d="M227 42Q239 42 247 44T261 55T268 80T271 125V574Q271 620 263 635T224 651Q168 651 148 578T127 359Q127 269 132 208T148 110T179 58T227 42ZM23 340Q23 439 39 506T84 615T148 675T226 693H549L557 516H526Q515
553 507 576T490 617Q479 638 464 643T420 649Q402 649 390 647T369 640V383H391Q414 383 423 387T439 407Q448 429 451 445T460 481H490V239H460Q455 259 452 274T438 318Q436 324 433 328T425 334T412 336T390 337H369V107Q369 84 371 71T378 52T391 45T412 44Q432
44 444 44T465 48T478 59T489 81Q500 110 508 140T527 209H558L549 0H222Q183 0 147 13T84 63T40 166T23 340Z" />
<glyph unicode="&#x153;" glyph-name="oe" d="M183 30Q200 30 212 40T233 74T245 141T249 247Q249 318 245 364T233 436T211 473T179 483Q161 483 149 474T128 440T116 375T112 269Q112 198 116 152T128 78T149 41T183 30ZM410 483Q396 483 384 476T363 449T347
396T339 313L464 319Q464 370 462 402T453 452T437 476T410 483ZM429 -12Q381 -12 349 8T297 69Q277 26 247 7T179 -13Q144 -13 115 1T63 47T28 130T15 255Q15 328 28 379T65 463T119 510T182 525Q222 525 252 507T301 447Q341 525 417 525Q449 525 475 514T519
475T547 397T557 270H339Q339 206 346 164T368 97T402 62T451 52Q483 52 506 61T549 84V44Q534 25 504 7T429 -12Z" />
<glyph unicode="&#x154;" glyph-name="Racute" d="M250 359Q322 359 353 394T384 507Q384 553 378 581T359 624T325 644T276 649Q250 649 231 647T201 642V363Q202 363 217 361T250 359ZM29 31L65 40Q73 41 78 44T87 53T92 70T94 100V594Q94 613 93 624T88 641T79
649T65 654L29 663V693H286Q396 693 446 649T496 517Q496 461 463 414T366 344V341Q382 306 400 269T438 195T477 126T514 65Q521 54 529 49T558 37L576 31V0H431Q386 72 345 152T271 313H201V100Q201 81 202 70T207 53T216 45T231 40L269 31V0H29V31ZM417 772L579
886Q601 901 618 901Q635 901 647 888T659 858Q659 845 651 832T622 812L428 748L417 772Z" />
<glyph unicode="&#x155;" glyph-name="racute" d="M84 30L118 37Q134 40 144 44T161 56T169 78T172 115V373Q172 398 170 412T163 436T148 450T121 462L84 476V502L262 523L272 515L267 443H271Q311 483 359 504T449 525Q486 525 505 508T524 459Q524 428 507
413T463 398Q437 398 425 408T404 439Q399 451 393 454T379 457Q365 457 350 452T319 438T292 419T272 400V115Q272 91 274 78T283 57T304 46T343 39L409 30V0H84V30ZM212 617L374 731Q396 746 413 746Q430 746 442 733T454 703Q454 690 446 677T417 657L223 593L212
617Z" />
<glyph unicode="&#x156;" glyph-name="uni0156" d="M250 359Q322 359 353 394T384 507Q384 553 378 581T359 624T325 644T276 649Q250 649 231 647T201 642V363Q202 363 217 361T250 359ZM29 31L65 40Q73 41 78 44T87 53T92 70T94 100V594Q94 613 93 624T88 641T79
649T65 654L29 663V693H286Q396 693 446 649T496 517Q496 461 463 414T366 344V341Q382 306 400 269T438 195T477 126T514 65Q521 54 529 49T558 37L576 31V0H431Q386 72 345 152T271 313H201V100Q201 81 202 70T207 53T216 45T231 40L269 31V0H29V31ZM209 -257Q235
-248 251 -238T277 -216T290 -192T294 -168Q291 -170 285 -172T269 -175Q242 -175 229 -160T216 -123Q216 -100 234 -84T280 -67Q312 -67 335 -85T358 -146Q358 -192 324 -231T217 -284L209 -257Z" />
<glyph unicode="&#x157;" glyph-name="uni0157" d="M84 30L118 37Q134 40 144 44T161 56T169 78T172 115V373Q172 398 170 412T163 436T148 450T121 462L84 476V502L262 523L272 515L267 443H271Q311 483 359 504T449 525Q486 525 505 508T524 459Q524 428 507
413T463 398Q437 398 425 408T404 439Q399 451 393 454T379 457Q365 457 350 452T319 438T292 419T272 400V115Q272 91 274 78T283 57T304 46T343 39L409 30V0H84V30ZM405 -257Q431 -248 447 -238T473 -216T486 -192T490 -168Q487 -170 481 -172T465 -175Q438 -175
425 -160T412 -123Q412 -100 430 -84T476 -67Q508 -67 531 -85T554 -146Q554 -192 520 -231T413 -284L405 -257Z" />
<glyph unicode="&#x158;" glyph-name="Rcaron" d="M250 359Q322 359 353 394T384 507Q384 553 378 581T359 624T325 644T276 649Q250 649 231 647T201 642V363Q202 363 217 361T250 359ZM29 31L65 40Q73 41 78 44T87 53T92 70T94 100V594Q94 613 93 624T88 641T79
649T65 654L29 663V693H286Q396 693 446 649T496 517Q496 461 463 414T366 344V341Q382 306 400 269T438 195T477 126T514 65Q521 54 529 49T558 37L576 31V0H431Q386 72 345 152T271 313H201V100Q201 81 202 70T207 53T216 45T231 40L269 31V0H29V31ZM364 885L381
909L522 839L663 909L681 885L548 758H497L364 885Z" />
<glyph unicode="&#x159;" glyph-name="rcaron" d="M84 30L118 37Q134 40 144 44T161 56T169 78T172 115V373Q172 398 170 412T163 436T148 450T121 462L84 476V502L262 523L272 515L267 443H271Q311 483 359 504T449 525Q486 525 505 508T524 459Q524 428 507
413T463 398Q437 398 425 408T404 439Q399 451 393 454T379 457Q365 457 350 452T319 438T292 419T272 400V115Q272 91 274 78T283 57T304 46T343 39L409 30V0H84V30ZM172 739L189 763L330 679L471 763L489 739L356 598H305L172 739Z" />
<glyph unicode="&#x15a;" glyph-name="Sacute" d="M269 -13Q207 -13 157 -4T73 17L62 204H99Q114 169 126 142T159 86Q169 72 179 63T203 47T235 39T279 36Q313 36 339 45T384 71T411 108T421 153Q421 177 413 197T385 235T333 272T254 311Q208 332 175 352T119
397T86 450T75 517Q75 557 91 591T136 651T206 691T297 706Q355 706 395 701T462 688L475 520H439Q430 540 424 554T412 579T401 599T387 619Q373 635 353 646T290 658Q262 658 238 650T195 628T167 593T157 548Q157 526 163 509T185 476T228 445T299 410Q355 385
395 362T461 314T499 263T511 204Q511 159 496 119T451 50T375 4T269 -13ZM182 772L344 886Q366 901 383 901Q400 901 412 888T424 858Q424 845 416 832T387 812L193 748L182 772Z" />
<glyph unicode="&#x15b;" glyph-name="sacute" d="M267 -12Q201 -12 159 -2T86 20L81 169H113Q126 140 134 121T161 79Q168 71 176 63T197 47T229 36T277 31Q346 31 378 52T411 113Q411 133 405 148T381 174T336 196T263 218Q169 242 130 279T90 375Q90 410 106
437T150 484T218 514T303 525Q335 525 359 523T402 516T436 507T464 497L468 363H438Q425 389 416 406T398 434Q389 445 381 454T361 469T333 479T291 483Q228 483 200 462T171 403Q171 389 175 377T195 354T238 332T313 309Q413 284 456 248T499 154Q499 119 485
89T441 36T369 1T267 -12ZM174 617L336 731Q358 746 375 746Q392 746 404 733T416 703Q416 690 408 677T379 657L185 593L174 617Z" />
<glyph unicode="&#x15c;" glyph-name="Scircumflex" d="M269 -13Q207 -13 157 -4T73 17L62 204H99Q114 169 126 142T159 86Q169 72 179 63T203 47T235 39T279 36Q313 36 339 45T384 71T411 108T421 153Q421 177 413 197T385 235T333 272T254 311Q208 332 175 352T119
397T86 450T75 517Q75 557 91 591T136 651T206 691T297 706Q355 706 395 701T462 688L475 520H439Q430 540 424 554T412 579T401 599T387 619Q373 635 353 646T290 658Q262 658 238 650T195 628T167 593T157 548Q157 526 163 509T185 476T228 445T299 410Q355 385
395 362T461 314T499 263T511 204Q511 159 496 119T451 50T375 4T269 -13ZM449 770L431 746L290 816L149 746L132 770L264 897H315L449 770Z" />
<glyph unicode="&#x15d;" glyph-name="scircumflex" d="M267 -12Q201 -12 159 -2T86 20L81 169H113Q126 140 134 121T161 79Q168 71 176 63T197 47T229 36T277 31Q346 31 378 52T411 113Q411 133 405 148T381 174T336 196T263 218Q169 242 130 279T90 375Q90 410
106 437T150 484T218 514T303 525Q335 525 359 523T402 516T436 507T464 497L468 363H438Q425 389 416 406T398 434Q389 445 381 454T361 469T333 479T291 483Q228 483 200 462T171 403Q171 389 175 377T195 354T238 332T313 309Q413 284 456 248T499 154Q499 119
485 89T441 36T369 1T267 -12ZM449 610L431 586L290 670L149 586L132 610L264 751H315L449 610Z" />
<glyph unicode="&#x15e;" glyph-name="uni015E" d="M188 -212Q250 -198 273 -180T297 -142Q297 -109 227 -103L218 -94L260 -13Q203 -12 157 -3Q107 6 73 17L62 204H99Q114 169 126 142T159 86Q169 72 179 63T203 47T235 39T279 36Q313 36 339 45T384 71T411 108T421
153Q421 177 413 197T385 235T333 272T254 311Q208 332 175 352T119 397T86 450T75 517Q75 557 91 591T136 651T206 691T297 706Q355 706 395 701T462 688L475 520H439Q430 540 424 554T412 579T401 599T387 619Q373 635 353 646T290 658Q262 658 238 650T195 628T167
593T157 548Q157 526 163 509T185 476T228 445T299 410Q355 385 395 362T461 314T499 263T511 204Q511 159 496 119T451 50T374 4Q344 -7 308 -11L274 -57Q324 -61 349 -80T374 -128Q374 -145 363 -162T330 -195T272 -223T188 -239V-212Z" />
<glyph unicode="&#x15f;" glyph-name="uni015F" d="M184 -212Q246 -198 269 -180T293 -142Q293 -109 223 -103L214 -94L256 -12Q197 -11 158 -1Q116 9 86 20L81 169H113Q126 140 134 121T161 79Q168 71 176 63T197 47T229 36T277 31Q346 31 378 52T411 113Q411
133 405 148T381 174T336 196T263 218Q169 242 130 279T90 375Q90 410 106 437T150 484T218 514T303 525Q335 525 359 523T402 516T436 507T464 497L468 363H438Q425 389 416 406T398 434Q389 445 381 454T361 469T333 479T291 483Q228 483 200 462T171 403Q171
389 175 377T195 354T238 332T313 309Q413 284 456 248T499 154Q499 119 485 89T441 36T368 0Q339 -8 304 -10L270 -57Q320 -61 345 -80T370 -128Q370 -145 359 -162T326 -195T268 -223T184 -239V-212Z" />
<glyph unicode="&#x160;" glyph-name="Scaron" d="M269 -13Q207 -13 157 -4T73 17L62 204H99Q114 169 126 142T159 86Q169 72 179 63T203 47T235 39T279 36Q313 36 339 45T384 71T411 108T421 153Q421 177 413 197T385 235T333 272T254 311Q208 332 175 352T119
397T86 450T75 517Q75 557 91 591T136 651T206 691T297 706Q355 706 395 701T462 688L475 520H439Q430 540 424 554T412 579T401 599T387 619Q373 635 353 646T290 658Q262 658 238 650T195 628T167 593T157 548Q157 526 163 509T185 476T228 445T299 410Q355 385
395 362T461 314T499 263T511 204Q511 159 496 119T451 50T375 4T269 -13ZM385 885L402 909L543 839L684 909L702 885L569 758H518L385 885Z" />
<glyph unicode="&#x161;" glyph-name="scaron" d="M267 -12Q201 -12 159 -2T86 20L81 169H113Q126 140 134 121T161 79Q168 71 176 63T197 47T229 36T277 31Q346 31 378 52T411 113Q411 133 405 148T381 174T336 196T263 218Q169 242 130 279T90 375Q90 410 106
437T150 484T218 514T303 525Q335 525 359 523T402 516T436 507T464 497L468 363H438Q425 389 416 406T398 434Q389 445 381 454T361 469T333 479T291 483Q228 483 200 462T171 403Q171 389 175 377T195 354T238 332T313 309Q413 284 456 248T499 154Q499 119 485
89T441 36T369 1T267 -12ZM132 739L149 763L290 679L431 763L449 739L316 598H265L132 739Z" />
<glyph unicode="&#x162;" glyph-name="Tcommaaccent" d="M147 31L201 40Q210 41 216 44T227 53T234 70T236 100V651H222Q194 651 177 650T148 644T128 628T110 599Q103 586 98 574T88 548T78 518T66 481H33L42 693H538L547 481H514Q507 502 502 518T492 547T482
573T470 599Q460 617 452 627T433 643T404 650T358 651H345V100Q345 81 346 70T352 53T362 44T379 40L433 31V0H147V31ZM209 -257Q235 -248 251 -238T277 -216T290 -192T294 -168Q291 -170 285 -172T269 -175Q242 -175 229 -160T216 -123Q216 -100 234 -84T280
-67Q312 -67 335 -85T358 -146Q358 -192 324 -231T217 -284L209 -257Z" />
<glyph unicode="&#x163;" glyph-name="tcommaaccent" d="M341 -12Q310 -12 284 -6T240 15T211 55T200 119V456H70V485Q115 492 146 504T200 535T236 577T261 632H300V509H504L491 456H300V137Q300 109 305 92T321 66T347 53T383 49Q437 49 464 57T507 70V38Q500
32 487 23T452 7T403 -6T341 -12ZM251 -257Q277 -248 293 -238T319 -216T332 -192T336 -168Q333 -170 327 -172T311 -175Q284 -175 271 -160T258 -123Q258 -100 276 -84T322 -67Q354 -67 377 -85T400 -146Q400 -192 366 -231T259 -284L251 -257Z" />
<glyph unicode="&#x164;" glyph-name="Tcaron" d="M147 31L201 40Q210 41 216 44T227 53T234 70T236 100V651H222Q194 651 177 650T148 644T128 628T110 599Q103 586 98 574T88 548T78 518T66 481H33L42 693H538L547 481H514Q507 502 502 518T492 547T482 573T470
599Q460 617 452 627T433 643T404 650T358 651H345V100Q345 81 346 70T352 53T362 44T379 40L433 31V0H147V31ZM132 885L149 909L290 839L431 909L449 885L316 758H265L132 885Z" />
<glyph unicode="&#x165;" glyph-name="tcaron" d="M341 -12Q310 -12 284 -6T240 15T211 55T200 119V456H70V485Q115 492 146 504T200 535T236 577T261 632H300V509H504L491 456H300V137Q300 109 305 92T321 66T347 53T383 49Q437 49 464 57T507 70V38Q500 32 487
23T452 7T403 -6T341 -12ZM389 572L397 715Q398 734 407 749T443 765Q460 765 472 755T484 726Q484 719 483 712T477 695L414 565L389 572Z" />
<glyph unicode="&#x166;" glyph-name="Tbar" d="M98 404H483V359H98V404ZM147 31L201 40Q210 41 216 44T227 53T234 70T236 100V651H222Q194 651 177 650T148 644T128 628T110 599Q103 586 98 574T88 548T78 518T66 481H33L42 693H538L547 481H514Q507 502 502
518T492 547T482 573T470 599Q460 617 452 627T433 643T404 650T358 651H345V100Q345 81 346 70T352 53T362 44T379 40L433 31V0H147V31Z" />
<glyph unicode="&#x167;" glyph-name="tbar" d="M67 351H505V307H67V351ZM341 -12Q310 -12 284 -6T240 15T211 55T200 119V456H70V485Q115 492 146 504T200 535T236 577T261 632H300V509H504L491 456H300V137Q300 109 305 92T321 66T347 53T383 49Q437 49 464
57T507 70V38Q500 32 487 23T452 7T403 -6T341 -12Z" />
<glyph unicode="&#x168;" glyph-name="Utilde" d="M298 -12Q246 -12 204 0T131 38T85 105T68 205V594Q68 613 67 624T62 641T53 650T39 655L12 663V693H241V663L206 654Q197 652 191 649T182 640T178 624T177 594V195Q177 115 210 81T324 46Q398 46 431 86T465
204V584Q465 606 464 619T458 640T447 651T428 656L387 663V693H567V663L549 657Q540 654 533 651T522 640T515 620T512 584V197Q512 155 500 117T462 51T396 5T298 -12ZM150 777Q172 836 194 863T248 891Q263 891 283 885T322 871T358 857T384 850Q400 850 413
861T444 906L476 893Q454 833 432 806T378 779Q363 779 344 785T305 799T269 813T242 820Q226 820 214 809T184 763L150 777Z" />
<glyph unicode="&#x169;" glyph-name="utilde" d="M216 -12Q157 -12 124 21T91 119V413Q91 427 90 435T86 447T78 454T65 461L27 479V506L176 523L191 513V142Q191 98 209 76T269 53Q302 53 335 65T393 90V413Q393 427 392 435T389 447T381 454T367 461L330 479V506L480
523L493 513V115Q493 98 494 88T498 72T506 61T521 53L555 36V9L404 -12L393 -4L398 56H394Q357 30 312 9T216 -12ZM121 597Q143 660 165 690T219 721Q234 721 254 715T293 701T329 687T355 680Q371 680 384 695T415 746L447 733Q425 670 403 640T349 609Q334 609
315 615T276 629T240 643T213 650Q197 650 185 634T155 583L121 597Z" />
<glyph unicode="&#x16a;" glyph-name="Umacron" d="M298 -12Q246 -12 204 0T131 38T85 105T68 205V594Q68 613 67 624T62 641T53 650T39 655L12 663V693H241V663L206 654Q197 652 191 649T182 640T178 624T177 594V195Q177 115 210 81T324 46Q398 46 431 86T465
204V584Q465 606 464 619T458 640T447 651T428 656L387 663V693H567V663L549 657Q540 654 533 651T522 640T515 620T512 584V197Q512 155 500 117T462 51T396 5T298 -12ZM168 842H452V777H168V842Z" />
<glyph unicode="&#x16b;" glyph-name="umacron" d="M216 -12Q157 -12 124 21T91 119V413Q91 427 90 435T86 447T78 454T65 461L27 479V506L176 523L191 513V142Q191 98 209 76T269 53Q302 53 335 65T393 90V413Q393 427 392 435T389 447T381 454T367 461L330 479V506L480
523L493 513V115Q493 98 494 88T498 72T506 61T521 53L555 36V9L404 -12L393 -4L398 56H394Q357 30 312 9T216 -12ZM148 693H432V628H148V693Z" />
<glyph unicode="&#x16c;" glyph-name="Ubreve" d="M298 -12Q246 -12 204 0T131 38T85 105T68 205V594Q68 613 67 624T62 641T53 650T39 655L12 663V693H241V663L206 654Q197 652 191 649T182 640T178 624T177 594V195Q177 115 210 81T324 46Q398 46 431 86T465
204V584Q465 606 464 619T458 640T447 651T428 656L387 663V693H567V663L549 657Q540 654 533 651T522 640T515 620T512 584V197Q512 155 500 117T462 51T396 5T298 -12ZM314 755Q286 755 262 765T220 794T191 835T177 885L206 893Q217 865 244 846T313 827Q355
827 382 846T420 893L448 885Q446 859 435 836T407 794T366 766T314 755Z" />
<glyph unicode="&#x16d;" glyph-name="ubreve" d="M216 -12Q157 -12 124 21T91 119V413Q91 427 90 435T86 447T78 454T65 461L27 479V506L176 523L191 513V142Q191 98 209 76T269 53Q302 53 335 65T393 90V413Q393 427 392 435T389 447T381 454T367 461L330 479V506L480
523L493 513V115Q493 98 494 88T498 72T506 61T521 53L555 36V9L404 -12L393 -4L398 56H394Q357 30 312 9T216 -12ZM291 594Q263 594 239 605T197 635T168 682T154 740L183 748Q194 713 221 689T290 664Q332 664 359 688T397 748L425 740Q423 709 412 682T384 636T343
605T291 594Z" />
<glyph unicode="&#x16e;" glyph-name="Uring" d="M298 -12Q246 -12 204 0T131 38T85 105T68 205V594Q68 613 67 624T62 641T53 650T39 655L12 663V693H241V663L206 654Q197 652 191 649T182 640T178 624T177 594V195Q177 115 210 81T324 46Q398 46 431 86T465
204V584Q465 606 464 619T458 640T447 651T428 656L387 663V693H567V663L549 657Q540 654 533 651T522 640T515 620T512 584V197Q512 155 500 117T462 51T396 5T298 -12ZM313 974Q291 974 273 982T241 1003T219 1034T211 1072Q211 1114 240 1142T313 1171Q357 1171
386 1143T415 1072Q415 1052 407 1035T386 1004T354 982T313 974ZM313 1012Q339 1012 355 1029T371 1072Q371 1098 355 1115T313 1133Q287 1133 271 1116T255 1072Q255 1046 271 1029T313 1012Z" />
<glyph unicode="&#x16f;" glyph-name="uring" d="M216 -12Q157 -12 124 21T91 119V413Q91 427 90 435T86 447T78 454T65 461L27 479V506L176 523L191 513V142Q191 98 209 76T269 53Q302 53 335 65T393 90V413Q393 427 392 435T389 447T381 454T367 461L330 479V506L480
523L493 513V115Q493 98 494 88T498 72T506 61T521 53L555 36V9L404 -12L393 -4L398 56H394Q357 30 312 9T216 -12ZM290 588Q268 588 250 596T218 617T196 648T188 686Q188 728 217 756T290 785Q334 785 363 757T392 686Q392 666 384 649T363 618T331 596T290 588ZM290
626Q316 626 332 643T348 686Q348 712 332 729T290 747Q264 747 248 730T232 686Q232 660 248 643T290 626Z" />
<glyph unicode="&#x170;" glyph-name="Uhungarumlaut" d="M298 -12Q246 -12 204 0T131 38T85 105T68 205V594Q68 613 67 624T62 641T53 650T39 655L12 663V693H241V663L206 654Q197 652 191 649T182 640T178 624T177 594V195Q177 115 210 81T324 46Q398 46 431
86T465 204V584Q465 606 464 619T458 640T447 651T428 656L387 663V693H567V663L549 657Q540 654 533 651T522 640T515 620T512 584V197Q512 155 500 117T462 51T396 5T298 -12ZM187 782L282 905Q297 926 317 926Q329 926 345 915T361 886Q361 875 357 866T335
846L205 762L187 782ZM362 782L458 905Q474 926 492 926Q505 926 520 915T536 886Q536 875 532 866T511 846L379 762L362 782Z" />
<glyph unicode="&#x171;" glyph-name="uhungarumlaut" d="M216 -12Q157 -12 124 21T91 119V413Q91 427 90 435T86 447T78 454T65 461L27 479V506L176 523L191 513V142Q191 98 209 76T269 53Q302 53 335 65T393 90V413Q393 427 392 435T389 447T381 454T367 461L330
479V506L480 523L493 513V115Q493 98 494 88T498 72T506 61T521 53L555 36V9L404 -12L393 -4L398 56H394Q357 30 312 9T216 -12ZM158 612L253 735Q268 756 288 756Q300 756 316 745T332 716Q332 705 328 696T306 676L176 592L158 612ZM333 612L429 735Q445 756
463 756Q476 756 491 745T507 716Q507 705 503 696T482 676L350 592L333 612Z" />
<glyph unicode="&#x172;" glyph-name="Uogonek" d="M332 -223Q290 -223 263 -201T236 -139Q236 -103 261 -72T330 -11Q322 -12 315 -12T298 -12Q246 -12 204 0T131 38T85 105T68 205V594Q68 613 67 624T62 641T53 650T39 655L12 663V693H241V663L206 654Q197 652
191 649T182 640T178 624T177 594V195Q177 115 210 81T324 46Q398 46 431 86T465 204V584Q465 606 464 619T458 640T447 651T428 656L387 663V693H567V663L549 657Q540 654 533 651T522 640T515 620T512 584V197Q512 144 494 100T433 25Q412 10 393 -4T358 -35T334
-72T325 -119Q325 -139 332 -151T356 -168Q367 -170 381 -171T415 -171V-199Q403 -207 384 -215T332 -223Z" />
<glyph unicode="&#x173;" glyph-name="uogonek" d="M398 56H394Q357 30 312 9T216 -12Q157 -12 124 21T91 119V413Q91 427 90 435T86 447T78 454T65 461L27 479V506L176 523L191 513V142Q191 98 209 76T269 53Q302 53 335 65T393 90V413Q393 427 392 435T389 447T381
454T367 461L330 479V506L480 523L493 513V115Q493 98 494 88T498 72T506 61T521 53L555 36V9L518 4Q481 -1 456 -13T414 -41T391 -78T384 -119Q384 -139 391 -151T415 -168Q426 -170 440 -171T474 -171V-199Q462 -207 443 -215T391 -223Q349 -223 322 -201T295
-139Q295 -117 304 -98T328 -62T361 -31T396 -4L398 56Z" />
<glyph unicode="&#x174;" glyph-name="Wcircumflex" d="M34 605Q28 635 23 644T9 659L1 663V693H176V663L152 656Q133 650 133 619Q133 607 134 595T139 566L203 196H206L274 524L261 587Q253 624 247 637T228 656L207 663V693H398V663L373 656Q351 649 351 619Q351
607 352 596T356 573L427 196H429L494 574Q496 585 497 596T499 621Q499 634 495 642T478 656L459 663V693H577V663L572 660Q566 657 563 653T556 639T549 616T541 577L433 0H380L298 430H296L207 0H153L34 605ZM459 770L441 746L300 816L159 746L142 770L274 897H325L459
770Z" />
<glyph unicode="&#x175;" glyph-name="wcircumflex" d="M65 405Q55 438 48 452T26 475L17 480V509H185V480L169 473Q161 468 157 463T152 445Q152 436 155 421T162 389L213 150H217L273 383L265 417Q255 462 234 472L220 480V509H391V480L372 473Q355 466 355
441Q355 424 363 389L416 150H419L470 389Q474 409 476 422T478 443Q478 466 459 473L440 480V509H563V480L554 475Q542 468 534 452T515 395L420 0H365L294 321H292L218 0H162L65 405ZM459 610L441 586L300 670L159 586L142 610L274 751H325L459 610Z" />
<glyph unicode="&#x176;" glyph-name="Ycircumflex" d="M172 31L211 40Q220 42 225 44T234 53T238 70T240 100V280L108 567Q96 591 88 607T72 632T57 647T41 656L21 663V693H263V663L241 657Q221 652 214 644T206 621Q206 611 211 599T224 567L319 345H323L417
567Q425 586 428 598T432 621Q432 647 401 656L375 663V693H560V663L542 656Q531 652 523 647T506 630T488 601T466 553L349 288V100Q349 81 350 70T354 53T363 45T379 40L418 31V0H172V31ZM469 770L451 746L310 816L169 746L152 770L284 897H335L469 770Z" />
<glyph unicode="&#x177;" glyph-name="ycircumflex" d="M127 -226Q80 -226 61 -206T41 -161Q41 -138 54 -123T90 -107Q114 -107 126 -119T144 -148Q148 -159 150 -162T160 -166Q177 -166 199 -141T245 -61L269 -4L101 405Q93 425 88 436T77 455T66 465T49 472L25
480V509H253V480L226 473Q209 468 203 463T197 443Q197 425 212 389L320 121H324L422 389Q429 409 431 423T434 447Q434 460 427 464T406 473L378 480V509H559V480L531 472Q522 469 516 465T505 453T494 430T480 395L299 -59Q284 -96 268 -126T231 -179T185 -213T127
-226ZM476 610L458 586L317 670L176 586L159 610L291 751H342L476 610Z" />
<glyph unicode="&#x178;" glyph-name="Ydieresis" d="M172 31L211 40Q220 42 225 44T234 53T238 70T240 100V280L108 567Q96 591 88 607T72 632T57 647T41 656L21 663V693H263V663L241 657Q221 652 214 644T206 621Q206 611 211 599T224 567L319 345H323L417 567Q425
586 428 598T432 621Q432 647 401 656L375 663V693H560V663L542 656Q531 652 523 647T506 630T488 601T466 553L349 288V100Q349 81 350 70T354 53T363 45T379 40L418 31V0H172V31ZM425 752Q397 752 378 771T359 815Q359 841 378 859T425 878Q452 878 471 860T490
815Q490 791 471 772T425 752ZM208 751Q181 751 162 770T142 814Q142 840 161 858T208 877Q235 877 254 859T274 814Q274 790 255 771T208 751Z" />
<glyph unicode="&#x179;" glyph-name="Zacute" d="M62 44L384 646V650H331Q281 650 251 649T203 644T175 630T156 606Q149 595 144 584T132 560T120 532T106 497H77L86 693H497V650L179 47V43H220Q272 43 305 44T359 50T392 63T413 85Q427 106 438 134T468 213H497L485
0H62V44ZM179 772L341 886Q363 901 380 901Q397 901 409 888T421 858Q421 845 413 832T384 812L190 748L179 772Z" />
<glyph unicode="&#x17a;" glyph-name="zacute" d="M77 33L387 466V470H304Q274 470 255 469T223 464T203 455T190 440Q174 417 163 396T137 342H106L113 509H506V478L194 43V39H267Q308 39 333 41T374 49T398 62T415 83Q433 109 444 131T465 179H497L485 0H77V33ZM202
617L364 731Q386 746 403 746Q420 746 432 733T444 703Q444 690 436 677T407 657L213 593L202 617Z" />
<glyph unicode="&#x17b;" glyph-name="Zdotaccent" d="M62 44L384 646V650H331Q281 650 251 649T203 644T175 630T156 606Q149 595 144 584T132 560T120 532T106 497H77L86 693H497V650L179 47V43H220Q272 43 305 44T359 50T392 63T413 85Q427 106 438 134T468
213H497L485 0H62V44ZM290 750Q261 750 242 770T222 815Q222 842 241 861T290 880Q318 880 337 861T357 815Q357 790 338 770T290 750Z" />
<glyph unicode="&#x17c;" glyph-name="zdotaccent" d="M77 33L387 466V470H304Q274 470 255 469T223 464T203 455T190 440Q174 417 163 396T137 342H106L113 509H506V478L194 43V39H267Q308 39 333 41T374 49T398 62T415 83Q433 109 444 131T465 179H497L485 0H77V33ZM302
614Q273 614 254 634T234 679Q234 706 253 725T302 744Q330 744 349 725T369 679Q369 654 350 634T302 614Z" />
<glyph unicode="&#x17d;" glyph-name="Zcaron" d="M62 44L384 646V650H331Q281 650 251 649T203 644T175 630T156 606Q149 595 144 584T132 560T120 532T106 497H77L86 693H497V650L179 47V43H220Q272 43 305 44T359 50T392 63T413 85Q427 106 438 134T468 213H497L485
0H62V44ZM136 885L153 909L294 839L435 909L453 885L320 758H269L136 885Z" />
<glyph unicode="&#x17e;" glyph-name="zcaron" d="M77 33L387 466V470H304Q274 470 255 469T223 464T203 455T190 440Q174 417 163 396T137 342H106L113 509H506V478L194 43V39H267Q308 39 333 41T374 49T398 62T415 83Q433 109 444 131T465 179H497L485 0H77V33ZM146
739L163 763L304 679L445 763L463 739L330 598H279L146 739Z" />
<glyph unicode="&#x192;" glyph-name="uni0192" d="M70 -196Q20 -196 -4 -179T-29 -131Q-29 -114 -18 -102T16 -89Q34 -89 44 -99T62 -132Q67 -149 70 -155T83 -162Q102 -162 113 -148T132 -90L211 349H118V394H220L240 507Q249 558 268 594T314 655T373 690T442
702Q501 702 527 680T554 631Q554 607 540 593T503 578Q480 578 469 589T451 636Q449 653 444 659T423 665Q400 665 382 645T351 561L320 394H447V349H312L251 23Q240 -36 222 -78T180 -146T128 -184T70 -196Z" />
<glyph unicode="&#x1fa;" glyph-name="Aringacute" d="M181 278H339L260 532H256L181 278ZM184 0H11V31L26 36Q35 39 41 43T54 56T68 82T84 128L257 693H318L499 117Q507 91 513 77T527 54T540 43T555 36L567 31V0H346V31L370 38Q387 43 393 49T400 67Q400 78
396 92T386 126L353 233H168L136 126Q130 106 127 95T124 72Q124 56 132 50T157 38L184 31V0ZM290 738Q268 738 250 746T218 767T196 798T188 836Q188 878 217 906T290 935Q334 935 363 907T392 836Q392 816 384 799T363 768T331 746T290 738ZM290 776Q316 776
332 793T348 836Q348 862 332 879T290 897Q264 897 248 880T232 836Q232 810 248 793T290 776ZM172 974L334 1088Q356 1103 373 1103Q390 1103 402 1090T414 1060Q414 1047 406 1034T377 1014L183 950L172 974Z" />
<glyph unicode="&#x1fb;" glyph-name="aringacute" d="M251 44Q287 44 318 58T360 91V244L274 237Q217 232 188 209T158 128Q158 84 182 64T251 44ZM208 -13Q138 -13 97 21T56 120Q56 182 99 216T234 270L360 296V389Q360 414 356 432T341 463T311 480T259 486Q226
486 217 478T204 446Q200 417 189 398T144 379Q114 379 103 394T91 429Q91 454 108 472T154 502T215 519T280 525Q460 525 460 395V100Q460 80 466 68T487 48Q495 43 507 42T536 39V11Q524 3 499 -4T448 -12Q410 -12 390 4T364 46H359Q350 34 334 23T297 4T253
-8T208 -13ZM290 588Q268 588 250 596T218 617T196 648T188 686Q188 728 217 756T290 785Q334 785 363 757T392 686Q392 666 384 649T363 618T331 596T290 588ZM290 626Q316 626 332 643T348 686Q348 712 332 729T290 747Q264 747 248 730T232 686Q232 660 248
643T290 626ZM172 837L334 951Q356 966 373 966Q390 966 402 953T414 923Q414 910 406 897T377 877L183 813L172 837Z" />
<glyph unicode="&#x1fc;" glyph-name="AEacute" d="M264 591Q264 596 264 601T263 610H258L146 266H264V591ZM133 0H0V31L4 33Q10 36 15 40T25 53T38 82T57 134L228 652L174 663V693H549L557 516H526Q515 553 507 576T490 617Q479 638 464 643T420 649Q399 649
385 647T362 640V383H391Q414 383 423 387T439 407Q448 429 451 445T460 481H490V239H460Q455 259 452 274T438 318Q436 324 433 328T425 334T412 336T390 337H362V107Q362 84 364 71T373 52T388 45T412 44Q432 44 444 44T465 48T478 59T489 81Q500 110 508 140T527
209H558L549 0H214V31L239 40Q246 41 250 44T258 53T262 70T264 100V221H132L103 132Q96 110 93 95T89 69Q89 55 95 48T116 36L133 31V0ZM257 772L419 886Q441 901 458 901Q475 901 487 888T499 858Q499 845 491 832T462 812L268 748L257 772Z" />
<glyph unicode="&#x1fd;" glyph-name="aeacute" d="M392 483Q361 483 340 441T314 308L452 313Q452 363 450 395T440 447T422 475T392 483ZM169 45Q216 45 243 109Q226 166 225 250L182 244Q166 242 153 236T130 217T115 186T109 139Q109 88 126 67T169 45ZM134
-13Q78 -13 48 22T18 129Q18 160 27 185T53 229T91 261T137 280L225 300V389Q225 440 213 463T164 486Q144 486 138 480T129 453Q126 424 116 405T79 386Q56 386 46 399T35 432Q35 457 47 474T79 503T126 519T179 525Q263 525 289 465Q332 525 397 525Q431 525
458 513T505 472T534 392T545 264H314Q315 199 323 158T346 94T381 61T427 52Q464 52 489 61T534 84V44Q526 36 513 26T482 8T442 -6T394 -12Q301 -12 261 65H258Q210 -13 134 -13ZM172 617L334 731Q356 746 373 746Q390 746 402 733T414 703Q414 690 406 677T377
657L183 593L172 617Z" />
<glyph unicode="&#x1fe;" glyph-name="Oslashacute" d="M147 354Q147 302 149 258T157 178L403 583Q387 619 360 638T287 657Q246 657 219 640T176 586T154 492T147 354ZM292 37Q333 37 360 53T404 105T426 197T433 334Q433 388 431 434T422 518L175 112Q191 75
218 56T292 37ZM286 -12Q197 -12 133 44L74 -54H16L99 83Q67 127 50 190T33 337Q33 434 54 503T110 618T193 684T294 705Q382 705 443 650L486 720H545L479 611Q511 566 529 501T547 351Q547 254 526 185T470 73T387 9T286 -12ZM172 772L334 886Q356 901 373 901Q390
901 402 888T414 858Q414 845 406 832T377 812L183 748L172 772Z" />
<glyph unicode="&#x1ff;" glyph-name="oslashacute" d="M161 269Q161 179 174 128L388 432Q371 461 347 472T287 483Q226 483 194 433T161 269ZM294 30Q355 30 387 82T419 247Q419 333 407 384L193 81Q210 52 235 41T294 30ZM291 -13Q212 -13 155 26L98 -54H46L122
54Q90 88 71 138T52 255Q52 321 72 371T125 455T202 507T291 525Q368 525 427 486L477 558H529L459 459Q491 426 509 377T528 261Q528 195 508 144T455 58T380 5T291 -13ZM172 617L334 731Q356 746 373 746Q390 746 402 733T414 703Q414 690 406 677T377 657L183
593L172 617Z" />
<glyph unicode="&#x218;" glyph-name="uni0218" d="M269 -13Q207 -13 157 -4T73 17L62 204H99Q114 169 126 142T159 86Q169 72 179 63T203 47T235 39T279 36Q313 36 339 45T384 71T411 108T421 153Q421 177 413 197T385 235T333 272T254 311Q208 332 175 352T119
397T86 450T75 517Q75 557 91 591T136 651T206 691T297 706Q355 706 395 701T462 688L475 520H439Q430 540 424 554T412 579T401 599T387 619Q373 635 353 646T290 658Q262 658 238 650T195 628T167 593T157 548Q157 526 163 509T185 476T228 445T299 410Q355 385
395 362T461 314T499 263T511 204Q511 159 496 119T451 50T375 4T269 -13ZM209 -257Q235 -248 251 -238T277 -216T290 -192T294 -168Q291 -170 285 -172T269 -175Q242 -175 229 -160T216 -123Q216 -100 234 -84T280 -67Q312 -67 335 -85T358 -146Q358 -192 324
-231T217 -284L209 -257Z" />
<glyph unicode="&#x219;" glyph-name="uni0219" d="M267 -12Q201 -12 159 -2T86 20L81 169H113Q126 140 134 121T161 79Q168 71 176 63T197 47T229 36T277 31Q346 31 378 52T411 113Q411 133 405 148T381 174T336 196T263 218Q169 242 130 279T90 375Q90 410 106
437T150 484T218 514T303 525Q335 525 359 523T402 516T436 507T464 497L468 363H438Q425 389 416 406T398 434Q389 445 381 454T361 469T333 479T291 483Q228 483 200 462T171 403Q171 389 175 377T195 354T238 332T313 309Q413 284 456 248T499 154Q499 119 485
89T441 36T369 1T267 -12ZM209 -257Q235 -248 251 -238T277 -216T290 -192T294 -168Q291 -170 285 -172T269 -175Q242 -175 229 -160T216 -123Q216 -100 234 -84T280 -67Q312 -67 335 -85T358 -146Q358 -192 324 -231T217 -284L209 -257Z" />
<glyph unicode="&#x21a;" glyph-name="uni021A" d="M147 31L201 40Q210 41 216 44T227 53T234 70T236 100V651H222Q194 651 177 650T148 644T128 628T110 599Q103 586 98 574T88 548T78 518T66 481H33L42 693H538L547 481H514Q507 502 502 518T492 547T482 573T470
599Q460 617 452 627T433 643T404 650T358 651H345V100Q345 81 346 70T352 53T362 44T379 40L433 31V0H147V31ZM209 -257Q235 -248 251 -238T277 -216T290 -192T294 -168Q291 -170 285 -172T269 -175Q242 -175 229 -160T216 -123Q216 -100 234 -84T280 -67Q312
-67 335 -85T358 -146Q358 -192 324 -231T217 -284L209 -257Z" />
<glyph unicode="&#x21b;" glyph-name="uni021B" d="M341 -12Q310 -12 284 -6T240 15T211 55T200 119V456H70V485Q115 492 146 504T200 535T236 577T261 632H300V509H504L491 456H300V137Q300 109 305 92T321 66T347 53T383 49Q437 49 464 57T507 70V38Q500 32
487 23T452 7T403 -6T341 -12ZM251 -257Q277 -248 293 -238T319 -216T332 -192T336 -168Q333 -170 327 -172T311 -175Q284 -175 271 -160T258 -123Q258 -100 276 -84T322 -67Q354 -67 377 -85T400 -146Q400 -192 366 -231T259 -284L251 -257Z" />
<glyph unicode="&#x237;" glyph-name="uni0237" d="M152 -228Q100 -228 73 -206T45 -155Q45 -132 61 -118T102 -103Q133 -103 144 -118T157 -153Q160 -179 165 -185T181 -191Q219 -191 238 -168T257 -85V369Q257 391 255 405T248 427T234 440T213 448L145 467V493L354
523L364 517Q362 505 360 487Q357 457 357 400V11Q357 -58 340 -104T295 -177T229 -216T152 -228Z" />
<glyph unicode="&#x2c6;" glyph-name="circumflex" d="M449 610L431 586L290 670L149 586L132 610L264 751H315L449 610Z" />
<glyph unicode="&#x2c7;" glyph-name="caron" d="M132 739L149 763L290 679L431 763L449 739L316 598H265L132 739Z" />
<glyph unicode="&#x2d8;" glyph-name="breve" d="M291 594Q263 594 239 605T197 635T168 682T154 740L183 748Q194 713 221 689T290 664Q332 664 359 688T397 748L425 740Q423 709 412 682T384 636T343 605T291 594Z" />
<glyph unicode="&#x2d9;" glyph-name="dotaccent" d="M290 614Q261 614 242 634T222 679Q222 706 241 725T290 744Q318 744 337 725T357 679Q357 654 338 634T290 614Z" />
<glyph unicode="&#x2da;" glyph-name="ring" d="M290 588Q268 588 250 596T218 617T196 648T188 686Q188 728 217 756T290 785Q334 785 363 757T392 686Q392 666 384 649T363 618T331 596T290 588ZM290 626Q316 626 332 643T348 686Q348 712 332 729T290 747Q264
747 248 730T232 686Q232 660 248 643T290 626Z" />
<glyph unicode="&#x2db;" glyph-name="ogonek" d="M277 -223Q235 -223 208 -201T181 -139Q181 -117 190 -97T215 -60T248 -27T283 0H327Q301 -29 286 -58T270 -119Q270 -139 277 -151T301 -168Q312 -170 326 -171T360 -171V-199Q348 -207 329 -215T277 -223Z" />
<glyph unicode="&#x2dc;" glyph-name="tilde" d="M121 597Q143 660 165 690T219 721Q234 721 254 715T293 701T329 687T355 680Q371 680 384 695T415 746L447 733Q425 670 403 640T349 609Q334 609 315 615T276 629T240 643T213 650Q197 650 185 634T155 583L121 597Z" />
<glyph unicode="&#x2dd;" glyph-name="hungarumlaut" d="M158 612L253 735Q268 756 288 756Q300 756 316 745T332 716Q332 705 328 696T306 676L176 592L158 612ZM333 612L429 735Q445 756 463 756Q476 756 491 745T507 716Q507 705 503 696T482 676L350 592L333 612Z" />
</font>
</defs>
</svg>
